{"glyphs":{"0":{"ha":778,"x_min":-32,"x_max":815,"o":"m 210 -21 q 35 44 103 -21 q -32 218 -32 108 q 5 385 -32 304 q 105 536 42 467 q 247 658 168 606 q 413 739 326 710 q 582 768 500 768 q 760 723 706 768 q 815 617 815 678 q 779 515 815 565 q 678 431 743 464 q 525 397 614 397 q 469 403 501 397 q 405 421 436 408 q 352 456 374 433 q 326 514 331 479 l 326 515 q 340 529 326 529 q 354 517 354 529 q 386 464 358 485 q 453 434 414 443 q 525 425 492 425 q 663 454 604 425 q 755 527 722 483 q 788 614 788 571 q 740 703 788 665 q 582 740 692 740 q 420 713 503 740 q 262 635 338 685 q 126 518 186 585 q 31 375 65 451 q -4 218 -4 299 q 54 64 -4 121 q 210 7 113 7 q 358 35 288 7 q 485 115 428 64 q 583 231 543 165 q 639 371 624 297 q 653 382 640 382 q 665 377 660 382 q 667 365 669 372 q 608 217 650 288 q 504 94 565 147 q 368 10 443 40 q 210 -21 293 -21 m 244 69 q 126 123 165 69 q 88 250 88 176 q 120 377 88 314 q 206 497 153 440 q 324 597 260 553 q 452 665 388 640 q 571 690 517 690 q 684 665 650 690 q 718 607 718 640 q 694 544 718 576 q 628 492 669 513 q 538 471 588 471 q 490 479 521 471 q 433 505 460 488 q 403 547 407 522 l 403 550 q 417 563 403 563 q 431 551 429 563 q 453 526 433 539 q 497 506 472 514 q 538 499 521 499 q 613 515 578 499 q 669 556 647 532 q 690 604 690 581 q 663 645 690 628 q 571 663 636 663 q 460 638 521 663 q 338 573 399 614 q 227 478 278 532 q 146 367 176 425 q 115 250 115 308 q 148 140 115 182 q 244 97 181 97 q 353 128 301 97 q 448 206 406 160 q 516 294 490 251 q 544 360 542 338 q 558 372 547 372 q 569 368 564 372 q 572 357 574 364 q 551 301 569 336 q 502 226 533 265 q 430 150 471 186 q 342 92 389 114 q 244 69 294 69 z "},"1":{"ha":611,"x_min":-56,"x_max":588,"o":"m 297 146 q 287 151 292 146 q 283 163 282 156 q 305 224 288 185 q 347 313 322 264 q 397 410 371 361 q 444 501 422 460 q 479 567 467 543 q 509 606 490 589 q 546 638 528 622 q 560 674 560 657 q 541 706 560 694 q 500 718 522 718 q 481 716 490 718 q 465 707 472 714 q 406 656 444 689 q 324 585 367 622 q 244 515 281 547 q 192 467 208 483 q 179 439 179 454 q 186 419 179 428 q 204 410 193 410 q 226 418 214 410 q 235 421 232 421 q 249 407 249 421 q 243 396 249 400 q 204 382 224 382 q 167 399 182 382 q 151 438 151 415 q 174 488 151 465 q 225 535 189 503 q 304 605 261 567 q 386 676 347 643 q 446 728 425 710 q 500 749 471 749 q 560 726 533 749 q 588 671 588 703 q 563 617 588 642 l 557 611 q 528 584 543 597 q 504 553 514 571 q 464 477 494 533 q 401 356 433 421 q 342 233 368 290 q 311 157 315 176 q 297 146 310 146 m 171 104 q 160 108 165 104 q 157 119 156 113 q 176 176 158 132 q 220 280 193 221 q 276 399 247 339 q 328 504 304 458 q 361 564 351 550 q 372 569 365 569 q 385 563 379 569 q 383 547 390 556 q 351 489 374 533 q 300 386 328 444 q 246 270 272 328 q 203 170 219 213 q 185 118 186 128 q 171 104 185 104 m 6 -25 q -40 -10 -25 -25 q -56 24 -56 4 q -28 79 -56 51 q 46 107 -1 107 l 124 107 q 138 93 138 107 q 124 79 138 79 q 85 80 104 79 q 46 81 65 81 q -6 62 15 81 q -28 25 -28 43 q 6 3 -28 3 l 382 3 q 408 21 392 3 q 424 56 424 39 q 415 72 424 65 q 385 79 407 79 l 265 79 q 251 93 251 79 q 265 107 251 107 l 385 107 q 436 92 421 107 q 451 57 451 78 q 430 2 451 29 q 382 -25 408 -25 l 6 -25 z "},"2":{"ha":731,"x_min":-18,"x_max":626,"o":"m 0 60 q -14 72 -12 60 q 11 135 -18 110 q 88 169 40 161 q 88 189 78 178 q 151 244 110 213 q 241 313 193 276 q 334 383 289 349 q 412 444 379 417 q 453 488 444 472 q 472 550 472 521 q 437 617 472 593 q 357 640 401 640 q 277 616 315 640 q 229 538 239 592 q 228 525 228 533 q 243 474 228 499 q 258 425 258 450 q 242 386 258 404 q 203 368 225 368 q 152 391 176 368 q 111 452 128 414 q 94 535 94 490 q 135 656 94 596 q 281 751 175 717 q 365 765 321 765 q 492 736 432 765 q 589 658 551 707 q 626 550 626 610 q 611 478 626 515 q 564 406 596 442 q 462 322 521 357 q 346 253 403 286 q 249 176 289 221 q 239 172 244 172 q 227 180 232 172 q 229 196 222 188 q 328 274 271 242 q 443 342 385 307 q 544 425 501 376 q 584 486 572 456 q 596 547 596 517 q 565 644 596 600 q 483 714 535 688 q 371 740 432 740 q 289 726 329 740 q 162 644 206 699 q 118 531 118 590 q 167 417 118 468 q 203 397 186 397 q 224 408 217 397 q 231 432 231 418 q 222 458 231 446 q 200 525 200 486 q 220 594 200 561 q 275 647 240 626 q 356 668 310 668 q 424 654 392 668 q 478 613 457 640 q 500 549 500 586 q 478 474 500 514 q 433 427 467 456 q 355 365 400 399 q 262 295 310 331 q 174 228 214 260 q 110 172 133 196 q 125 172 117 172 q 144 172 135 172 q 163 169 153 171 q 281 142 218 161 q 407 106 344 122 q 522 89 469 89 q 538 75 538 89 q 522 61 538 61 q 403 78 465 61 q 278 114 340 94 q 158 142 217 133 q 140 144 149 143 q 122 144 131 144 q 39 122 67 144 q 14 76 11 99 l 14 74 q 0 60 14 60 m 493 -24 q 373 -7 436 -24 q 247 29 310 10 q 125 57 183 49 q 117 58 121 57 q 111 58 114 58 q 76 46 86 58 q 67 22 67 33 q 72 4 67 8 q 76 -6 76 0 q 63 -21 76 -21 q 51 -15 57 -21 q 36 21 36 0 q 60 69 36 47 q 128 85 85 92 q 249 57 185 76 q 376 21 313 38 q 493 4 439 4 q 571 33 543 4 q 599 96 599 61 q 590 134 599 115 q 563 167 582 153 q 557 178 557 171 q 565 190 557 185 q 579 189 572 196 q 615 145 604 169 q 626 97 626 121 q 590 13 626 50 q 493 -24 554 -24 z "},"3":{"ha":674,"x_min":-31,"x_max":611,"o":"m 219 -29 q 72 1 128 -29 q -7 82 17 32 q -28 190 -31 132 q -14 203 -28 203 q -3 199 -8 203 q 0 189 1 196 q 18 95 -1 139 q 86 25 38 51 q 219 -1 135 -1 q 365 24 301 -1 q 471 92 428 50 q 537 181 514 133 q 560 274 560 229 q 524 368 560 329 q 411 407 488 407 q 397 421 397 407 q 411 435 397 435 q 479 425 449 435 q 476 435 476 429 q 483 446 476 443 q 558 519 532 475 q 585 607 585 564 q 538 703 585 663 q 386 738 490 744 q 285 722 339 735 q 189 671 231 710 q 179 667 185 667 q 167 675 172 667 q 169 690 163 683 q 277 749 217 735 q 383 765 338 763 q 515 750 465 771 q 588 693 565 729 q 611 614 611 657 q 580 506 611 560 q 497 421 549 453 q 494 419 496 419 q 564 361 542 400 q 586 275 586 322 q 562 172 586 225 q 491 72 538 118 q 376 -1 444 26 q 219 -29 308 -29 m 233 53 q 119 92 163 53 q 75 185 75 132 q 81 224 75 204 q 99 261 86 243 q 110 268 103 268 q 122 261 117 268 q 122 246 128 254 q 104 186 104 218 q 139 112 104 143 q 235 81 174 81 q 337 110 288 81 q 417 181 386 139 q 449 263 449 224 q 404 335 449 306 q 249 357 360 364 q 187 368 206 356 q 168 399 168 381 q 192 443 168 422 q 247 464 215 464 q 372 485 325 464 q 446 536 419 506 q 478 603 478 574 q 450 644 478 631 q 386 658 422 658 q 310 644 347 658 q 258 604 274 631 q 246 597 256 597 q 235 603 240 597 q 235 618 229 610 q 296 669 254 653 q 381 686 338 686 q 468 665 429 686 q 507 604 507 644 q 498 565 507 586 q 468 519 489 544 q 383 458 436 481 q 247 436 329 436 q 214 424 231 436 q 197 400 197 411 q 208 388 197 393 q 247 385 219 383 q 264 385 256 385 q 279 386 272 386 q 431 350 386 386 q 476 265 476 314 q 442 169 476 218 q 352 86 407 119 q 233 53 297 53 z "},"4":{"ha":690,"x_min":14,"x_max":663,"o":"m 268 -10 q 222 4 242 -10 q 201 47 201 18 q 210 85 201 64 q 234 140 214 96 q 281 244 254 185 q 292 253 285 253 q 303 247 299 253 q 306 233 308 242 l 236 75 q 229 49 229 58 q 240 24 229 32 q 265 17 251 17 q 298 26 282 17 q 319 49 314 35 q 342 102 325 63 q 383 195 358 142 q 433 308 407 249 q 484 421 460 367 q 526 514 508 475 q 551 567 544 553 q 579 601 563 586 q 611 632 596 617 l 617 638 q 632 675 632 657 q 613 708 632 696 q 574 719 594 719 q 538 707 553 719 q 504 679 528 697 q 449 638 481 661 q 380 587 417 614 q 304 531 343 560 q 205 456 253 493 q 121 392 157 419 q 71 350 85 364 q 49 321 56 335 q 42 296 42 307 q 81 264 42 264 l 261 264 q 275 250 275 264 q 261 236 275 236 l 81 236 q 29 251 44 236 q 14 289 14 267 q 24 331 14 310 q 51 369 35 353 q 103 414 67 385 q 188 479 139 443 q 288 553 236 515 q 364 609 326 582 q 432 660 401 636 q 485 701 463 683 q 518 728 508 718 q 543 743 529 739 q 571 747 557 747 q 634 724 606 747 q 663 669 663 700 q 635 617 663 640 l 629 611 q 601 584 615 597 q 576 553 586 571 q 551 501 569 540 q 508 409 533 463 q 458 297 483 356 q 408 184 432 238 q 367 91 385 131 q 344 38 350 51 q 314 2 336 14 q 268 -10 292 -10 m 183 340 q 169 354 169 340 q 183 368 169 368 l 294 368 q 336 376 326 368 q 357 408 346 385 l 389 478 q 415 531 401 506 q 433 564 428 556 q 444 569 438 569 q 457 563 451 569 q 456 547 463 556 q 440 518 451 542 q 415 467 428 494 q 392 418 401 439 q 382 397 382 397 q 351 353 368 367 q 294 340 335 340 l 183 340 m 457 236 q 443 250 443 236 q 457 264 443 264 l 571 264 q 597 282 581 264 q 613 317 613 300 q 604 333 613 326 q 574 340 596 340 l 519 340 q 506 354 506 340 q 519 368 506 368 l 574 368 q 625 353 610 368 q 640 318 640 339 q 619 263 640 290 q 571 236 597 236 l 457 236 z "},"5":{"ha":615,"x_min":-28,"x_max":594,"o":"m 163 54 q 94 77 122 54 q 67 154 67 100 q 68 179 67 165 q 72 207 69 193 q 86 218 74 218 q 98 213 93 218 q 100 201 103 208 q 97 178 99 189 q 94 157 94 167 q 114 97 94 114 q 164 79 133 79 q 236 95 197 79 q 310 135 275 111 q 365 181 344 158 q 401 237 389 207 q 414 293 414 267 q 385 360 414 333 q 296 388 357 388 q 242 383 271 388 q 185 369 213 379 q 149 360 165 363 q 122 357 133 357 q 80 374 92 357 q 68 417 68 390 q 83 494 68 450 q 117 581 97 538 q 156 659 138 625 q 182 708 174 693 q 249 757 203 749 q 349 765 294 765 l 524 765 q 578 747 563 764 q 594 708 594 731 q 572 653 594 679 q 515 626 550 626 q 475 628 496 626 q 433 629 454 629 q 381 628 407 629 q 329 628 356 628 l 319 628 q 300 626 310 628 q 282 617 290 624 q 255 583 269 607 q 221 511 240 560 q 208 503 217 503 q 198 508 203 503 q 196 522 193 514 q 217 572 204 543 q 251 626 231 601 q 299 654 271 650 q 313 656 306 656 q 329 656 321 656 l 421 656 q 469 655 446 656 q 515 654 493 654 q 551 672 535 654 q 568 707 568 689 q 558 727 568 718 q 522 738 547 736 l 349 738 q 256 730 290 738 q 207 694 221 722 q 147 580 178 639 q 100 458 117 521 q 95 435 97 446 q 93 417 93 425 q 124 383 93 383 q 176 396 143 383 q 239 411 208 407 q 299 415 269 415 q 408 381 376 415 q 440 297 440 346 q 385 161 440 224 q 320 108 358 132 q 241 69 282 83 q 163 54 200 54 m 149 -29 q 12 13 51 -29 q -28 117 -28 56 q -25 155 -28 136 q -17 193 -22 174 q -3 204 -12 204 q 8 199 4 204 q 10 186 13 194 q -1 117 -1 146 q 33 32 -1 65 q 149 -1 67 -1 q 292 28 228 -1 q 404 104 357 57 q 477 206 451 151 q 503 313 503 261 q 459 421 503 376 q 317 465 415 465 q 256 461 289 465 q 185 447 222 457 l 182 447 q 168 461 168 447 q 179 475 168 472 q 254 490 219 486 q 319 494 289 494 q 481 441 431 494 q 531 314 531 388 q 503 197 531 257 q 426 86 476 138 q 306 3 376 35 q 149 -29 236 -29 z "},"6":{"ha":647,"x_min":-14,"x_max":585,"o":"m 233 -29 q 86 1 140 -29 q 9 81 32 32 q -14 189 -14 131 q 23 364 -14 278 q 119 525 60 450 q 246 658 178 600 q 377 748 314 715 q 485 781 440 781 q 528 767 511 781 q 546 722 546 754 q 531 683 546 700 q 485 663 517 665 q 383 624 435 657 q 282 542 331 592 q 195 432 233 492 q 134 313 157 372 q 111 204 111 254 q 143 115 111 150 q 249 81 175 81 q 351 110 301 81 q 431 181 400 139 q 463 263 463 224 q 418 331 463 306 q 263 357 374 357 l 261 357 q 249 371 249 357 q 261 385 249 385 q 278 385 269 385 q 293 386 286 386 q 445 350 400 386 q 490 265 490 314 q 456 169 490 218 q 366 86 421 119 q 247 53 311 53 q 121 97 158 53 q 83 204 83 140 q 92 274 83 238 q 117 347 101 311 q 183 465 142 406 q 274 573 224 524 q 378 653 324 622 q 482 690 432 685 q 510 702 501 693 q 519 722 519 711 q 511 744 519 735 q 490 754 503 754 q 388 723 449 754 q 263 636 328 692 q 142 509 199 581 q 49 356 85 438 q 14 189 14 274 q 33 95 14 139 q 101 25 53 51 q 233 -1 149 -1 q 406 41 333 -1 q 519 147 479 83 q 558 272 558 210 q 533 361 558 321 q 453 425 507 401 q 313 446 399 449 q 299 460 299 446 q 313 474 299 474 q 468 449 408 476 q 556 374 528 421 q 585 272 585 328 q 560 167 585 219 q 490 69 536 114 q 380 -2 444 25 q 233 -29 315 -29 z "},"7":{"ha":621,"x_min":69,"x_max":683,"o":"m 135 528 q 85 573 101 546 q 69 629 69 600 q 99 706 69 669 q 182 751 129 742 q 240 756 203 756 q 305 754 269 756 q 378 750 340 753 q 505 742 440 746 q 618 738 569 739 q 668 721 653 738 q 683 685 683 704 q 666 642 683 663 q 617 621 649 622 q 522 625 583 621 q 393 635 460 629 q 316 639 354 638 q 246 640 278 640 q 174 636 201 640 l 171 636 q 157 650 157 636 q 168 664 157 663 q 242 668 197 668 q 316 666 276 668 q 396 661 356 664 q 522 652 461 657 q 615 649 582 647 q 644 660 633 649 q 656 683 656 671 q 647 702 656 694 q 617 710 638 710 q 503 715 568 711 q 376 722 439 719 q 302 726 338 725 q 239 728 267 728 q 209 728 222 728 q 188 725 196 728 q 121 690 144 717 q 97 631 97 663 q 110 588 97 608 q 147 553 122 567 q 156 540 156 549 q 149 528 156 533 q 135 528 143 524 m 188 -32 q 146 -16 165 -32 q 126 29 126 0 q 133 63 126 42 q 219 258 172 169 q 326 428 267 347 q 461 592 386 510 q 471 596 465 596 q 484 588 479 596 q 482 572 489 581 q 349 413 408 492 q 243 247 290 333 q 158 54 196 160 q 154 31 154 42 q 165 3 154 13 q 188 -6 176 -6 q 213 11 208 -6 q 301 215 250 124 q 405 380 351 307 q 506 506 458 453 q 588 592 554 558 q 597 596 592 596 q 609 588 604 596 q 607 572 614 581 q 527 487 575 539 q 426 364 479 435 q 324 203 374 293 q 238 3 275 113 q 217 -24 232 -15 q 188 -32 203 -32 z "},"8":{"ha":689,"x_min":0,"x_max":640,"o":"m 540 443 q 526 458 526 443 q 533 469 526 467 q 591 528 569 490 q 613 604 613 565 q 567 697 613 656 q 415 738 522 738 q 265 710 321 738 q 185 641 208 682 q 161 560 161 600 q 168 518 161 538 q 185 485 175 499 q 188 476 188 482 q 172 463 188 463 q 163 468 167 463 q 133 558 133 506 q 161 653 133 606 q 251 733 189 701 q 415 765 314 765 q 548 743 499 765 q 619 685 597 721 q 640 610 640 650 q 614 515 640 561 q 547 444 588 469 q 540 443 544 443 m 250 -29 q 106 1 161 -29 q 25 81 50 32 q 0 185 0 129 q 30 310 0 249 q 112 413 60 372 q 231 453 164 453 q 244 439 244 453 q 231 425 244 425 q 127 389 174 425 q 54 298 81 353 q 28 185 28 243 q 50 94 28 136 q 121 25 72 51 q 250 -1 169 -1 q 431 40 356 -1 q 546 142 506 81 q 586 264 586 204 q 543 371 586 325 q 407 422 500 417 q 279 473 324 429 q 235 565 235 517 q 272 645 235 610 q 389 686 310 681 q 497 660 463 692 q 532 588 532 628 q 508 519 532 553 q 436 469 483 485 q 434 469 435 469 q 432 468 433 468 q 422 473 426 468 q 418 483 418 478 q 428 497 418 493 q 486 533 467 510 q 506 583 506 557 q 477 639 506 615 q 392 658 449 663 q 294 625 325 653 q 263 564 263 597 q 301 490 263 525 q 410 450 340 456 q 564 389 515 443 q 613 264 613 335 q 588 162 613 214 q 517 67 564 110 q 403 -3 471 24 q 250 -29 336 -29 m 264 56 q 151 101 189 56 q 114 204 114 147 q 146 305 114 257 q 244 371 178 353 q 247 372 246 371 q 249 372 247 372 q 259 367 256 372 q 263 357 263 363 q 253 343 263 347 q 167 290 194 328 q 140 211 140 251 q 174 123 140 163 q 264 83 208 83 q 365 110 319 83 q 438 178 410 138 q 465 256 465 218 q 435 319 465 292 q 336 351 406 347 q 324 365 324 351 q 328 376 324 371 q 339 379 332 381 q 457 340 421 375 q 493 258 493 304 q 463 166 493 213 q 381 88 433 119 q 264 56 329 56 z "},"9":{"ha":669,"x_min":35,"x_max":663,"o":"m 149 -42 q 74 24 82 -42 q 92 78 71 56 q 149 104 113 101 q 247 140 196 108 q 345 219 299 171 q 429 326 392 268 q 489 440 467 383 q 511 544 511 497 q 482 626 511 594 q 385 658 453 658 q 290 633 336 658 q 214 569 243 607 q 185 494 185 531 q 226 430 185 456 q 369 410 268 404 q 388 397 388 410 q 372 382 388 382 q 354 381 363 382 q 339 381 346 381 q 197 411 239 381 q 156 485 156 442 q 176 553 156 518 q 229 619 196 589 q 303 667 263 649 q 386 686 344 686 q 503 649 468 686 q 539 554 539 611 q 515 433 539 497 q 452 309 492 369 q 363 198 413 249 q 258 115 313 147 q 151 76 203 83 q 101 26 97 69 q 116 -5 104 4 q 150 -14 128 -14 q 258 17 196 -14 q 387 104 321 49 q 509 233 453 160 q 600 391 565 307 q 635 564 635 475 q 575 716 635 664 q 400 768 515 768 q 260 742 322 768 q 153 674 197 717 q 87 582 110 632 q 64 482 64 532 q 91 386 64 431 q 175 316 118 342 q 322 293 232 290 q 340 281 340 293 q 322 265 340 265 q 158 292 222 263 q 65 371 94 321 q 35 479 35 421 q 60 590 35 535 q 133 692 85 646 q 248 767 181 739 q 400 796 315 796 q 594 735 526 796 q 663 564 663 675 q 628 394 663 481 q 538 231 594 308 q 414 91 482 153 q 276 -6 346 29 q 149 -42 207 -42 z "},"\r":{"ha":0,"x_min":0,"x_max":0,"o":""}," ":{"ha":329,"x_min":0,"x_max":0,"o":""}," ":{"ha":329,"x_min":0,"x_max":0,"o":""},"A":{"ha":1619,"x_min":-74,"x_max":1676,"o":"m 553 714 q 524 733 531 714 q 521 769 518 753 q 587 874 533 831 q 722 946 640 918 q 900 988 803 974 q 1099 1001 997 1001 q 1160 1001 1113 1001 q 1273 996 1207 1000 q 1408 983 1339 992 q 1539 957 1478 974 q 1638 915 1600 940 q 1676 851 1676 889 q 1671 824 1676 836 q 1658 815 1667 815 q 1648 821 1653 815 q 1646 835 1643 826 q 1649 843 1649 839 q 1649 851 1649 847 q 1613 901 1649 881 q 1518 934 1576 921 q 1393 956 1460 947 q 1264 967 1326 964 q 1156 972 1201 971 q 1099 974 1111 974 q 900 960 994 974 q 731 919 806 946 q 608 854 656 893 q 549 764 560 815 q 548 760 549 763 q 547 754 547 757 q 553 742 547 742 q 574 753 563 742 q 592 771 586 764 q 739 872 660 840 q 901 911 818 903 q 1064 919 985 919 q 1253 912 1179 919 q 1371 894 1326 904 q 1443 875 1415 883 q 1453 863 1453 871 q 1447 851 1453 856 q 1435 847 1442 846 q 1365 866 1408 856 q 1250 884 1322 876 q 1064 892 1178 892 q 895 882 975 892 q 742 840 815 872 q 601 740 669 808 q 580 722 592 731 q 553 714 568 714 m 258 -47 q 149 -35 207 -47 q 41 2 92 -24 q -42 70 -10 28 q -74 175 -74 113 q -38 311 -74 249 q 58 424 -3 374 q 194 509 118 474 q 355 563 271 544 q 519 582 439 582 q 590 578 546 582 q 684 563 635 574 q 778 533 733 551 q 850 485 822 514 q 878 415 878 456 q 877 405 878 410 q 875 393 876 400 q 864 368 874 383 q 833 353 854 353 q 801 372 819 353 q 772 400 782 390 q 660 469 721 447 q 528 490 600 490 q 331 463 419 490 q 179 390 243 435 q 81 293 115 344 q 47 193 47 242 q 103 95 47 136 q 279 54 158 54 q 453 88 361 54 q 637 177 544 122 q 813 296 729 232 q 964 418 897 360 q 1027 470 985 436 q 1124 548 1069 504 q 1238 638 1179 592 q 1352 726 1297 683 q 1450 803 1407 769 q 1514 853 1493 836 q 1522 856 1517 856 q 1536 840 1536 856 q 1531 831 1536 835 q 1467 781 1510 814 q 1370 705 1425 747 q 1256 616 1315 663 q 1142 526 1197 569 q 1045 449 1088 483 q 982 397 1003 415 q 831 274 915 339 q 651 153 746 210 q 462 62 557 97 q 279 26 367 26 q 161 41 221 26 q 62 93 101 56 q 22 197 22 131 q 24 220 22 208 q 28 244 25 232 q 95 363 42 311 q 224 449 149 414 q 379 501 299 483 q 528 518 460 518 q 687 488 621 518 q 814 397 753 458 q 824 389 818 394 q 835 381 829 383 q 847 400 843 381 q 849 408 849 404 q 849 417 849 413 q 822 474 849 450 q 753 513 794 497 q 665 537 711 528 q 580 550 619 546 q 519 554 540 554 q 323 527 422 554 q 140 449 224 500 q 6 329 57 399 q -44 176 -44 260 q -17 88 -44 125 q 54 26 10 50 q 152 -8 99 3 q 258 -19 206 -19 q 437 8 347 -19 q 613 79 526 35 q 774 176 699 124 q 908 279 849 228 q 912 281 908 279 q 917 282 915 282 l 1161 282 q 1175 268 1175 282 q 1161 254 1175 254 l 922 254 q 786 150 863 203 q 622 53 710 97 q 442 -19 535 8 q 258 -47 350 -47 m 1339 97 q 1276 119 1294 97 q 1258 172 1258 140 q 1274 253 1258 210 q 1310 333 1290 296 q 1340 389 1329 371 q 1411 500 1368 436 q 1503 631 1454 564 q 1596 753 1553 697 q 1607 758 1600 758 q 1619 751 1614 758 q 1618 736 1625 743 q 1584 693 1611 728 q 1519 608 1557 658 q 1442 497 1482 557 q 1366 376 1401 436 q 1308 263 1331 315 q 1286 176 1286 211 q 1339 125 1286 125 q 1427 144 1378 125 q 1525 197 1476 163 q 1608 276 1574 232 q 1619 282 1613 282 q 1631 274 1626 282 q 1629 258 1636 265 q 1543 176 1594 213 q 1438 118 1492 139 q 1339 97 1385 97 m 1078 322 q 1038 323 1058 322 q 996 324 1018 324 q 982 338 982 324 q 996 351 982 351 q 1033 351 1014 351 q 1072 350 1053 350 q 1115 351 1093 350 q 1157 358 1136 353 q 1207 381 1185 365 q 1253 429 1229 396 q 1347 554 1300 493 q 1434 663 1394 615 q 1497 732 1474 710 q 1507 736 1501 736 q 1519 728 1514 736 q 1515 713 1524 719 q 1454 644 1493 690 q 1369 537 1415 597 q 1275 413 1322 476 q 1183 338 1232 353 q 1078 322 1135 322 m 1063 385 q 1049 399 1049 385 q 1054 410 1049 406 q 1139 480 1086 436 q 1249 573 1192 524 q 1354 663 1307 622 q 1363 665 1357 665 q 1378 650 1378 665 q 1372 640 1378 646 q 1267 551 1325 600 q 1157 459 1210 503 q 1071 388 1104 415 q 1063 385 1068 385 m 1281 -7 q 1215 6 1251 -7 q 1151 47 1178 18 q 1124 126 1124 76 q 1126 157 1124 142 q 1135 190 1129 172 q 1147 200 1139 200 q 1159 195 1154 200 q 1161 182 1164 190 q 1151 128 1151 153 q 1172 64 1151 88 q 1224 31 1193 40 q 1281 21 1254 21 q 1385 44 1332 21 q 1486 100 1438 68 q 1493 103 1492 103 q 1503 98 1500 103 q 1507 88 1507 93 q 1501 76 1507 81 q 1394 19 1451 44 q 1281 -7 1338 -7 z "},"Æ":{"ha":1881,"x_min":-74,"x_max":2094,"o":"m 813 765 q 788 778 799 765 q 779 806 779 790 q 780 815 779 810 q 782 825 781 819 q 854 960 800 911 q 986 1028 908 1008 q 1154 1049 1064 1049 q 1317 1038 1233 1049 q 1480 1010 1400 1026 q 1628 977 1560 993 q 1749 950 1697 961 q 1811 940 1778 944 q 1878 935 1844 935 q 1944 941 1913 935 q 2003 964 1976 947 q 2027 976 2015 972 q 2049 979 2039 979 q 2082 967 2069 979 q 2094 936 2094 954 q 2085 906 2094 922 q 2053 876 2075 889 q 1958 839 2007 850 q 1857 828 1908 828 q 1726 843 1794 828 q 1616 869 1682 853 q 1471 902 1550 885 q 1310 931 1392 919 q 1153 943 1228 943 q 978 914 1054 943 q 876 811 903 885 q 851 781 871 796 q 813 765 832 765 m 810 796 q 832 801 815 789 q 850 819 849 814 q 963 938 879 906 q 1153 971 1046 971 q 1311 959 1229 971 q 1472 930 1393 947 q 1617 896 1550 913 q 1732 869 1685 879 q 1795 860 1764 864 q 1857 856 1826 856 q 1951 866 1906 856 q 2039 900 1997 876 q 2067 936 2067 915 q 2049 951 2067 951 q 2017 940 2033 951 q 1952 914 1988 922 q 1879 906 1917 906 q 1738 923 1810 906 q 1608 953 1665 940 q 1481 981 1556 965 q 1323 1010 1407 997 q 1157 1022 1239 1022 q 1001 1004 1075 1022 q 877 942 928 986 q 810 819 826 899 q 808 802 807 807 q 810 796 808 797 m 258 -47 q 149 -35 207 -47 q 41 2 92 -24 q -42 70 -10 28 q -74 175 -74 113 q -72 199 -74 186 q -68 225 -71 211 q 8 374 -50 308 q 149 487 65 440 q 328 558 232 533 q 519 582 424 582 q 590 578 546 582 q 684 563 635 574 q 778 533 733 551 q 850 485 822 514 q 878 415 878 456 q 877 405 878 410 q 875 393 876 400 q 864 368 874 383 q 833 353 854 353 q 801 372 819 353 q 772 400 782 390 q 660 469 721 447 q 528 490 600 490 q 331 463 419 490 q 179 390 243 435 q 81 293 115 344 q 47 193 47 242 q 103 95 47 136 q 279 54 158 54 q 453 88 361 54 q 637 177 544 122 q 813 296 729 232 q 964 418 897 360 q 1027 470 985 436 q 1124 548 1069 504 q 1238 638 1179 592 q 1352 726 1297 683 q 1450 803 1407 769 q 1514 853 1493 836 q 1522 856 1517 856 q 1536 840 1536 856 q 1531 831 1536 835 q 1467 781 1510 814 q 1370 705 1425 747 q 1256 616 1315 663 q 1142 526 1197 569 q 1045 449 1088 483 q 982 397 1003 415 q 831 274 915 339 q 651 153 746 210 q 462 62 557 97 q 279 26 367 26 q 82 75 144 26 q 19 192 19 124 q 55 303 19 246 q 157 408 90 360 q 317 488 224 457 q 528 518 411 518 q 687 488 621 518 q 814 397 753 458 q 824 389 818 394 q 835 381 829 383 q 847 400 843 381 q 849 408 849 404 q 849 417 849 413 q 822 474 849 450 q 753 513 794 497 q 665 537 711 528 q 580 550 619 546 q 519 554 540 554 q 334 531 426 554 q 163 463 242 507 q 30 358 83 419 q -40 219 -24 296 q -44 176 -44 197 q -17 88 -44 125 q 54 26 10 50 q 152 -8 99 3 q 258 -19 206 -19 q 437 8 347 -19 q 613 79 526 35 q 774 176 699 124 q 908 279 849 228 q 912 281 908 279 q 917 282 915 282 l 1161 282 q 1175 268 1175 282 q 1161 254 1175 254 l 922 254 q 786 150 863 203 q 622 53 710 97 q 442 -19 535 8 q 258 -47 350 -47 m 996 324 q 982 338 982 324 q 996 351 982 351 q 1092 353 1053 351 q 1165 367 1132 356 q 1228 405 1197 378 q 1299 482 1260 432 q 1351 542 1315 503 q 1430 626 1386 581 q 1517 715 1474 671 q 1596 790 1561 758 q 1647 831 1631 821 q 1678 839 1663 839 q 1722 822 1701 839 q 1743 785 1743 806 q 1724 750 1743 765 q 1683 713 1701 733 q 1642 669 1664 693 q 1592 617 1619 646 q 1529 554 1565 589 q 1519 550 1525 550 q 1506 558 1511 550 q 1510 574 1501 567 q 1608 676 1558 619 q 1707 772 1658 733 q 1715 786 1715 779 q 1703 804 1715 797 q 1678 811 1692 811 q 1663 807 1669 811 q 1613 768 1647 799 q 1537 695 1579 738 q 1451 608 1494 653 q 1372 524 1407 563 q 1321 465 1338 486 q 1245 382 1279 411 q 1176 340 1211 353 q 1099 326 1142 328 q 996 324 1056 324 m 1063 385 q 1049 399 1049 385 q 1054 410 1049 406 q 1139 480 1086 436 q 1249 573 1192 524 q 1354 663 1307 622 q 1363 665 1357 665 q 1378 650 1378 665 q 1372 640 1378 646 q 1267 551 1325 600 q 1157 459 1210 503 q 1071 388 1104 415 q 1063 385 1068 385 m 1257 -12 q 1181 -5 1222 -12 q 1112 26 1140 3 q 1083 94 1083 50 q 1085 113 1083 103 q 1089 133 1086 124 q 1104 175 1094 153 q 1126 221 1114 197 q 1139 229 1131 229 q 1151 223 1146 229 q 1151 208 1156 217 q 1124 147 1135 176 q 1114 94 1114 118 q 1146 37 1114 58 q 1257 15 1178 15 q 1375 19 1308 15 q 1514 33 1442 24 q 1656 58 1586 43 q 1783 93 1726 72 q 1811 115 1796 97 q 1821 146 1826 132 q 1818 147 1819 146 q 1814 147 1817 147 q 1792 142 1807 147 q 1712 119 1768 132 q 1586 95 1656 107 q 1451 76 1517 83 q 1339 68 1385 68 q 1255 89 1279 68 q 1231 143 1231 110 q 1251 221 1231 178 q 1300 306 1271 264 q 1356 381 1329 349 q 1394 428 1382 414 q 1406 432 1399 432 l 1457 432 q 1567 433 1503 432 q 1702 439 1632 435 q 1835 451 1772 443 q 1940 472 1899 460 q 1966 485 1950 475 q 1995 508 1982 494 q 2006 536 2008 522 l 2001 536 q 1993 535 1999 536 q 1979 532 1988 535 q 1870 510 1936 517 q 1730 501 1804 503 q 1589 499 1656 499 l 1467 499 q 1453 513 1453 499 q 1467 526 1453 526 l 1589 526 q 1728 528 1656 526 q 1865 538 1800 531 q 1971 558 1929 544 q 2001 564 1986 564 q 2033 533 2033 564 q 2012 486 2033 513 q 1949 446 1990 460 q 1841 424 1906 432 q 1704 411 1776 415 q 1567 406 1632 407 q 1456 404 1501 404 l 1411 404 q 1321 288 1363 347 q 1261 164 1279 228 q 1259 152 1260 158 q 1258 140 1258 146 q 1270 111 1258 121 q 1304 97 1282 101 q 1319 95 1311 96 q 1338 94 1328 94 q 1446 102 1381 94 q 1580 122 1511 110 q 1703 146 1649 133 q 1781 167 1758 158 q 1815 175 1801 175 q 1841 165 1833 175 q 1849 142 1849 156 q 1834 100 1849 122 q 1793 68 1819 78 q 1662 32 1733 47 q 1517 7 1590 17 q 1376 -8 1443 -3 q 1257 -12 1308 -12 z "},"Ǽ":{"ha":1881,"x_min":-74,"x_max":2094,"o":"m 813 765 q 788 778 799 765 q 779 806 779 790 q 780 815 779 810 q 782 825 781 819 q 854 960 800 911 q 986 1028 908 1008 q 1154 1049 1064 1049 q 1317 1038 1233 1049 q 1480 1010 1400 1026 q 1628 977 1560 993 q 1749 950 1697 961 q 1811 940 1778 944 q 1878 935 1844 935 q 1944 941 1913 935 q 2003 964 1976 947 q 2027 976 2015 972 q 2049 979 2039 979 q 2082 967 2069 979 q 2094 936 2094 954 q 2085 906 2094 922 q 2053 876 2075 889 q 1958 839 2007 850 q 1857 828 1908 828 q 1726 843 1794 828 q 1616 869 1682 853 q 1471 902 1550 885 q 1310 931 1392 919 q 1153 943 1228 943 q 978 914 1054 943 q 876 811 903 885 q 851 781 871 796 q 813 765 832 765 m 810 796 q 832 801 815 789 q 850 819 849 814 q 963 938 879 906 q 1153 971 1046 971 q 1311 959 1229 971 q 1472 930 1393 947 q 1617 896 1550 913 q 1732 869 1685 879 q 1795 860 1764 864 q 1857 856 1826 856 q 1951 866 1906 856 q 2039 900 1997 876 q 2067 936 2067 915 q 2049 951 2067 951 q 2017 940 2033 951 q 1952 914 1988 922 q 1879 906 1917 906 q 1738 923 1810 906 q 1608 953 1665 940 q 1481 981 1556 965 q 1323 1010 1407 997 q 1157 1022 1239 1022 q 1001 1004 1075 1022 q 877 942 928 986 q 810 819 826 899 q 808 802 807 807 q 810 796 808 797 m 258 -47 q 149 -35 207 -47 q 41 2 92 -24 q -42 70 -10 28 q -74 175 -74 113 q -72 199 -74 186 q -68 225 -71 211 q 8 374 -50 308 q 149 487 65 440 q 328 558 232 533 q 519 582 424 582 q 590 578 546 582 q 684 563 635 574 q 778 533 733 551 q 850 485 822 514 q 878 415 878 456 q 877 405 878 410 q 875 393 876 400 q 864 368 874 383 q 833 353 854 353 q 801 372 819 353 q 772 400 782 390 q 660 469 721 447 q 528 490 600 490 q 331 463 419 490 q 179 390 243 435 q 81 293 115 344 q 47 193 47 242 q 103 95 47 136 q 279 54 158 54 q 453 88 361 54 q 637 177 544 122 q 813 296 729 232 q 964 418 897 360 q 1027 470 985 436 q 1124 548 1069 504 q 1238 638 1179 592 q 1352 726 1297 683 q 1450 803 1407 769 q 1514 853 1493 836 q 1522 856 1517 856 q 1536 840 1536 856 q 1531 831 1536 835 q 1467 781 1510 814 q 1370 705 1425 747 q 1256 616 1315 663 q 1142 526 1197 569 q 1045 449 1088 483 q 982 397 1003 415 q 831 274 915 339 q 651 153 746 210 q 462 62 557 97 q 279 26 367 26 q 82 75 144 26 q 19 192 19 124 q 55 303 19 246 q 157 408 90 360 q 317 488 224 457 q 528 518 411 518 q 687 488 621 518 q 814 397 753 458 q 824 389 818 394 q 835 381 829 383 q 847 400 843 381 q 849 408 849 404 q 849 417 849 413 q 822 474 849 450 q 753 513 794 497 q 665 537 711 528 q 580 550 619 546 q 519 554 540 554 q 334 531 426 554 q 163 463 242 507 q 30 358 83 419 q -40 219 -24 296 q -44 176 -44 197 q -17 88 -44 125 q 54 26 10 50 q 152 -8 99 3 q 258 -19 206 -19 q 437 8 347 -19 q 613 79 526 35 q 774 176 699 124 q 908 279 849 228 q 912 281 908 279 q 917 282 915 282 l 1161 282 q 1175 268 1175 282 q 1161 254 1175 254 l 922 254 q 786 150 863 203 q 622 53 710 97 q 442 -19 535 8 q 258 -47 350 -47 m 996 324 q 982 338 982 324 q 996 351 982 351 q 1092 353 1053 351 q 1165 367 1132 356 q 1228 405 1197 378 q 1299 482 1260 432 q 1351 542 1315 503 q 1430 626 1386 581 q 1517 715 1474 671 q 1596 790 1561 758 q 1647 831 1631 821 q 1678 839 1663 839 q 1722 822 1701 839 q 1743 785 1743 806 q 1724 750 1743 765 q 1683 713 1701 733 q 1642 669 1664 693 q 1592 617 1619 646 q 1529 554 1565 589 q 1519 550 1525 550 q 1506 558 1511 550 q 1510 574 1501 567 q 1608 676 1558 619 q 1707 772 1658 733 q 1715 786 1715 779 q 1703 804 1715 797 q 1678 811 1692 811 q 1663 807 1669 811 q 1613 768 1647 799 q 1537 695 1579 738 q 1451 608 1494 653 q 1372 524 1407 563 q 1321 465 1338 486 q 1245 382 1279 411 q 1176 340 1211 353 q 1099 326 1142 328 q 996 324 1056 324 m 1063 385 q 1049 399 1049 385 q 1054 410 1049 406 q 1139 480 1086 436 q 1249 573 1192 524 q 1354 663 1307 622 q 1363 665 1357 665 q 1378 650 1378 665 q 1372 640 1378 646 q 1267 551 1325 600 q 1157 459 1210 503 q 1071 388 1104 415 q 1063 385 1068 385 m 1257 -12 q 1181 -5 1222 -12 q 1112 26 1140 3 q 1083 94 1083 50 q 1085 113 1083 103 q 1089 133 1086 124 q 1104 175 1094 153 q 1126 221 1114 197 q 1139 229 1131 229 q 1151 223 1146 229 q 1151 208 1156 217 q 1124 147 1135 176 q 1114 94 1114 118 q 1146 37 1114 58 q 1257 15 1178 15 q 1375 19 1308 15 q 1514 33 1442 24 q 1656 58 1586 43 q 1783 93 1726 72 q 1811 115 1796 97 q 1821 146 1826 132 q 1818 147 1819 146 q 1814 147 1817 147 q 1792 142 1807 147 q 1712 119 1768 132 q 1586 95 1656 107 q 1451 76 1517 83 q 1339 68 1385 68 q 1255 89 1279 68 q 1231 143 1231 110 q 1251 221 1231 178 q 1300 306 1271 264 q 1356 381 1329 349 q 1394 428 1382 414 q 1406 432 1399 432 l 1457 432 q 1567 433 1503 432 q 1702 439 1632 435 q 1835 451 1772 443 q 1940 472 1899 460 q 1966 485 1950 475 q 1995 508 1982 494 q 2006 536 2008 522 l 2001 536 q 1993 535 1999 536 q 1979 532 1988 535 q 1870 510 1936 517 q 1730 501 1804 503 q 1589 499 1656 499 l 1467 499 q 1453 513 1453 499 q 1467 526 1453 526 l 1589 526 q 1728 528 1656 526 q 1865 538 1800 531 q 1971 558 1929 544 q 2001 564 1986 564 q 2033 533 2033 564 q 2012 486 2033 513 q 1949 446 1990 460 q 1841 424 1906 432 q 1704 411 1776 415 q 1567 406 1632 407 q 1456 404 1501 404 l 1411 404 q 1321 288 1363 347 q 1261 164 1279 228 q 1259 152 1260 158 q 1258 140 1258 146 q 1270 111 1258 121 q 1304 97 1282 101 q 1319 95 1311 96 q 1338 94 1328 94 q 1446 102 1381 94 q 1580 122 1511 110 q 1703 146 1649 133 q 1781 167 1758 158 q 1815 175 1801 175 q 1841 165 1833 175 q 1849 142 1849 156 q 1834 100 1849 122 q 1793 68 1819 78 q 1662 32 1733 47 q 1517 7 1590 17 q 1376 -8 1443 -3 q 1257 -12 1308 -12 m 1800 1057 q 1772 1093 1772 1057 q 1774 1121 1772 1110 q 1788 1143 1776 1132 l 1825 1181 q 1832 1183 1826 1183 q 1846 1176 1839 1183 q 1844 1161 1853 1169 l 1810 1126 q 1799 1110 1800 1117 q 1797 1093 1797 1104 q 1799 1085 1797 1085 q 1807 1089 1801 1085 q 1833 1110 1813 1093 q 1880 1149 1854 1128 q 1928 1188 1906 1169 q 1958 1214 1950 1207 q 1959 1215 1958 1214 q 1960 1217 1960 1215 q 1955 1224 1960 1219 q 1935 1240 1950 1229 q 1914 1243 1922 1251 q 1878 1203 1888 1213 q 1871 1200 1875 1200 q 1858 1209 1863 1200 q 1858 1224 1853 1218 q 1878 1244 1869 1235 q 1892 1260 1888 1254 q 1921 1275 1904 1275 q 1951 1263 1938 1275 q 1989 1215 1989 1233 q 1978 1194 1989 1206 q 1946 1167 1968 1186 q 1897 1127 1924 1149 q 1850 1088 1871 1106 q 1824 1067 1829 1071 q 1800 1057 1813 1057 z "},"Á":{"ha":1619,"x_min":-74,"x_max":1844,"o":"m 553 714 q 524 733 531 714 q 521 769 518 753 q 587 874 533 831 q 722 946 640 918 q 900 988 803 974 q 1099 1001 997 1001 q 1160 1001 1113 1001 q 1273 996 1207 1000 q 1408 983 1339 992 q 1539 957 1478 974 q 1638 915 1600 940 q 1676 851 1676 889 q 1671 824 1676 836 q 1658 815 1667 815 q 1648 821 1653 815 q 1646 835 1643 826 q 1649 843 1649 839 q 1649 851 1649 847 q 1613 901 1649 881 q 1518 934 1576 921 q 1393 956 1460 947 q 1264 967 1326 964 q 1156 972 1201 971 q 1099 974 1111 974 q 900 960 994 974 q 731 919 806 946 q 608 854 656 893 q 549 764 560 815 q 548 760 549 763 q 547 754 547 757 q 553 742 547 742 q 574 753 563 742 q 592 771 586 764 q 739 872 660 840 q 901 911 818 903 q 1064 919 985 919 q 1253 912 1179 919 q 1371 894 1326 904 q 1443 875 1415 883 q 1453 863 1453 871 q 1447 851 1453 856 q 1435 847 1442 846 q 1365 866 1408 856 q 1250 884 1322 876 q 1064 892 1178 892 q 895 882 975 892 q 742 840 815 872 q 601 740 669 808 q 580 722 592 731 q 553 714 568 714 m 258 -47 q 149 -35 207 -47 q 41 2 92 -24 q -42 70 -10 28 q -74 175 -74 113 q -38 311 -74 249 q 58 424 -3 374 q 194 509 118 474 q 355 563 271 544 q 519 582 439 582 q 590 578 546 582 q 684 563 635 574 q 778 533 733 551 q 850 485 822 514 q 878 415 878 456 q 877 405 878 410 q 875 393 876 400 q 864 368 874 383 q 833 353 854 353 q 801 372 819 353 q 772 400 782 390 q 660 469 721 447 q 528 490 600 490 q 331 463 419 490 q 179 390 243 435 q 81 293 115 344 q 47 193 47 242 q 103 95 47 136 q 279 54 158 54 q 453 88 361 54 q 637 177 544 122 q 813 296 729 232 q 964 418 897 360 q 1027 470 985 436 q 1124 548 1069 504 q 1238 638 1179 592 q 1352 726 1297 683 q 1450 803 1407 769 q 1514 853 1493 836 q 1522 856 1517 856 q 1536 840 1536 856 q 1531 831 1536 835 q 1467 781 1510 814 q 1370 705 1425 747 q 1256 616 1315 663 q 1142 526 1197 569 q 1045 449 1088 483 q 982 397 1003 415 q 831 274 915 339 q 651 153 746 210 q 462 62 557 97 q 279 26 367 26 q 161 41 221 26 q 62 93 101 56 q 22 197 22 131 q 24 220 22 208 q 28 244 25 232 q 95 363 42 311 q 224 449 149 414 q 379 501 299 483 q 528 518 460 518 q 687 488 621 518 q 814 397 753 458 q 824 389 818 394 q 835 381 829 383 q 847 400 843 381 q 849 408 849 404 q 849 417 849 413 q 822 474 849 450 q 753 513 794 497 q 665 537 711 528 q 580 550 619 546 q 519 554 540 554 q 323 527 422 554 q 140 449 224 500 q 6 329 57 399 q -44 176 -44 260 q -17 88 -44 125 q 54 26 10 50 q 152 -8 99 3 q 258 -19 206 -19 q 437 8 347 -19 q 613 79 526 35 q 774 176 699 124 q 908 279 849 228 q 912 281 908 279 q 917 282 915 282 l 1161 282 q 1175 268 1175 282 q 1161 254 1175 254 l 922 254 q 786 150 863 203 q 622 53 710 97 q 442 -19 535 8 q 258 -47 350 -47 m 1339 97 q 1276 119 1294 97 q 1258 172 1258 140 q 1274 253 1258 210 q 1310 333 1290 296 q 1340 389 1329 371 q 1411 500 1368 436 q 1503 631 1454 564 q 1596 753 1553 697 q 1607 758 1600 758 q 1619 751 1614 758 q 1618 736 1625 743 q 1584 693 1611 728 q 1519 608 1557 658 q 1442 497 1482 557 q 1366 376 1401 436 q 1308 263 1331 315 q 1286 176 1286 211 q 1339 125 1286 125 q 1427 144 1378 125 q 1525 197 1476 163 q 1608 276 1574 232 q 1619 282 1613 282 q 1631 274 1626 282 q 1629 258 1636 265 q 1543 176 1594 213 q 1438 118 1492 139 q 1339 97 1385 97 m 1078 322 q 1038 323 1058 322 q 996 324 1018 324 q 982 338 982 324 q 996 351 982 351 q 1033 351 1014 351 q 1072 350 1053 350 q 1115 351 1093 350 q 1157 358 1136 353 q 1207 381 1185 365 q 1253 429 1229 396 q 1347 554 1300 493 q 1434 663 1394 615 q 1497 732 1474 710 q 1507 736 1501 736 q 1519 728 1514 736 q 1515 713 1524 719 q 1454 644 1493 690 q 1369 537 1415 597 q 1275 413 1322 476 q 1183 338 1232 353 q 1078 322 1135 322 m 1063 385 q 1049 399 1049 385 q 1054 410 1049 406 q 1139 480 1086 436 q 1249 573 1192 524 q 1354 663 1307 622 q 1363 665 1357 665 q 1378 650 1378 665 q 1372 640 1378 646 q 1267 551 1325 600 q 1157 459 1210 503 q 1071 388 1104 415 q 1063 385 1068 385 m 1281 -7 q 1215 6 1251 -7 q 1151 47 1178 18 q 1124 126 1124 76 q 1126 157 1124 142 q 1135 190 1129 172 q 1147 200 1139 200 q 1159 195 1154 200 q 1161 182 1164 190 q 1151 128 1151 153 q 1172 64 1151 88 q 1224 31 1193 40 q 1281 21 1254 21 q 1385 44 1332 21 q 1486 100 1438 68 q 1493 103 1492 103 q 1503 98 1500 103 q 1507 88 1507 93 q 1501 76 1507 81 q 1394 19 1451 44 q 1281 -7 1338 -7 m 1643 1042 q 1615 1078 1615 1042 q 1617 1106 1615 1094 q 1631 1128 1619 1117 l 1668 1165 q 1676 1168 1671 1168 q 1687 1165 1682 1168 q 1692 1154 1692 1161 q 1688 1146 1692 1150 l 1653 1111 q 1642 1095 1643 1101 q 1640 1078 1640 1089 q 1642 1069 1640 1069 q 1650 1074 1644 1069 q 1678 1097 1656 1078 q 1730 1140 1701 1117 q 1782 1184 1758 1164 q 1814 1211 1806 1204 q 1815 1212 1814 1211 q 1815 1214 1815 1213 q 1810 1222 1815 1217 q 1790 1238 1806 1226 q 1778 1244 1781 1244 q 1769 1240 1774 1244 q 1740 1208 1756 1225 q 1721 1188 1724 1190 q 1714 1185 1718 1185 q 1703 1190 1708 1185 q 1699 1200 1699 1194 q 1701 1208 1699 1206 q 1728 1235 1713 1219 q 1747 1257 1743 1251 q 1776 1272 1760 1272 q 1807 1260 1793 1272 q 1844 1213 1844 1231 q 1833 1192 1844 1203 q 1799 1163 1824 1183 q 1747 1118 1775 1142 q 1695 1075 1718 1094 q 1667 1051 1672 1056 q 1643 1042 1656 1042 z "},"Ă":{"ha":1619,"x_min":-74,"x_max":1888,"o":"m 553 714 q 524 733 531 714 q 521 769 518 753 q 587 874 533 831 q 722 946 640 918 q 900 988 803 974 q 1099 1001 997 1001 q 1160 1001 1113 1001 q 1273 996 1207 1000 q 1408 983 1339 992 q 1539 957 1478 974 q 1638 915 1600 940 q 1676 851 1676 889 q 1671 824 1676 836 q 1658 815 1667 815 q 1648 821 1653 815 q 1646 835 1643 826 q 1649 843 1649 839 q 1649 851 1649 847 q 1613 901 1649 881 q 1518 934 1576 921 q 1393 956 1460 947 q 1264 967 1326 964 q 1156 972 1201 971 q 1099 974 1111 974 q 900 960 994 974 q 731 919 806 946 q 608 854 656 893 q 549 764 560 815 q 548 760 549 763 q 547 754 547 757 q 553 742 547 742 q 574 753 563 742 q 592 771 586 764 q 739 872 660 840 q 901 911 818 903 q 1064 919 985 919 q 1253 912 1179 919 q 1371 894 1326 904 q 1443 875 1415 883 q 1453 863 1453 871 q 1447 851 1453 856 q 1435 847 1442 846 q 1365 866 1408 856 q 1250 884 1322 876 q 1064 892 1178 892 q 895 882 975 892 q 742 840 815 872 q 601 740 669 808 q 580 722 592 731 q 553 714 568 714 m 258 -47 q 149 -35 207 -47 q 41 2 92 -24 q -42 70 -10 28 q -74 175 -74 113 q -38 311 -74 249 q 58 424 -3 374 q 194 509 118 474 q 355 563 271 544 q 519 582 439 582 q 590 578 546 582 q 684 563 635 574 q 778 533 733 551 q 850 485 822 514 q 878 415 878 456 q 877 405 878 410 q 875 393 876 400 q 864 368 874 383 q 833 353 854 353 q 801 372 819 353 q 772 400 782 390 q 660 469 721 447 q 528 490 600 490 q 331 463 419 490 q 179 390 243 435 q 81 293 115 344 q 47 193 47 242 q 103 95 47 136 q 279 54 158 54 q 453 88 361 54 q 637 177 544 122 q 813 296 729 232 q 964 418 897 360 q 1027 470 985 436 q 1124 548 1069 504 q 1238 638 1179 592 q 1352 726 1297 683 q 1450 803 1407 769 q 1514 853 1493 836 q 1522 856 1517 856 q 1536 840 1536 856 q 1531 831 1536 835 q 1467 781 1510 814 q 1370 705 1425 747 q 1256 616 1315 663 q 1142 526 1197 569 q 1045 449 1088 483 q 982 397 1003 415 q 831 274 915 339 q 651 153 746 210 q 462 62 557 97 q 279 26 367 26 q 161 41 221 26 q 62 93 101 56 q 22 197 22 131 q 24 220 22 208 q 28 244 25 232 q 95 363 42 311 q 224 449 149 414 q 379 501 299 483 q 528 518 460 518 q 687 488 621 518 q 814 397 753 458 q 824 389 818 394 q 835 381 829 383 q 847 400 843 381 q 849 408 849 404 q 849 417 849 413 q 822 474 849 450 q 753 513 794 497 q 665 537 711 528 q 580 550 619 546 q 519 554 540 554 q 323 527 422 554 q 140 449 224 500 q 6 329 57 399 q -44 176 -44 260 q -17 88 -44 125 q 54 26 10 50 q 152 -8 99 3 q 258 -19 206 -19 q 437 8 347 -19 q 613 79 526 35 q 774 176 699 124 q 908 279 849 228 q 912 281 908 279 q 917 282 915 282 l 1161 282 q 1175 268 1175 282 q 1161 254 1175 254 l 922 254 q 786 150 863 203 q 622 53 710 97 q 442 -19 535 8 q 258 -47 350 -47 m 1339 97 q 1276 119 1294 97 q 1258 172 1258 140 q 1274 253 1258 210 q 1310 333 1290 296 q 1340 389 1329 371 q 1411 500 1368 436 q 1503 631 1454 564 q 1596 753 1553 697 q 1607 758 1600 758 q 1619 751 1614 758 q 1618 736 1625 743 q 1584 693 1611 728 q 1519 608 1557 658 q 1442 497 1482 557 q 1366 376 1401 436 q 1308 263 1331 315 q 1286 176 1286 211 q 1339 125 1286 125 q 1427 144 1378 125 q 1525 197 1476 163 q 1608 276 1574 232 q 1619 282 1613 282 q 1631 274 1626 282 q 1629 258 1636 265 q 1543 176 1594 213 q 1438 118 1492 139 q 1339 97 1385 97 m 1078 322 q 1038 323 1058 322 q 996 324 1018 324 q 982 338 982 324 q 996 351 982 351 q 1033 351 1014 351 q 1072 350 1053 350 q 1115 351 1093 350 q 1157 358 1136 353 q 1207 381 1185 365 q 1253 429 1229 396 q 1347 554 1300 493 q 1434 663 1394 615 q 1497 732 1474 710 q 1507 736 1501 736 q 1519 728 1514 736 q 1515 713 1524 719 q 1454 644 1493 690 q 1369 537 1415 597 q 1275 413 1322 476 q 1183 338 1232 353 q 1078 322 1135 322 m 1063 385 q 1049 399 1049 385 q 1054 410 1049 406 q 1139 480 1086 436 q 1249 573 1192 524 q 1354 663 1307 622 q 1363 665 1357 665 q 1378 650 1378 665 q 1372 640 1378 646 q 1267 551 1325 600 q 1157 459 1210 503 q 1071 388 1104 415 q 1063 385 1068 385 m 1281 -7 q 1215 6 1251 -7 q 1151 47 1178 18 q 1124 126 1124 76 q 1126 157 1124 142 q 1135 190 1129 172 q 1147 200 1139 200 q 1159 195 1154 200 q 1161 182 1164 190 q 1151 128 1151 153 q 1172 64 1151 88 q 1224 31 1193 40 q 1281 21 1254 21 q 1385 44 1332 21 q 1486 100 1438 68 q 1493 103 1492 103 q 1503 98 1500 103 q 1507 88 1507 93 q 1501 76 1507 81 q 1394 19 1451 44 q 1281 -7 1338 -7 m 1672 1038 q 1562 1072 1601 1038 q 1522 1154 1522 1106 q 1523 1167 1522 1161 q 1525 1179 1524 1174 q 1542 1213 1529 1200 q 1572 1226 1556 1226 q 1586 1224 1578 1226 q 1610 1202 1601 1219 q 1617 1165 1619 1185 q 1629 1140 1615 1150 q 1674 1129 1643 1129 q 1736 1140 1714 1129 q 1776 1175 1758 1150 q 1811 1213 1793 1199 q 1843 1226 1829 1226 q 1876 1215 1864 1226 q 1888 1188 1888 1204 q 1882 1163 1888 1174 q 1868 1156 1879 1156 q 1858 1160 1863 1156 q 1857 1174 1853 1165 q 1860 1181 1860 1178 q 1860 1186 1860 1185 q 1843 1199 1860 1199 q 1824 1188 1838 1199 q 1799 1158 1811 1176 q 1749 1115 1776 1128 q 1674 1101 1721 1101 q 1610 1120 1631 1101 q 1589 1168 1589 1139 l 1589 1172 q 1578 1199 1589 1193 l 1574 1199 q 1553 1174 1557 1199 q 1551 1164 1551 1168 q 1551 1154 1551 1160 q 1583 1091 1551 1117 q 1672 1065 1614 1065 q 1748 1076 1715 1065 q 1804 1107 1781 1088 q 1817 1111 1811 1111 q 1829 1100 1829 1111 q 1821 1085 1829 1093 q 1672 1038 1767 1038 z "},"Ắ":{"ha":1619,"x_min":-74,"x_max":1889,"o":"m 553 714 q 524 733 531 714 q 521 769 518 753 q 587 874 533 831 q 722 946 640 918 q 900 988 803 974 q 1099 1001 997 1001 q 1160 1001 1113 1001 q 1273 996 1207 1000 q 1408 983 1339 992 q 1539 957 1478 974 q 1638 915 1600 940 q 1676 851 1676 889 q 1671 824 1676 836 q 1658 815 1667 815 q 1648 821 1653 815 q 1646 835 1643 826 q 1649 843 1649 839 q 1649 851 1649 847 q 1613 901 1649 881 q 1518 934 1576 921 q 1393 956 1460 947 q 1264 967 1326 964 q 1156 972 1201 971 q 1099 974 1111 974 q 900 960 994 974 q 731 919 806 946 q 608 854 656 893 q 549 764 560 815 q 548 760 549 763 q 547 754 547 757 q 553 742 547 742 q 574 753 563 742 q 592 771 586 764 q 739 872 660 840 q 901 911 818 903 q 1064 919 985 919 q 1253 912 1179 919 q 1371 894 1326 904 q 1443 875 1415 883 q 1453 863 1453 871 q 1447 851 1453 856 q 1435 847 1442 846 q 1365 866 1408 856 q 1250 884 1322 876 q 1064 892 1178 892 q 895 882 975 892 q 742 840 815 872 q 601 740 669 808 q 580 722 592 731 q 553 714 568 714 m 258 -47 q 149 -35 207 -47 q 41 2 92 -24 q -42 70 -10 28 q -74 175 -74 113 q -38 311 -74 249 q 58 424 -3 374 q 194 509 118 474 q 355 563 271 544 q 519 582 439 582 q 590 578 546 582 q 684 563 635 574 q 778 533 733 551 q 850 485 822 514 q 878 415 878 456 q 877 405 878 410 q 875 393 876 400 q 864 368 874 383 q 833 353 854 353 q 801 372 819 353 q 772 400 782 390 q 660 469 721 447 q 528 490 600 490 q 331 463 419 490 q 179 390 243 435 q 81 293 115 344 q 47 193 47 242 q 103 95 47 136 q 279 54 158 54 q 453 88 361 54 q 637 177 544 122 q 813 296 729 232 q 964 418 897 360 q 1027 470 985 436 q 1124 548 1069 504 q 1238 638 1179 592 q 1352 726 1297 683 q 1450 803 1407 769 q 1514 853 1493 836 q 1522 856 1517 856 q 1536 840 1536 856 q 1531 831 1536 835 q 1467 781 1510 814 q 1370 705 1425 747 q 1256 616 1315 663 q 1142 526 1197 569 q 1045 449 1088 483 q 982 397 1003 415 q 831 274 915 339 q 651 153 746 210 q 462 62 557 97 q 279 26 367 26 q 161 41 221 26 q 62 93 101 56 q 22 197 22 131 q 24 220 22 208 q 28 244 25 232 q 95 363 42 311 q 224 449 149 414 q 379 501 299 483 q 528 518 460 518 q 687 488 621 518 q 814 397 753 458 q 824 389 818 394 q 835 381 829 383 q 847 400 843 381 q 849 408 849 404 q 849 417 849 413 q 822 474 849 450 q 753 513 794 497 q 665 537 711 528 q 580 550 619 546 q 519 554 540 554 q 323 527 422 554 q 140 449 224 500 q 6 329 57 399 q -44 176 -44 260 q -17 88 -44 125 q 54 26 10 50 q 152 -8 99 3 q 258 -19 206 -19 q 437 8 347 -19 q 613 79 526 35 q 774 176 699 124 q 908 279 849 228 q 912 281 908 279 q 917 282 915 282 l 1161 282 q 1175 268 1175 282 q 1161 254 1175 254 l 922 254 q 786 150 863 203 q 622 53 710 97 q 442 -19 535 8 q 258 -47 350 -47 m 1339 97 q 1276 119 1294 97 q 1258 172 1258 140 q 1274 253 1258 210 q 1310 333 1290 296 q 1340 389 1329 371 q 1411 500 1368 436 q 1503 631 1454 564 q 1596 753 1553 697 q 1607 758 1600 758 q 1619 751 1614 758 q 1618 736 1625 743 q 1584 693 1611 728 q 1519 608 1557 658 q 1442 497 1482 557 q 1366 376 1401 436 q 1308 263 1331 315 q 1286 176 1286 211 q 1339 125 1286 125 q 1427 144 1378 125 q 1525 197 1476 163 q 1608 276 1574 232 q 1619 282 1613 282 q 1631 274 1626 282 q 1629 258 1636 265 q 1543 176 1594 213 q 1438 118 1492 139 q 1339 97 1385 97 m 1078 322 q 1038 323 1058 322 q 996 324 1018 324 q 982 338 982 324 q 996 351 982 351 q 1033 351 1014 351 q 1072 350 1053 350 q 1115 351 1093 350 q 1157 358 1136 353 q 1207 381 1185 365 q 1253 429 1229 396 q 1347 554 1300 493 q 1434 663 1394 615 q 1497 732 1474 710 q 1507 736 1501 736 q 1519 728 1514 736 q 1515 713 1524 719 q 1454 644 1493 690 q 1369 537 1415 597 q 1275 413 1322 476 q 1183 338 1232 353 q 1078 322 1135 322 m 1063 385 q 1049 399 1049 385 q 1054 410 1049 406 q 1139 480 1086 436 q 1249 573 1192 524 q 1354 663 1307 622 q 1363 665 1357 665 q 1378 650 1378 665 q 1372 640 1378 646 q 1267 551 1325 600 q 1157 459 1210 503 q 1071 388 1104 415 q 1063 385 1068 385 m 1281 -7 q 1215 6 1251 -7 q 1151 47 1178 18 q 1124 126 1124 76 q 1126 157 1124 142 q 1135 190 1129 172 q 1147 200 1139 200 q 1159 195 1154 200 q 1161 182 1164 190 q 1151 128 1151 153 q 1172 64 1151 88 q 1224 31 1193 40 q 1281 21 1254 21 q 1385 44 1332 21 q 1486 100 1438 68 q 1493 103 1492 103 q 1503 98 1500 103 q 1507 88 1507 93 q 1501 76 1507 81 q 1394 19 1451 44 q 1281 -7 1338 -7 m 1672 1038 q 1562 1072 1601 1038 q 1522 1154 1522 1106 q 1523 1167 1522 1161 q 1525 1179 1524 1174 q 1542 1213 1529 1200 q 1572 1226 1556 1226 q 1586 1224 1578 1226 q 1610 1202 1601 1219 q 1617 1165 1619 1185 q 1629 1140 1615 1150 q 1674 1129 1643 1129 q 1736 1140 1714 1129 q 1776 1175 1758 1150 q 1811 1213 1793 1199 q 1843 1226 1829 1226 q 1876 1215 1864 1226 q 1888 1188 1888 1204 q 1882 1163 1888 1174 q 1868 1156 1879 1156 q 1858 1160 1863 1156 q 1857 1174 1853 1165 q 1860 1181 1860 1178 q 1860 1186 1860 1185 q 1843 1199 1860 1199 q 1824 1188 1838 1199 q 1799 1158 1811 1176 q 1749 1115 1776 1128 q 1674 1101 1721 1101 q 1610 1120 1631 1101 q 1589 1168 1589 1139 l 1589 1172 q 1578 1199 1589 1193 l 1574 1199 q 1553 1174 1557 1199 q 1551 1164 1551 1168 q 1551 1154 1551 1160 q 1583 1091 1551 1117 q 1672 1065 1614 1065 q 1748 1076 1715 1065 q 1804 1107 1781 1088 q 1817 1111 1811 1111 q 1829 1100 1829 1111 q 1821 1085 1829 1093 q 1672 1038 1767 1038 m 1688 1263 q 1660 1299 1660 1263 q 1662 1326 1660 1315 q 1675 1349 1664 1338 l 1713 1386 q 1721 1389 1715 1389 q 1731 1385 1726 1389 q 1736 1375 1736 1382 q 1732 1367 1736 1371 l 1697 1332 q 1686 1316 1688 1322 q 1685 1299 1685 1310 q 1687 1290 1685 1290 q 1694 1294 1689 1290 q 1723 1318 1700 1299 q 1774 1361 1746 1338 q 1826 1405 1803 1385 q 1858 1432 1850 1425 q 1859 1433 1858 1432 q 1860 1435 1860 1433 q 1855 1442 1860 1438 q 1835 1458 1850 1447 q 1822 1465 1825 1465 q 1814 1461 1818 1465 q 1784 1428 1800 1446 q 1765 1408 1768 1411 q 1758 1406 1763 1406 q 1748 1410 1753 1406 q 1743 1421 1743 1415 q 1746 1429 1743 1426 q 1772 1456 1757 1440 q 1792 1478 1788 1472 q 1821 1493 1804 1493 q 1851 1481 1838 1493 q 1889 1433 1889 1451 q 1878 1413 1889 1424 q 1844 1383 1868 1404 q 1791 1339 1819 1363 q 1740 1296 1763 1315 q 1711 1272 1717 1276 q 1688 1263 1700 1263 z "},"Ặ":{"ha":1619,"x_min":-74,"x_max":1888,"o":"m 553 714 q 524 733 531 714 q 521 769 518 753 q 587 874 533 831 q 722 946 640 918 q 900 988 803 974 q 1099 1001 997 1001 q 1160 1001 1113 1001 q 1273 996 1207 1000 q 1408 983 1339 992 q 1539 957 1478 974 q 1638 915 1600 940 q 1676 851 1676 889 q 1671 824 1676 836 q 1658 815 1667 815 q 1648 821 1653 815 q 1646 835 1643 826 q 1649 843 1649 839 q 1649 851 1649 847 q 1613 901 1649 881 q 1518 934 1576 921 q 1393 956 1460 947 q 1264 967 1326 964 q 1156 972 1201 971 q 1099 974 1111 974 q 900 960 994 974 q 731 919 806 946 q 608 854 656 893 q 549 764 560 815 q 548 760 549 763 q 547 754 547 757 q 553 742 547 742 q 574 753 563 742 q 592 771 586 764 q 739 872 660 840 q 901 911 818 903 q 1064 919 985 919 q 1253 912 1179 919 q 1371 894 1326 904 q 1443 875 1415 883 q 1453 863 1453 871 q 1447 851 1453 856 q 1435 847 1442 846 q 1365 866 1408 856 q 1250 884 1322 876 q 1064 892 1178 892 q 895 882 975 892 q 742 840 815 872 q 601 740 669 808 q 580 722 592 731 q 553 714 568 714 m 258 -47 q 149 -35 207 -47 q 41 2 92 -24 q -42 70 -10 28 q -74 175 -74 113 q -38 311 -74 249 q 58 424 -3 374 q 194 509 118 474 q 355 563 271 544 q 519 582 439 582 q 590 578 546 582 q 684 563 635 574 q 778 533 733 551 q 850 485 822 514 q 878 415 878 456 q 877 405 878 410 q 875 393 876 400 q 864 368 874 383 q 833 353 854 353 q 801 372 819 353 q 772 400 782 390 q 660 469 721 447 q 528 490 600 490 q 331 463 419 490 q 179 390 243 435 q 81 293 115 344 q 47 193 47 242 q 103 95 47 136 q 279 54 158 54 q 453 88 361 54 q 637 177 544 122 q 813 296 729 232 q 964 418 897 360 q 1027 470 985 436 q 1124 548 1069 504 q 1238 638 1179 592 q 1352 726 1297 683 q 1450 803 1407 769 q 1514 853 1493 836 q 1522 856 1517 856 q 1536 840 1536 856 q 1531 831 1536 835 q 1467 781 1510 814 q 1370 705 1425 747 q 1256 616 1315 663 q 1142 526 1197 569 q 1045 449 1088 483 q 982 397 1003 415 q 831 274 915 339 q 651 153 746 210 q 462 62 557 97 q 279 26 367 26 q 161 41 221 26 q 62 93 101 56 q 22 197 22 131 q 24 220 22 208 q 28 244 25 232 q 95 363 42 311 q 224 449 149 414 q 379 501 299 483 q 528 518 460 518 q 687 488 621 518 q 814 397 753 458 q 824 389 818 394 q 835 381 829 383 q 847 400 843 381 q 849 408 849 404 q 849 417 849 413 q 822 474 849 450 q 753 513 794 497 q 665 537 711 528 q 580 550 619 546 q 519 554 540 554 q 323 527 422 554 q 140 449 224 500 q 6 329 57 399 q -44 176 -44 260 q -17 88 -44 125 q 54 26 10 50 q 152 -8 99 3 q 258 -19 206 -19 q 437 8 347 -19 q 613 79 526 35 q 774 176 699 124 q 908 279 849 228 q 912 281 908 279 q 917 282 915 282 l 1161 282 q 1175 268 1175 282 q 1161 254 1175 254 l 922 254 q 786 150 863 203 q 622 53 710 97 q 442 -19 535 8 q 258 -47 350 -47 m 1339 97 q 1276 119 1294 97 q 1258 172 1258 140 q 1274 253 1258 210 q 1310 333 1290 296 q 1340 389 1329 371 q 1411 500 1368 436 q 1503 631 1454 564 q 1596 753 1553 697 q 1607 758 1600 758 q 1619 751 1614 758 q 1618 736 1625 743 q 1584 693 1611 728 q 1519 608 1557 658 q 1442 497 1482 557 q 1366 376 1401 436 q 1308 263 1331 315 q 1286 176 1286 211 q 1339 125 1286 125 q 1427 144 1378 125 q 1525 197 1476 163 q 1608 276 1574 232 q 1619 282 1613 282 q 1631 274 1626 282 q 1629 258 1636 265 q 1543 176 1594 213 q 1438 118 1492 139 q 1339 97 1385 97 m 1078 322 q 1038 323 1058 322 q 996 324 1018 324 q 982 338 982 324 q 996 351 982 351 q 1033 351 1014 351 q 1072 350 1053 350 q 1115 351 1093 350 q 1157 358 1136 353 q 1207 381 1185 365 q 1253 429 1229 396 q 1347 554 1300 493 q 1434 663 1394 615 q 1497 732 1474 710 q 1507 736 1501 736 q 1519 728 1514 736 q 1515 713 1524 719 q 1454 644 1493 690 q 1369 537 1415 597 q 1275 413 1322 476 q 1183 338 1232 353 q 1078 322 1135 322 m 1063 385 q 1049 399 1049 385 q 1054 410 1049 406 q 1139 480 1086 436 q 1249 573 1192 524 q 1354 663 1307 622 q 1363 665 1357 665 q 1378 650 1378 665 q 1372 640 1378 646 q 1267 551 1325 600 q 1157 459 1210 503 q 1071 388 1104 415 q 1063 385 1068 385 m 1281 -7 q 1215 6 1251 -7 q 1151 47 1178 18 q 1124 126 1124 76 q 1126 157 1124 142 q 1135 190 1129 172 q 1147 200 1139 200 q 1159 195 1154 200 q 1161 182 1164 190 q 1151 128 1151 153 q 1172 64 1151 88 q 1224 31 1193 40 q 1281 21 1254 21 q 1385 44 1332 21 q 1486 100 1438 68 q 1493 103 1492 103 q 1503 98 1500 103 q 1507 88 1507 93 q 1501 76 1507 81 q 1394 19 1451 44 q 1281 -7 1338 -7 m 771 -199 q 744 -146 744 -176 q 763 -100 744 -118 q 808 -82 782 -82 q 855 -100 836 -82 q 874 -146 874 -118 q 856 -190 874 -172 q 846 -194 851 -194 q 834 -187 839 -194 q 836 -171 829 -179 q 846 -146 846 -158 q 835 -120 846 -131 q 810 -110 825 -110 q 783 -120 794 -110 q 772 -146 772 -131 q 788 -175 772 -167 q 793 -186 793 -179 q 786 -199 793 -193 q 771 -199 779 -204 m 1672 1038 q 1562 1072 1601 1038 q 1522 1154 1522 1106 q 1523 1167 1522 1161 q 1525 1179 1524 1174 q 1542 1213 1529 1200 q 1572 1226 1556 1226 q 1586 1224 1578 1226 q 1610 1202 1601 1219 q 1617 1165 1619 1185 q 1629 1140 1615 1150 q 1674 1129 1643 1129 q 1736 1140 1714 1129 q 1776 1175 1758 1150 q 1811 1213 1793 1199 q 1843 1226 1829 1226 q 1876 1215 1864 1226 q 1888 1188 1888 1204 q 1882 1163 1888 1174 q 1868 1156 1879 1156 q 1858 1160 1863 1156 q 1857 1174 1853 1165 q 1860 1181 1860 1178 q 1860 1186 1860 1185 q 1843 1199 1860 1199 q 1824 1188 1838 1199 q 1799 1158 1811 1176 q 1749 1115 1776 1128 q 1674 1101 1721 1101 q 1610 1120 1631 1101 q 1589 1168 1589 1139 l 1589 1172 q 1578 1199 1589 1193 l 1574 1199 q 1553 1174 1557 1199 q 1551 1164 1551 1168 q 1551 1154 1551 1160 q 1583 1091 1551 1117 q 1672 1065 1614 1065 q 1748 1076 1715 1065 q 1804 1107 1781 1088 q 1817 1111 1811 1111 q 1829 1100 1829 1111 q 1821 1085 1829 1093 q 1672 1038 1767 1038 z "},"Ằ":{"ha":1619,"x_min":-74,"x_max":1888,"o":"m 553 714 q 524 733 531 714 q 521 769 518 753 q 587 874 533 831 q 722 946 640 918 q 900 988 803 974 q 1099 1001 997 1001 q 1160 1001 1113 1001 q 1273 996 1207 1000 q 1408 983 1339 992 q 1539 957 1478 974 q 1638 915 1600 940 q 1676 851 1676 889 q 1671 824 1676 836 q 1658 815 1667 815 q 1648 821 1653 815 q 1646 835 1643 826 q 1649 843 1649 839 q 1649 851 1649 847 q 1613 901 1649 881 q 1518 934 1576 921 q 1393 956 1460 947 q 1264 967 1326 964 q 1156 972 1201 971 q 1099 974 1111 974 q 900 960 994 974 q 731 919 806 946 q 608 854 656 893 q 549 764 560 815 q 548 760 549 763 q 547 754 547 757 q 553 742 547 742 q 574 753 563 742 q 592 771 586 764 q 739 872 660 840 q 901 911 818 903 q 1064 919 985 919 q 1253 912 1179 919 q 1371 894 1326 904 q 1443 875 1415 883 q 1453 863 1453 871 q 1447 851 1453 856 q 1435 847 1442 846 q 1365 866 1408 856 q 1250 884 1322 876 q 1064 892 1178 892 q 895 882 975 892 q 742 840 815 872 q 601 740 669 808 q 580 722 592 731 q 553 714 568 714 m 258 -47 q 149 -35 207 -47 q 41 2 92 -24 q -42 70 -10 28 q -74 175 -74 113 q -38 311 -74 249 q 58 424 -3 374 q 194 509 118 474 q 355 563 271 544 q 519 582 439 582 q 590 578 546 582 q 684 563 635 574 q 778 533 733 551 q 850 485 822 514 q 878 415 878 456 q 877 405 878 410 q 875 393 876 400 q 864 368 874 383 q 833 353 854 353 q 801 372 819 353 q 772 400 782 390 q 660 469 721 447 q 528 490 600 490 q 331 463 419 490 q 179 390 243 435 q 81 293 115 344 q 47 193 47 242 q 103 95 47 136 q 279 54 158 54 q 453 88 361 54 q 637 177 544 122 q 813 296 729 232 q 964 418 897 360 q 1027 470 985 436 q 1124 548 1069 504 q 1238 638 1179 592 q 1352 726 1297 683 q 1450 803 1407 769 q 1514 853 1493 836 q 1522 856 1517 856 q 1536 840 1536 856 q 1531 831 1536 835 q 1467 781 1510 814 q 1370 705 1425 747 q 1256 616 1315 663 q 1142 526 1197 569 q 1045 449 1088 483 q 982 397 1003 415 q 831 274 915 339 q 651 153 746 210 q 462 62 557 97 q 279 26 367 26 q 161 41 221 26 q 62 93 101 56 q 22 197 22 131 q 24 220 22 208 q 28 244 25 232 q 95 363 42 311 q 224 449 149 414 q 379 501 299 483 q 528 518 460 518 q 687 488 621 518 q 814 397 753 458 q 824 389 818 394 q 835 381 829 383 q 847 400 843 381 q 849 408 849 404 q 849 417 849 413 q 822 474 849 450 q 753 513 794 497 q 665 537 711 528 q 580 550 619 546 q 519 554 540 554 q 323 527 422 554 q 140 449 224 500 q 6 329 57 399 q -44 176 -44 260 q -17 88 -44 125 q 54 26 10 50 q 152 -8 99 3 q 258 -19 206 -19 q 437 8 347 -19 q 613 79 526 35 q 774 176 699 124 q 908 279 849 228 q 912 281 908 279 q 917 282 915 282 l 1161 282 q 1175 268 1175 282 q 1161 254 1175 254 l 922 254 q 786 150 863 203 q 622 53 710 97 q 442 -19 535 8 q 258 -47 350 -47 m 1339 97 q 1276 119 1294 97 q 1258 172 1258 140 q 1274 253 1258 210 q 1310 333 1290 296 q 1340 389 1329 371 q 1411 500 1368 436 q 1503 631 1454 564 q 1596 753 1553 697 q 1607 758 1600 758 q 1619 751 1614 758 q 1618 736 1625 743 q 1584 693 1611 728 q 1519 608 1557 658 q 1442 497 1482 557 q 1366 376 1401 436 q 1308 263 1331 315 q 1286 176 1286 211 q 1339 125 1286 125 q 1427 144 1378 125 q 1525 197 1476 163 q 1608 276 1574 232 q 1619 282 1613 282 q 1631 274 1626 282 q 1629 258 1636 265 q 1543 176 1594 213 q 1438 118 1492 139 q 1339 97 1385 97 m 1078 322 q 1038 323 1058 322 q 996 324 1018 324 q 982 338 982 324 q 996 351 982 351 q 1033 351 1014 351 q 1072 350 1053 350 q 1115 351 1093 350 q 1157 358 1136 353 q 1207 381 1185 365 q 1253 429 1229 396 q 1347 554 1300 493 q 1434 663 1394 615 q 1497 732 1474 710 q 1507 736 1501 736 q 1519 728 1514 736 q 1515 713 1524 719 q 1454 644 1493 690 q 1369 537 1415 597 q 1275 413 1322 476 q 1183 338 1232 353 q 1078 322 1135 322 m 1063 385 q 1049 399 1049 385 q 1054 410 1049 406 q 1139 480 1086 436 q 1249 573 1192 524 q 1354 663 1307 622 q 1363 665 1357 665 q 1378 650 1378 665 q 1372 640 1378 646 q 1267 551 1325 600 q 1157 459 1210 503 q 1071 388 1104 415 q 1063 385 1068 385 m 1281 -7 q 1215 6 1251 -7 q 1151 47 1178 18 q 1124 126 1124 76 q 1126 157 1124 142 q 1135 190 1129 172 q 1147 200 1139 200 q 1159 195 1154 200 q 1161 182 1164 190 q 1151 128 1151 153 q 1172 64 1151 88 q 1224 31 1193 40 q 1281 21 1254 21 q 1385 44 1332 21 q 1486 100 1438 68 q 1493 103 1492 103 q 1503 98 1500 103 q 1507 88 1507 93 q 1501 76 1507 81 q 1394 19 1451 44 q 1281 -7 1338 -7 m 1672 1038 q 1562 1072 1601 1038 q 1522 1154 1522 1106 q 1523 1167 1522 1161 q 1525 1179 1524 1174 q 1542 1213 1529 1200 q 1572 1226 1556 1226 q 1586 1224 1578 1226 q 1610 1202 1601 1219 q 1617 1165 1619 1185 q 1629 1140 1615 1150 q 1674 1129 1643 1129 q 1736 1140 1714 1129 q 1776 1175 1758 1150 q 1811 1213 1793 1199 q 1843 1226 1829 1226 q 1876 1215 1864 1226 q 1888 1188 1888 1204 q 1882 1163 1888 1174 q 1868 1156 1879 1156 q 1858 1160 1863 1156 q 1857 1174 1853 1165 q 1860 1181 1860 1178 q 1860 1186 1860 1185 q 1843 1199 1860 1199 q 1824 1188 1838 1199 q 1799 1158 1811 1176 q 1749 1115 1776 1128 q 1674 1101 1721 1101 q 1610 1120 1631 1101 q 1589 1168 1589 1139 l 1589 1172 q 1578 1199 1589 1193 l 1574 1199 q 1553 1174 1557 1199 q 1551 1164 1551 1168 q 1551 1154 1551 1160 q 1583 1091 1551 1117 q 1672 1065 1614 1065 q 1748 1076 1715 1065 q 1804 1107 1781 1088 q 1817 1111 1811 1111 q 1829 1100 1829 1111 q 1821 1085 1829 1093 q 1672 1038 1767 1038 m 1739 1263 q 1715 1272 1726 1263 q 1687 1296 1710 1276 q 1635 1339 1664 1315 q 1583 1383 1607 1363 q 1549 1413 1558 1404 q 1538 1433 1538 1424 q 1575 1481 1538 1451 q 1606 1493 1590 1493 q 1635 1478 1622 1493 q 1655 1456 1639 1472 q 1681 1429 1671 1440 q 1683 1421 1683 1426 q 1676 1408 1683 1414 q 1661 1408 1668 1403 q 1642 1428 1658 1411 q 1613 1461 1626 1446 q 1604 1465 1608 1465 q 1592 1458 1601 1465 q 1570 1440 1574 1444 q 1568 1432 1567 1435 q 1600 1405 1576 1425 q 1652 1361 1624 1385 q 1703 1318 1681 1338 q 1732 1294 1726 1299 q 1740 1290 1738 1290 q 1742 1299 1742 1290 q 1740 1316 1742 1310 q 1729 1332 1739 1322 l 1694 1367 q 1690 1375 1690 1371 q 1699 1388 1690 1383 q 1714 1386 1708 1393 l 1751 1349 q 1765 1326 1763 1338 q 1767 1299 1767 1315 q 1739 1263 1767 1263 z "},"Ẳ":{"ha":1619,"x_min":-74,"x_max":1925,"o":"m 553 714 q 524 733 531 714 q 521 769 518 753 q 587 874 533 831 q 722 946 640 918 q 900 988 803 974 q 1099 1001 997 1001 q 1160 1001 1113 1001 q 1273 996 1207 1000 q 1408 983 1339 992 q 1539 957 1478 974 q 1638 915 1600 940 q 1676 851 1676 889 q 1671 824 1676 836 q 1658 815 1667 815 q 1648 821 1653 815 q 1646 835 1643 826 q 1649 843 1649 839 q 1649 851 1649 847 q 1613 901 1649 881 q 1518 934 1576 921 q 1393 956 1460 947 q 1264 967 1326 964 q 1156 972 1201 971 q 1099 974 1111 974 q 900 960 994 974 q 731 919 806 946 q 608 854 656 893 q 549 764 560 815 q 548 760 549 763 q 547 754 547 757 q 553 742 547 742 q 574 753 563 742 q 592 771 586 764 q 739 872 660 840 q 901 911 818 903 q 1064 919 985 919 q 1253 912 1179 919 q 1371 894 1326 904 q 1443 875 1415 883 q 1453 863 1453 871 q 1447 851 1453 856 q 1435 847 1442 846 q 1365 866 1408 856 q 1250 884 1322 876 q 1064 892 1178 892 q 895 882 975 892 q 742 840 815 872 q 601 740 669 808 q 580 722 592 731 q 553 714 568 714 m 258 -47 q 149 -35 207 -47 q 41 2 92 -24 q -42 70 -10 28 q -74 175 -74 113 q -38 311 -74 249 q 58 424 -3 374 q 194 509 118 474 q 355 563 271 544 q 519 582 439 582 q 590 578 546 582 q 684 563 635 574 q 778 533 733 551 q 850 485 822 514 q 878 415 878 456 q 877 405 878 410 q 875 393 876 400 q 864 368 874 383 q 833 353 854 353 q 801 372 819 353 q 772 400 782 390 q 660 469 721 447 q 528 490 600 490 q 331 463 419 490 q 179 390 243 435 q 81 293 115 344 q 47 193 47 242 q 103 95 47 136 q 279 54 158 54 q 453 88 361 54 q 637 177 544 122 q 813 296 729 232 q 964 418 897 360 q 1027 470 985 436 q 1124 548 1069 504 q 1238 638 1179 592 q 1352 726 1297 683 q 1450 803 1407 769 q 1514 853 1493 836 q 1522 856 1517 856 q 1536 840 1536 856 q 1531 831 1536 835 q 1467 781 1510 814 q 1370 705 1425 747 q 1256 616 1315 663 q 1142 526 1197 569 q 1045 449 1088 483 q 982 397 1003 415 q 831 274 915 339 q 651 153 746 210 q 462 62 557 97 q 279 26 367 26 q 161 41 221 26 q 62 93 101 56 q 22 197 22 131 q 24 220 22 208 q 28 244 25 232 q 95 363 42 311 q 224 449 149 414 q 379 501 299 483 q 528 518 460 518 q 687 488 621 518 q 814 397 753 458 q 824 389 818 394 q 835 381 829 383 q 847 400 843 381 q 849 408 849 404 q 849 417 849 413 q 822 474 849 450 q 753 513 794 497 q 665 537 711 528 q 580 550 619 546 q 519 554 540 554 q 323 527 422 554 q 140 449 224 500 q 6 329 57 399 q -44 176 -44 260 q -17 88 -44 125 q 54 26 10 50 q 152 -8 99 3 q 258 -19 206 -19 q 437 8 347 -19 q 613 79 526 35 q 774 176 699 124 q 908 279 849 228 q 912 281 908 279 q 917 282 915 282 l 1161 282 q 1175 268 1175 282 q 1161 254 1175 254 l 922 254 q 786 150 863 203 q 622 53 710 97 q 442 -19 535 8 q 258 -47 350 -47 m 1339 97 q 1276 119 1294 97 q 1258 172 1258 140 q 1274 253 1258 210 q 1310 333 1290 296 q 1340 389 1329 371 q 1411 500 1368 436 q 1503 631 1454 564 q 1596 753 1553 697 q 1607 758 1600 758 q 1619 751 1614 758 q 1618 736 1625 743 q 1584 693 1611 728 q 1519 608 1557 658 q 1442 497 1482 557 q 1366 376 1401 436 q 1308 263 1331 315 q 1286 176 1286 211 q 1339 125 1286 125 q 1427 144 1378 125 q 1525 197 1476 163 q 1608 276 1574 232 q 1619 282 1613 282 q 1631 274 1626 282 q 1629 258 1636 265 q 1543 176 1594 213 q 1438 118 1492 139 q 1339 97 1385 97 m 1078 322 q 1038 323 1058 322 q 996 324 1018 324 q 982 338 982 324 q 996 351 982 351 q 1033 351 1014 351 q 1072 350 1053 350 q 1115 351 1093 350 q 1157 358 1136 353 q 1207 381 1185 365 q 1253 429 1229 396 q 1347 554 1300 493 q 1434 663 1394 615 q 1497 732 1474 710 q 1507 736 1501 736 q 1519 728 1514 736 q 1515 713 1524 719 q 1454 644 1493 690 q 1369 537 1415 597 q 1275 413 1322 476 q 1183 338 1232 353 q 1078 322 1135 322 m 1063 385 q 1049 399 1049 385 q 1054 410 1049 406 q 1139 480 1086 436 q 1249 573 1192 524 q 1354 663 1307 622 q 1363 665 1357 665 q 1378 650 1378 665 q 1372 640 1378 646 q 1267 551 1325 600 q 1157 459 1210 503 q 1071 388 1104 415 q 1063 385 1068 385 m 1281 -7 q 1215 6 1251 -7 q 1151 47 1178 18 q 1124 126 1124 76 q 1126 157 1124 142 q 1135 190 1129 172 q 1147 200 1139 200 q 1159 195 1154 200 q 1161 182 1164 190 q 1151 128 1151 153 q 1172 64 1151 88 q 1224 31 1193 40 q 1281 21 1254 21 q 1385 44 1332 21 q 1486 100 1438 68 q 1493 103 1492 103 q 1503 98 1500 103 q 1507 88 1507 93 q 1501 76 1507 81 q 1394 19 1451 44 q 1281 -7 1338 -7 m 1672 1038 q 1562 1072 1601 1038 q 1522 1154 1522 1106 q 1523 1167 1522 1161 q 1525 1179 1524 1174 q 1542 1213 1529 1200 q 1572 1226 1556 1226 q 1586 1224 1578 1226 q 1610 1202 1601 1219 q 1617 1165 1619 1185 q 1629 1140 1615 1150 q 1674 1129 1643 1129 q 1736 1140 1714 1129 q 1776 1175 1758 1150 q 1811 1213 1793 1199 q 1843 1226 1829 1226 q 1876 1215 1864 1226 q 1888 1188 1888 1204 q 1882 1163 1888 1174 q 1868 1156 1879 1156 q 1858 1160 1863 1156 q 1857 1174 1853 1165 q 1860 1181 1860 1178 q 1860 1186 1860 1185 q 1843 1199 1860 1199 q 1824 1188 1838 1199 q 1799 1158 1811 1176 q 1749 1115 1776 1128 q 1674 1101 1721 1101 q 1610 1120 1631 1101 q 1589 1168 1589 1139 l 1589 1172 q 1578 1199 1589 1193 l 1574 1199 q 1553 1174 1557 1199 q 1551 1164 1551 1168 q 1551 1154 1551 1160 q 1583 1091 1551 1117 q 1672 1065 1614 1065 q 1748 1076 1715 1065 q 1804 1107 1781 1088 q 1817 1111 1811 1111 q 1829 1100 1829 1111 q 1821 1085 1829 1093 q 1672 1038 1767 1038 m 1732 1257 q 1714 1262 1721 1257 q 1708 1274 1707 1267 q 1719 1296 1710 1289 q 1760 1331 1746 1318 q 1785 1357 1775 1343 q 1793 1374 1792 1368 q 1796 1379 1796 1379 q 1781 1397 1800 1397 q 1725 1388 1751 1397 q 1706 1383 1713 1383 q 1690 1392 1692 1383 q 1693 1414 1688 1401 q 1717 1446 1700 1433 q 1768 1467 1735 1458 l 1775 1468 q 1783 1458 1786 1468 q 1779 1451 1782 1456 q 1767 1443 1776 1446 q 1717 1410 1717 1429 q 1792 1425 1763 1425 q 1829 1392 1836 1425 q 1826 1379 1829 1388 q 1822 1368 1825 1374 q 1813 1356 1818 1363 q 1783 1319 1796 1332 q 1743 1285 1771 1306 q 1764 1294 1750 1286 q 1792 1310 1778 1301 q 1813 1325 1807 1319 q 1853 1367 1832 1342 q 1881 1410 1875 1393 q 1844 1453 1899 1453 l 1808 1453 q 1797 1461 1796 1453 q 1821 1478 1800 1474 q 1838 1480 1829 1479 q 1854 1481 1846 1481 q 1914 1426 1925 1481 q 1828 1308 1906 1378 q 1799 1287 1818 1299 q 1760 1266 1779 1275 q 1732 1257 1742 1257 z "},"Ẵ":{"ha":1619,"x_min":-74,"x_max":1931,"o":"m 553 714 q 524 733 531 714 q 521 769 518 753 q 587 874 533 831 q 722 946 640 918 q 900 988 803 974 q 1099 1001 997 1001 q 1160 1001 1113 1001 q 1273 996 1207 1000 q 1408 983 1339 992 q 1539 957 1478 974 q 1638 915 1600 940 q 1676 851 1676 889 q 1671 824 1676 836 q 1658 815 1667 815 q 1648 821 1653 815 q 1646 835 1643 826 q 1649 843 1649 839 q 1649 851 1649 847 q 1613 901 1649 881 q 1518 934 1576 921 q 1393 956 1460 947 q 1264 967 1326 964 q 1156 972 1201 971 q 1099 974 1111 974 q 900 960 994 974 q 731 919 806 946 q 608 854 656 893 q 549 764 560 815 q 548 760 549 763 q 547 754 547 757 q 553 742 547 742 q 574 753 563 742 q 592 771 586 764 q 739 872 660 840 q 901 911 818 903 q 1064 919 985 919 q 1253 912 1179 919 q 1371 894 1326 904 q 1443 875 1415 883 q 1453 863 1453 871 q 1447 851 1453 856 q 1435 847 1442 846 q 1365 866 1408 856 q 1250 884 1322 876 q 1064 892 1178 892 q 895 882 975 892 q 742 840 815 872 q 601 740 669 808 q 580 722 592 731 q 553 714 568 714 m 258 -47 q 149 -35 207 -47 q 41 2 92 -24 q -42 70 -10 28 q -74 175 -74 113 q -38 311 -74 249 q 58 424 -3 374 q 194 509 118 474 q 355 563 271 544 q 519 582 439 582 q 590 578 546 582 q 684 563 635 574 q 778 533 733 551 q 850 485 822 514 q 878 415 878 456 q 877 405 878 410 q 875 393 876 400 q 864 368 874 383 q 833 353 854 353 q 801 372 819 353 q 772 400 782 390 q 660 469 721 447 q 528 490 600 490 q 331 463 419 490 q 179 390 243 435 q 81 293 115 344 q 47 193 47 242 q 103 95 47 136 q 279 54 158 54 q 453 88 361 54 q 637 177 544 122 q 813 296 729 232 q 964 418 897 360 q 1027 470 985 436 q 1124 548 1069 504 q 1238 638 1179 592 q 1352 726 1297 683 q 1450 803 1407 769 q 1514 853 1493 836 q 1522 856 1517 856 q 1536 840 1536 856 q 1531 831 1536 835 q 1467 781 1510 814 q 1370 705 1425 747 q 1256 616 1315 663 q 1142 526 1197 569 q 1045 449 1088 483 q 982 397 1003 415 q 831 274 915 339 q 651 153 746 210 q 462 62 557 97 q 279 26 367 26 q 161 41 221 26 q 62 93 101 56 q 22 197 22 131 q 24 220 22 208 q 28 244 25 232 q 95 363 42 311 q 224 449 149 414 q 379 501 299 483 q 528 518 460 518 q 687 488 621 518 q 814 397 753 458 q 824 389 818 394 q 835 381 829 383 q 847 400 843 381 q 849 408 849 404 q 849 417 849 413 q 822 474 849 450 q 753 513 794 497 q 665 537 711 528 q 580 550 619 546 q 519 554 540 554 q 323 527 422 554 q 140 449 224 500 q 6 329 57 399 q -44 176 -44 260 q -17 88 -44 125 q 54 26 10 50 q 152 -8 99 3 q 258 -19 206 -19 q 437 8 347 -19 q 613 79 526 35 q 774 176 699 124 q 908 279 849 228 q 912 281 908 279 q 917 282 915 282 l 1161 282 q 1175 268 1175 282 q 1161 254 1175 254 l 922 254 q 786 150 863 203 q 622 53 710 97 q 442 -19 535 8 q 258 -47 350 -47 m 1339 97 q 1276 119 1294 97 q 1258 172 1258 140 q 1274 253 1258 210 q 1310 333 1290 296 q 1340 389 1329 371 q 1411 500 1368 436 q 1503 631 1454 564 q 1596 753 1553 697 q 1607 758 1600 758 q 1619 751 1614 758 q 1618 736 1625 743 q 1584 693 1611 728 q 1519 608 1557 658 q 1442 497 1482 557 q 1366 376 1401 436 q 1308 263 1331 315 q 1286 176 1286 211 q 1339 125 1286 125 q 1427 144 1378 125 q 1525 197 1476 163 q 1608 276 1574 232 q 1619 282 1613 282 q 1631 274 1626 282 q 1629 258 1636 265 q 1543 176 1594 213 q 1438 118 1492 139 q 1339 97 1385 97 m 1078 322 q 1038 323 1058 322 q 996 324 1018 324 q 982 338 982 324 q 996 351 982 351 q 1033 351 1014 351 q 1072 350 1053 350 q 1115 351 1093 350 q 1157 358 1136 353 q 1207 381 1185 365 q 1253 429 1229 396 q 1347 554 1300 493 q 1434 663 1394 615 q 1497 732 1474 710 q 1507 736 1501 736 q 1519 728 1514 736 q 1515 713 1524 719 q 1454 644 1493 690 q 1369 537 1415 597 q 1275 413 1322 476 q 1183 338 1232 353 q 1078 322 1135 322 m 1063 385 q 1049 399 1049 385 q 1054 410 1049 406 q 1139 480 1086 436 q 1249 573 1192 524 q 1354 663 1307 622 q 1363 665 1357 665 q 1378 650 1378 665 q 1372 640 1378 646 q 1267 551 1325 600 q 1157 459 1210 503 q 1071 388 1104 415 q 1063 385 1068 385 m 1281 -7 q 1215 6 1251 -7 q 1151 47 1178 18 q 1124 126 1124 76 q 1126 157 1124 142 q 1135 190 1129 172 q 1147 200 1139 200 q 1159 195 1154 200 q 1161 182 1164 190 q 1151 128 1151 153 q 1172 64 1151 88 q 1224 31 1193 40 q 1281 21 1254 21 q 1385 44 1332 21 q 1486 100 1438 68 q 1493 103 1492 103 q 1503 98 1500 103 q 1507 88 1507 93 q 1501 76 1507 81 q 1394 19 1451 44 q 1281 -7 1338 -7 m 1672 1038 q 1562 1072 1601 1038 q 1522 1154 1522 1106 q 1523 1167 1522 1161 q 1525 1179 1524 1174 q 1542 1213 1529 1200 q 1572 1226 1556 1226 q 1586 1224 1578 1226 q 1610 1202 1601 1219 q 1617 1165 1619 1185 q 1629 1140 1615 1150 q 1674 1129 1643 1129 q 1736 1140 1714 1129 q 1776 1175 1758 1150 q 1811 1213 1793 1199 q 1843 1226 1829 1226 q 1876 1215 1864 1226 q 1888 1188 1888 1204 q 1882 1163 1888 1174 q 1868 1156 1879 1156 q 1858 1160 1863 1156 q 1857 1174 1853 1165 q 1860 1181 1860 1178 q 1860 1186 1860 1185 q 1843 1199 1860 1199 q 1824 1188 1838 1199 q 1799 1158 1811 1176 q 1749 1115 1776 1128 q 1674 1101 1721 1101 q 1610 1120 1631 1101 q 1589 1168 1589 1139 l 1589 1172 q 1578 1199 1589 1193 l 1574 1199 q 1553 1174 1557 1199 q 1551 1164 1551 1168 q 1551 1154 1551 1160 q 1583 1091 1551 1117 q 1672 1065 1614 1065 q 1748 1076 1715 1065 q 1804 1107 1781 1088 q 1817 1111 1811 1111 q 1829 1100 1829 1111 q 1821 1085 1829 1093 q 1672 1038 1767 1038 m 1807 1253 q 1758 1261 1782 1253 q 1721 1278 1735 1269 q 1660 1297 1694 1297 q 1630 1290 1640 1297 q 1606 1272 1619 1283 q 1572 1258 1590 1258 q 1544 1269 1556 1258 q 1532 1297 1532 1281 q 1550 1335 1532 1317 q 1563 1340 1556 1340 q 1575 1328 1575 1340 q 1569 1315 1575 1321 q 1560 1297 1560 1306 q 1571 1286 1560 1286 q 1589 1294 1579 1286 q 1616 1314 1600 1303 q 1660 1325 1632 1325 q 1703 1317 1681 1325 q 1738 1301 1725 1310 q 1769 1287 1750 1293 q 1807 1281 1789 1281 q 1855 1296 1835 1281 q 1887 1329 1875 1311 q 1901 1354 1899 1347 q 1904 1365 1904 1363 q 1899 1374 1904 1374 q 1888 1368 1893 1374 q 1817 1333 1853 1333 q 1776 1340 1799 1333 q 1740 1354 1754 1347 q 1704 1369 1725 1363 q 1667 1375 1683 1375 q 1638 1371 1649 1375 q 1613 1356 1626 1367 q 1601 1351 1607 1351 q 1589 1365 1589 1351 q 1596 1378 1589 1375 q 1667 1403 1626 1403 q 1714 1395 1689 1403 q 1753 1379 1739 1388 q 1785 1367 1767 1372 q 1817 1361 1804 1361 q 1868 1388 1842 1361 q 1899 1401 1882 1401 q 1922 1391 1913 1401 q 1931 1364 1931 1381 q 1926 1343 1931 1354 q 1909 1314 1924 1336 q 1869 1272 1894 1292 q 1807 1253 1843 1253 z "},"Ǎ":{"ha":1619,"x_min":-74,"x_max":1956,"o":"m 1594 1229 q 1628 1227 1617 1229 q 1646 1217 1640 1225 q 1661 1197 1653 1210 q 1675 1174 1669 1185 q 1676 1164 1676 1171 q 1661 1150 1674 1150 q 1650 1157 1654 1150 q 1637 1180 1644 1168 q 1624 1197 1629 1192 q 1615 1201 1622 1200 q 1589 1201 1608 1201 q 1582 1189 1574 1201 q 1605 1158 1590 1176 q 1633 1118 1619 1139 q 1662 1080 1649 1096 q 1681 1056 1675 1064 q 1685 1053 1683 1053 q 1704 1063 1689 1053 q 1738 1083 1711 1067 q 1796 1120 1764 1100 q 1853 1156 1828 1140 q 1883 1174 1879 1171 q 1897 1183 1889 1178 q 1909 1193 1906 1189 q 1900 1197 1913 1197 q 1876 1194 1885 1197 q 1860 1188 1867 1192 q 1830 1172 1853 1185 q 1782 1147 1807 1160 q 1746 1126 1757 1133 q 1733 1122 1740 1122 q 1722 1136 1719 1122 q 1733 1149 1725 1144 q 1771 1170 1746 1157 q 1820 1196 1796 1183 q 1850 1211 1844 1208 q 1906 1225 1876 1225 q 1951 1200 1956 1225 q 1926 1172 1949 1186 l 1717 1040 q 1678 1025 1693 1025 q 1656 1039 1665 1025 l 1613 1099 q 1583 1140 1599 1118 q 1560 1172 1567 1161 q 1554 1197 1551 1183 q 1567 1220 1557 1211 q 1594 1229 1576 1229 m 553 714 q 524 733 531 714 q 521 769 518 753 q 587 874 533 831 q 722 946 640 918 q 900 988 803 974 q 1099 1001 997 1001 q 1160 1001 1113 1001 q 1273 996 1207 1000 q 1408 983 1339 992 q 1539 957 1478 974 q 1638 915 1600 940 q 1676 851 1676 889 q 1671 824 1676 836 q 1658 815 1667 815 q 1648 821 1653 815 q 1646 835 1643 826 q 1649 843 1649 839 q 1649 851 1649 847 q 1613 901 1649 881 q 1518 934 1576 921 q 1393 956 1460 947 q 1264 967 1326 964 q 1156 972 1201 971 q 1099 974 1111 974 q 900 960 994 974 q 731 919 806 946 q 608 854 656 893 q 549 764 560 815 q 548 760 549 763 q 547 754 547 757 q 553 742 547 742 q 574 753 563 742 q 592 771 586 764 q 739 872 660 840 q 901 911 818 903 q 1064 919 985 919 q 1253 912 1179 919 q 1371 894 1326 904 q 1443 875 1415 883 q 1453 863 1453 871 q 1447 851 1453 856 q 1435 847 1442 846 q 1365 866 1408 856 q 1250 884 1322 876 q 1064 892 1178 892 q 895 882 975 892 q 742 840 815 872 q 601 740 669 808 q 580 722 592 731 q 553 714 568 714 m 258 -47 q 149 -35 207 -47 q 41 2 92 -24 q -42 70 -10 28 q -74 175 -74 113 q -38 311 -74 249 q 58 424 -3 374 q 194 509 118 474 q 355 563 271 544 q 519 582 439 582 q 590 578 546 582 q 684 563 635 574 q 778 533 733 551 q 850 485 822 514 q 878 415 878 456 q 877 405 878 410 q 875 393 876 400 q 864 368 874 383 q 833 353 854 353 q 801 372 819 353 q 772 400 782 390 q 660 469 721 447 q 528 490 600 490 q 331 463 419 490 q 179 390 243 435 q 81 293 115 344 q 47 193 47 242 q 103 95 47 136 q 279 54 158 54 q 453 88 361 54 q 637 177 544 122 q 813 296 729 232 q 964 418 897 360 q 1027 470 985 436 q 1124 548 1069 504 q 1238 638 1179 592 q 1352 726 1297 683 q 1450 803 1407 769 q 1514 853 1493 836 q 1522 856 1517 856 q 1536 840 1536 856 q 1531 831 1536 835 q 1467 781 1510 814 q 1370 705 1425 747 q 1256 616 1315 663 q 1142 526 1197 569 q 1045 449 1088 483 q 982 397 1003 415 q 831 274 915 339 q 651 153 746 210 q 462 62 557 97 q 279 26 367 26 q 161 41 221 26 q 62 93 101 56 q 22 197 22 131 q 24 220 22 208 q 28 244 25 232 q 95 363 42 311 q 224 449 149 414 q 379 501 299 483 q 528 518 460 518 q 687 488 621 518 q 814 397 753 458 q 824 389 818 394 q 835 381 829 383 q 847 400 843 381 q 849 408 849 404 q 849 417 849 413 q 822 474 849 450 q 753 513 794 497 q 665 537 711 528 q 580 550 619 546 q 519 554 540 554 q 323 527 422 554 q 140 449 224 500 q 6 329 57 399 q -44 176 -44 260 q -17 88 -44 125 q 54 26 10 50 q 152 -8 99 3 q 258 -19 206 -19 q 437 8 347 -19 q 613 79 526 35 q 774 176 699 124 q 908 279 849 228 q 912 281 908 279 q 917 282 915 282 l 1161 282 q 1175 268 1175 282 q 1161 254 1175 254 l 922 254 q 786 150 863 203 q 622 53 710 97 q 442 -19 535 8 q 258 -47 350 -47 m 1339 97 q 1276 119 1294 97 q 1258 172 1258 140 q 1274 253 1258 210 q 1310 333 1290 296 q 1340 389 1329 371 q 1411 500 1368 436 q 1503 631 1454 564 q 1596 753 1553 697 q 1607 758 1600 758 q 1619 751 1614 758 q 1618 736 1625 743 q 1584 693 1611 728 q 1519 608 1557 658 q 1442 497 1482 557 q 1366 376 1401 436 q 1308 263 1331 315 q 1286 176 1286 211 q 1339 125 1286 125 q 1427 144 1378 125 q 1525 197 1476 163 q 1608 276 1574 232 q 1619 282 1613 282 q 1631 274 1626 282 q 1629 258 1636 265 q 1543 176 1594 213 q 1438 118 1492 139 q 1339 97 1385 97 m 1078 322 q 1038 323 1058 322 q 996 324 1018 324 q 982 338 982 324 q 996 351 982 351 q 1033 351 1014 351 q 1072 350 1053 350 q 1115 351 1093 350 q 1157 358 1136 353 q 1207 381 1185 365 q 1253 429 1229 396 q 1347 554 1300 493 q 1434 663 1394 615 q 1497 732 1474 710 q 1507 736 1501 736 q 1519 728 1514 736 q 1515 713 1524 719 q 1454 644 1493 690 q 1369 537 1415 597 q 1275 413 1322 476 q 1183 338 1232 353 q 1078 322 1135 322 m 1063 385 q 1049 399 1049 385 q 1054 410 1049 406 q 1139 480 1086 436 q 1249 573 1192 524 q 1354 663 1307 622 q 1363 665 1357 665 q 1378 650 1378 665 q 1372 640 1378 646 q 1267 551 1325 600 q 1157 459 1210 503 q 1071 388 1104 415 q 1063 385 1068 385 m 1281 -7 q 1215 6 1251 -7 q 1151 47 1178 18 q 1124 126 1124 76 q 1126 157 1124 142 q 1135 190 1129 172 q 1147 200 1139 200 q 1159 195 1154 200 q 1161 182 1164 190 q 1151 128 1151 153 q 1172 64 1151 88 q 1224 31 1193 40 q 1281 21 1254 21 q 1385 44 1332 21 q 1486 100 1438 68 q 1493 103 1492 103 q 1503 98 1500 103 q 1507 88 1507 93 q 1501 76 1507 81 q 1394 19 1451 44 q 1281 -7 1338 -7 z "},"Â":{"ha":1619,"x_min":-74,"x_max":1879,"o":"m 553 714 q 524 733 531 714 q 521 769 518 753 q 587 874 533 831 q 722 946 640 918 q 900 988 803 974 q 1099 1001 997 1001 q 1160 1001 1113 1001 q 1273 996 1207 1000 q 1408 983 1339 992 q 1539 957 1478 974 q 1638 915 1600 940 q 1676 851 1676 889 q 1671 824 1676 836 q 1658 815 1667 815 q 1648 821 1653 815 q 1646 835 1643 826 q 1649 843 1649 839 q 1649 851 1649 847 q 1613 901 1649 881 q 1518 934 1576 921 q 1393 956 1460 947 q 1264 967 1326 964 q 1156 972 1201 971 q 1099 974 1111 974 q 900 960 994 974 q 731 919 806 946 q 608 854 656 893 q 549 764 560 815 q 548 760 549 763 q 547 754 547 757 q 553 742 547 742 q 574 753 563 742 q 592 771 586 764 q 739 872 660 840 q 901 911 818 903 q 1064 919 985 919 q 1253 912 1179 919 q 1371 894 1326 904 q 1443 875 1415 883 q 1453 863 1453 871 q 1447 851 1453 856 q 1435 847 1442 846 q 1365 866 1408 856 q 1250 884 1322 876 q 1064 892 1178 892 q 895 882 975 892 q 742 840 815 872 q 601 740 669 808 q 580 722 592 731 q 553 714 568 714 m 258 -47 q 149 -35 207 -47 q 41 2 92 -24 q -42 70 -10 28 q -74 175 -74 113 q -38 311 -74 249 q 58 424 -3 374 q 194 509 118 474 q 355 563 271 544 q 519 582 439 582 q 590 578 546 582 q 684 563 635 574 q 778 533 733 551 q 850 485 822 514 q 878 415 878 456 q 877 405 878 410 q 875 393 876 400 q 864 368 874 383 q 833 353 854 353 q 801 372 819 353 q 772 400 782 390 q 660 469 721 447 q 528 490 600 490 q 331 463 419 490 q 179 390 243 435 q 81 293 115 344 q 47 193 47 242 q 103 95 47 136 q 279 54 158 54 q 453 88 361 54 q 637 177 544 122 q 813 296 729 232 q 964 418 897 360 q 1027 470 985 436 q 1124 548 1069 504 q 1238 638 1179 592 q 1352 726 1297 683 q 1450 803 1407 769 q 1514 853 1493 836 q 1522 856 1517 856 q 1536 840 1536 856 q 1531 831 1536 835 q 1467 781 1510 814 q 1370 705 1425 747 q 1256 616 1315 663 q 1142 526 1197 569 q 1045 449 1088 483 q 982 397 1003 415 q 831 274 915 339 q 651 153 746 210 q 462 62 557 97 q 279 26 367 26 q 161 41 221 26 q 62 93 101 56 q 22 197 22 131 q 24 220 22 208 q 28 244 25 232 q 95 363 42 311 q 224 449 149 414 q 379 501 299 483 q 528 518 460 518 q 687 488 621 518 q 814 397 753 458 q 824 389 818 394 q 835 381 829 383 q 847 400 843 381 q 849 408 849 404 q 849 417 849 413 q 822 474 849 450 q 753 513 794 497 q 665 537 711 528 q 580 550 619 546 q 519 554 540 554 q 323 527 422 554 q 140 449 224 500 q 6 329 57 399 q -44 176 -44 260 q -17 88 -44 125 q 54 26 10 50 q 152 -8 99 3 q 258 -19 206 -19 q 437 8 347 -19 q 613 79 526 35 q 774 176 699 124 q 908 279 849 228 q 912 281 908 279 q 917 282 915 282 l 1161 282 q 1175 268 1175 282 q 1161 254 1175 254 l 922 254 q 786 150 863 203 q 622 53 710 97 q 442 -19 535 8 q 258 -47 350 -47 m 1339 97 q 1276 119 1294 97 q 1258 172 1258 140 q 1274 253 1258 210 q 1310 333 1290 296 q 1340 389 1329 371 q 1411 500 1368 436 q 1503 631 1454 564 q 1596 753 1553 697 q 1607 758 1600 758 q 1619 751 1614 758 q 1618 736 1625 743 q 1584 693 1611 728 q 1519 608 1557 658 q 1442 497 1482 557 q 1366 376 1401 436 q 1308 263 1331 315 q 1286 176 1286 211 q 1339 125 1286 125 q 1427 144 1378 125 q 1525 197 1476 163 q 1608 276 1574 232 q 1619 282 1613 282 q 1631 274 1626 282 q 1629 258 1636 265 q 1543 176 1594 213 q 1438 118 1492 139 q 1339 97 1385 97 m 1078 322 q 1038 323 1058 322 q 996 324 1018 324 q 982 338 982 324 q 996 351 982 351 q 1033 351 1014 351 q 1072 350 1053 350 q 1115 351 1093 350 q 1157 358 1136 353 q 1207 381 1185 365 q 1253 429 1229 396 q 1347 554 1300 493 q 1434 663 1394 615 q 1497 732 1474 710 q 1507 736 1501 736 q 1519 728 1514 736 q 1515 713 1524 719 q 1454 644 1493 690 q 1369 537 1415 597 q 1275 413 1322 476 q 1183 338 1232 353 q 1078 322 1135 322 m 1063 385 q 1049 399 1049 385 q 1054 410 1049 406 q 1139 480 1086 436 q 1249 573 1192 524 q 1354 663 1307 622 q 1363 665 1357 665 q 1378 650 1378 665 q 1372 640 1378 646 q 1267 551 1325 600 q 1157 459 1210 503 q 1071 388 1104 415 q 1063 385 1068 385 m 1281 -7 q 1215 6 1251 -7 q 1151 47 1178 18 q 1124 126 1124 76 q 1126 157 1124 142 q 1135 190 1129 172 q 1147 200 1139 200 q 1159 195 1154 200 q 1161 182 1164 190 q 1151 128 1151 153 q 1172 64 1151 88 q 1224 31 1193 40 q 1281 21 1254 21 q 1385 44 1332 21 q 1486 100 1438 68 q 1493 103 1492 103 q 1503 98 1500 103 q 1507 88 1507 93 q 1501 76 1507 81 q 1394 19 1451 44 q 1281 -7 1338 -7 m 1836 1038 q 1802 1040 1814 1038 q 1785 1050 1790 1042 q 1770 1070 1779 1057 q 1756 1093 1761 1083 q 1754 1103 1754 1096 q 1769 1117 1757 1117 q 1781 1110 1778 1117 q 1794 1088 1788 1100 q 1807 1069 1801 1076 q 1816 1067 1810 1068 q 1842 1065 1822 1065 q 1849 1078 1857 1065 q 1826 1109 1840 1090 q 1797 1149 1813 1128 q 1769 1188 1782 1172 q 1750 1211 1756 1203 q 1746 1214 1747 1214 q 1726 1204 1742 1214 q 1694 1183 1721 1200 q 1635 1147 1667 1167 q 1577 1111 1603 1126 q 1547 1093 1551 1096 q 1534 1084 1543 1090 q 1522 1074 1525 1078 q 1531 1069 1519 1069 q 1555 1072 1546 1069 q 1571 1079 1564 1075 q 1601 1095 1578 1083 q 1649 1120 1625 1107 q 1685 1140 1674 1133 q 1697 1144 1692 1144 q 1708 1131 1711 1144 q 1697 1118 1706 1122 q 1660 1097 1686 1111 q 1611 1072 1635 1083 q 1581 1056 1588 1060 q 1525 1042 1554 1042 q 1479 1067 1475 1042 q 1504 1094 1482 1081 l 1714 1226 q 1753 1242 1738 1242 q 1775 1228 1765 1242 l 1818 1168 q 1848 1128 1832 1150 q 1871 1094 1864 1106 q 1876 1069 1879 1083 q 1865 1047 1875 1056 q 1836 1038 1854 1038 z "},"Ấ":{"ha":1619,"x_min":-74,"x_max":2085,"o":"m 553 714 q 524 733 531 714 q 521 769 518 753 q 587 874 533 831 q 722 946 640 918 q 900 988 803 974 q 1099 1001 997 1001 q 1160 1001 1113 1001 q 1273 996 1207 1000 q 1408 983 1339 992 q 1539 957 1478 974 q 1638 915 1600 940 q 1676 851 1676 889 q 1671 824 1676 836 q 1658 815 1667 815 q 1648 821 1653 815 q 1646 835 1643 826 q 1649 843 1649 839 q 1649 851 1649 847 q 1613 901 1649 881 q 1518 934 1576 921 q 1393 956 1460 947 q 1264 967 1326 964 q 1156 972 1201 971 q 1099 974 1111 974 q 900 960 994 974 q 731 919 806 946 q 608 854 656 893 q 549 764 560 815 q 548 760 549 763 q 547 754 547 757 q 553 742 547 742 q 574 753 563 742 q 592 771 586 764 q 739 872 660 840 q 901 911 818 903 q 1064 919 985 919 q 1253 912 1179 919 q 1371 894 1326 904 q 1443 875 1415 883 q 1453 863 1453 871 q 1447 851 1453 856 q 1435 847 1442 846 q 1365 866 1408 856 q 1250 884 1322 876 q 1064 892 1178 892 q 895 882 975 892 q 742 840 815 872 q 601 740 669 808 q 580 722 592 731 q 553 714 568 714 m 258 -47 q 149 -35 207 -47 q 41 2 92 -24 q -42 70 -10 28 q -74 175 -74 113 q -38 311 -74 249 q 58 424 -3 374 q 194 509 118 474 q 355 563 271 544 q 519 582 439 582 q 590 578 546 582 q 684 563 635 574 q 778 533 733 551 q 850 485 822 514 q 878 415 878 456 q 877 405 878 410 q 875 393 876 400 q 864 368 874 383 q 833 353 854 353 q 801 372 819 353 q 772 400 782 390 q 660 469 721 447 q 528 490 600 490 q 331 463 419 490 q 179 390 243 435 q 81 293 115 344 q 47 193 47 242 q 103 95 47 136 q 279 54 158 54 q 453 88 361 54 q 637 177 544 122 q 813 296 729 232 q 964 418 897 360 q 1027 470 985 436 q 1124 548 1069 504 q 1238 638 1179 592 q 1352 726 1297 683 q 1450 803 1407 769 q 1514 853 1493 836 q 1522 856 1517 856 q 1536 840 1536 856 q 1531 831 1536 835 q 1467 781 1510 814 q 1370 705 1425 747 q 1256 616 1315 663 q 1142 526 1197 569 q 1045 449 1088 483 q 982 397 1003 415 q 831 274 915 339 q 651 153 746 210 q 462 62 557 97 q 279 26 367 26 q 161 41 221 26 q 62 93 101 56 q 22 197 22 131 q 24 220 22 208 q 28 244 25 232 q 95 363 42 311 q 224 449 149 414 q 379 501 299 483 q 528 518 460 518 q 687 488 621 518 q 814 397 753 458 q 824 389 818 394 q 835 381 829 383 q 847 400 843 381 q 849 408 849 404 q 849 417 849 413 q 822 474 849 450 q 753 513 794 497 q 665 537 711 528 q 580 550 619 546 q 519 554 540 554 q 323 527 422 554 q 140 449 224 500 q 6 329 57 399 q -44 176 -44 260 q -17 88 -44 125 q 54 26 10 50 q 152 -8 99 3 q 258 -19 206 -19 q 437 8 347 -19 q 613 79 526 35 q 774 176 699 124 q 908 279 849 228 q 912 281 908 279 q 917 282 915 282 l 1161 282 q 1175 268 1175 282 q 1161 254 1175 254 l 922 254 q 786 150 863 203 q 622 53 710 97 q 442 -19 535 8 q 258 -47 350 -47 m 1339 97 q 1276 119 1294 97 q 1258 172 1258 140 q 1274 253 1258 210 q 1310 333 1290 296 q 1340 389 1329 371 q 1411 500 1368 436 q 1503 631 1454 564 q 1596 753 1553 697 q 1607 758 1600 758 q 1619 751 1614 758 q 1618 736 1625 743 q 1584 693 1611 728 q 1519 608 1557 658 q 1442 497 1482 557 q 1366 376 1401 436 q 1308 263 1331 315 q 1286 176 1286 211 q 1339 125 1286 125 q 1427 144 1378 125 q 1525 197 1476 163 q 1608 276 1574 232 q 1619 282 1613 282 q 1631 274 1626 282 q 1629 258 1636 265 q 1543 176 1594 213 q 1438 118 1492 139 q 1339 97 1385 97 m 1078 322 q 1038 323 1058 322 q 996 324 1018 324 q 982 338 982 324 q 996 351 982 351 q 1033 351 1014 351 q 1072 350 1053 350 q 1115 351 1093 350 q 1157 358 1136 353 q 1207 381 1185 365 q 1253 429 1229 396 q 1347 554 1300 493 q 1434 663 1394 615 q 1497 732 1474 710 q 1507 736 1501 736 q 1519 728 1514 736 q 1515 713 1524 719 q 1454 644 1493 690 q 1369 537 1415 597 q 1275 413 1322 476 q 1183 338 1232 353 q 1078 322 1135 322 m 1063 385 q 1049 399 1049 385 q 1054 410 1049 406 q 1139 480 1086 436 q 1249 573 1192 524 q 1354 663 1307 622 q 1363 665 1357 665 q 1378 650 1378 665 q 1372 640 1378 646 q 1267 551 1325 600 q 1157 459 1210 503 q 1071 388 1104 415 q 1063 385 1068 385 m 1281 -7 q 1215 6 1251 -7 q 1151 47 1178 18 q 1124 126 1124 76 q 1126 157 1124 142 q 1135 190 1129 172 q 1147 200 1139 200 q 1159 195 1154 200 q 1161 182 1164 190 q 1151 128 1151 153 q 1172 64 1151 88 q 1224 31 1193 40 q 1281 21 1254 21 q 1385 44 1332 21 q 1486 100 1438 68 q 1493 103 1492 103 q 1503 98 1500 103 q 1507 88 1507 93 q 1501 76 1507 81 q 1394 19 1451 44 q 1281 -7 1338 -7 m 1836 1038 q 1802 1040 1814 1038 q 1785 1050 1790 1042 q 1770 1070 1779 1057 q 1756 1093 1761 1083 q 1754 1103 1754 1096 q 1769 1117 1757 1117 q 1781 1110 1778 1117 q 1794 1088 1788 1100 q 1807 1069 1801 1076 q 1816 1067 1810 1068 q 1842 1065 1822 1065 q 1849 1078 1857 1065 q 1826 1109 1840 1090 q 1797 1149 1813 1128 q 1769 1188 1782 1172 q 1750 1211 1756 1203 q 1746 1214 1747 1214 q 1726 1204 1742 1214 q 1694 1183 1721 1200 q 1635 1147 1667 1167 q 1577 1111 1603 1126 q 1547 1093 1551 1096 q 1534 1084 1543 1090 q 1522 1074 1525 1078 q 1531 1069 1519 1069 q 1555 1072 1546 1069 q 1571 1079 1564 1075 q 1601 1095 1578 1083 q 1649 1120 1625 1107 q 1685 1140 1674 1133 q 1697 1144 1692 1144 q 1708 1131 1711 1144 q 1697 1118 1706 1122 q 1660 1097 1686 1111 q 1611 1072 1635 1083 q 1581 1056 1588 1060 q 1525 1042 1554 1042 q 1479 1067 1475 1042 q 1504 1094 1482 1081 l 1714 1226 q 1753 1242 1738 1242 q 1775 1228 1765 1242 l 1818 1168 q 1848 1128 1832 1150 q 1871 1094 1864 1106 q 1876 1069 1879 1083 q 1865 1047 1875 1056 q 1836 1038 1854 1038 m 1883 1204 q 1856 1240 1856 1204 q 1858 1268 1856 1257 q 1871 1290 1860 1279 l 1908 1328 q 1917 1331 1911 1331 q 1927 1327 1922 1331 q 1932 1317 1932 1324 q 1928 1308 1932 1313 l 1893 1274 q 1882 1258 1883 1264 q 1881 1240 1881 1251 q 1883 1232 1881 1232 q 1890 1236 1885 1232 q 1919 1260 1896 1240 q 1970 1303 1942 1279 q 2022 1347 1999 1326 q 2054 1374 2046 1367 q 2055 1374 2054 1374 q 2056 1376 2056 1375 q 2051 1384 2056 1379 q 2031 1400 2046 1389 q 2018 1407 2021 1407 q 2010 1403 2014 1407 q 1980 1370 1996 1388 q 1961 1350 1964 1353 q 1954 1347 1958 1347 q 1944 1352 1949 1347 q 1939 1363 1939 1357 q 1942 1371 1939 1368 q 1968 1398 1953 1382 q 1988 1419 1983 1414 q 2017 1435 2000 1435 q 2047 1422 2033 1435 q 2085 1375 2085 1393 q 2074 1354 2085 1365 q 2040 1325 2064 1346 q 1987 1281 2015 1304 q 1935 1238 1958 1257 q 1907 1214 1913 1218 q 1883 1204 1896 1204 z "},"Ậ":{"ha":1619,"x_min":-74,"x_max":1879,"o":"m 553 714 q 524 733 531 714 q 521 769 518 753 q 587 874 533 831 q 722 946 640 918 q 900 988 803 974 q 1099 1001 997 1001 q 1160 1001 1113 1001 q 1273 996 1207 1000 q 1408 983 1339 992 q 1539 957 1478 974 q 1638 915 1600 940 q 1676 851 1676 889 q 1671 824 1676 836 q 1658 815 1667 815 q 1648 821 1653 815 q 1646 835 1643 826 q 1649 843 1649 839 q 1649 851 1649 847 q 1613 901 1649 881 q 1518 934 1576 921 q 1393 956 1460 947 q 1264 967 1326 964 q 1156 972 1201 971 q 1099 974 1111 974 q 900 960 994 974 q 731 919 806 946 q 608 854 656 893 q 549 764 560 815 q 548 760 549 763 q 547 754 547 757 q 553 742 547 742 q 574 753 563 742 q 592 771 586 764 q 739 872 660 840 q 901 911 818 903 q 1064 919 985 919 q 1253 912 1179 919 q 1371 894 1326 904 q 1443 875 1415 883 q 1453 863 1453 871 q 1447 851 1453 856 q 1435 847 1442 846 q 1365 866 1408 856 q 1250 884 1322 876 q 1064 892 1178 892 q 895 882 975 892 q 742 840 815 872 q 601 740 669 808 q 580 722 592 731 q 553 714 568 714 m 258 -47 q 149 -35 207 -47 q 41 2 92 -24 q -42 70 -10 28 q -74 175 -74 113 q -38 311 -74 249 q 58 424 -3 374 q 194 509 118 474 q 355 563 271 544 q 519 582 439 582 q 590 578 546 582 q 684 563 635 574 q 778 533 733 551 q 850 485 822 514 q 878 415 878 456 q 877 405 878 410 q 875 393 876 400 q 864 368 874 383 q 833 353 854 353 q 801 372 819 353 q 772 400 782 390 q 660 469 721 447 q 528 490 600 490 q 331 463 419 490 q 179 390 243 435 q 81 293 115 344 q 47 193 47 242 q 103 95 47 136 q 279 54 158 54 q 453 88 361 54 q 637 177 544 122 q 813 296 729 232 q 964 418 897 360 q 1027 470 985 436 q 1124 548 1069 504 q 1238 638 1179 592 q 1352 726 1297 683 q 1450 803 1407 769 q 1514 853 1493 836 q 1522 856 1517 856 q 1536 840 1536 856 q 1531 831 1536 835 q 1467 781 1510 814 q 1370 705 1425 747 q 1256 616 1315 663 q 1142 526 1197 569 q 1045 449 1088 483 q 982 397 1003 415 q 831 274 915 339 q 651 153 746 210 q 462 62 557 97 q 279 26 367 26 q 161 41 221 26 q 62 93 101 56 q 22 197 22 131 q 24 220 22 208 q 28 244 25 232 q 95 363 42 311 q 224 449 149 414 q 379 501 299 483 q 528 518 460 518 q 687 488 621 518 q 814 397 753 458 q 824 389 818 394 q 835 381 829 383 q 847 400 843 381 q 849 408 849 404 q 849 417 849 413 q 822 474 849 450 q 753 513 794 497 q 665 537 711 528 q 580 550 619 546 q 519 554 540 554 q 323 527 422 554 q 140 449 224 500 q 6 329 57 399 q -44 176 -44 260 q -17 88 -44 125 q 54 26 10 50 q 152 -8 99 3 q 258 -19 206 -19 q 437 8 347 -19 q 613 79 526 35 q 774 176 699 124 q 908 279 849 228 q 912 281 908 279 q 917 282 915 282 l 1161 282 q 1175 268 1175 282 q 1161 254 1175 254 l 922 254 q 786 150 863 203 q 622 53 710 97 q 442 -19 535 8 q 258 -47 350 -47 m 1339 97 q 1276 119 1294 97 q 1258 172 1258 140 q 1274 253 1258 210 q 1310 333 1290 296 q 1340 389 1329 371 q 1411 500 1368 436 q 1503 631 1454 564 q 1596 753 1553 697 q 1607 758 1600 758 q 1619 751 1614 758 q 1618 736 1625 743 q 1584 693 1611 728 q 1519 608 1557 658 q 1442 497 1482 557 q 1366 376 1401 436 q 1308 263 1331 315 q 1286 176 1286 211 q 1339 125 1286 125 q 1427 144 1378 125 q 1525 197 1476 163 q 1608 276 1574 232 q 1619 282 1613 282 q 1631 274 1626 282 q 1629 258 1636 265 q 1543 176 1594 213 q 1438 118 1492 139 q 1339 97 1385 97 m 1078 322 q 1038 323 1058 322 q 996 324 1018 324 q 982 338 982 324 q 996 351 982 351 q 1033 351 1014 351 q 1072 350 1053 350 q 1115 351 1093 350 q 1157 358 1136 353 q 1207 381 1185 365 q 1253 429 1229 396 q 1347 554 1300 493 q 1434 663 1394 615 q 1497 732 1474 710 q 1507 736 1501 736 q 1519 728 1514 736 q 1515 713 1524 719 q 1454 644 1493 690 q 1369 537 1415 597 q 1275 413 1322 476 q 1183 338 1232 353 q 1078 322 1135 322 m 1063 385 q 1049 399 1049 385 q 1054 410 1049 406 q 1139 480 1086 436 q 1249 573 1192 524 q 1354 663 1307 622 q 1363 665 1357 665 q 1378 650 1378 665 q 1372 640 1378 646 q 1267 551 1325 600 q 1157 459 1210 503 q 1071 388 1104 415 q 1063 385 1068 385 m 1281 -7 q 1215 6 1251 -7 q 1151 47 1178 18 q 1124 126 1124 76 q 1126 157 1124 142 q 1135 190 1129 172 q 1147 200 1139 200 q 1159 195 1154 200 q 1161 182 1164 190 q 1151 128 1151 153 q 1172 64 1151 88 q 1224 31 1193 40 q 1281 21 1254 21 q 1385 44 1332 21 q 1486 100 1438 68 q 1493 103 1492 103 q 1503 98 1500 103 q 1507 88 1507 93 q 1501 76 1507 81 q 1394 19 1451 44 q 1281 -7 1338 -7 m 771 -199 q 744 -146 744 -176 q 763 -100 744 -118 q 808 -82 782 -82 q 855 -100 836 -82 q 874 -146 874 -118 q 856 -190 874 -172 q 846 -194 851 -194 q 834 -187 839 -194 q 836 -171 829 -179 q 846 -146 846 -158 q 835 -120 846 -131 q 810 -110 825 -110 q 783 -120 794 -110 q 772 -146 772 -131 q 788 -175 772 -167 q 793 -186 793 -179 q 786 -199 793 -193 q 771 -199 779 -204 m 1836 1038 q 1802 1040 1814 1038 q 1785 1050 1790 1042 q 1770 1070 1779 1057 q 1756 1093 1761 1083 q 1754 1103 1754 1096 q 1769 1117 1757 1117 q 1781 1110 1778 1117 q 1794 1088 1788 1100 q 1807 1069 1801 1076 q 1816 1067 1810 1068 q 1842 1065 1822 1065 q 1849 1078 1857 1065 q 1826 1109 1840 1090 q 1797 1149 1813 1128 q 1769 1188 1782 1172 q 1750 1211 1756 1203 q 1746 1214 1747 1214 q 1726 1204 1742 1214 q 1694 1183 1721 1200 q 1635 1147 1667 1167 q 1577 1111 1603 1126 q 1547 1093 1551 1096 q 1534 1084 1543 1090 q 1522 1074 1525 1078 q 1531 1069 1519 1069 q 1555 1072 1546 1069 q 1571 1079 1564 1075 q 1601 1095 1578 1083 q 1649 1120 1625 1107 q 1685 1140 1674 1133 q 1697 1144 1692 1144 q 1708 1131 1711 1144 q 1697 1118 1706 1122 q 1660 1097 1686 1111 q 1611 1072 1635 1083 q 1581 1056 1588 1060 q 1525 1042 1554 1042 q 1479 1067 1475 1042 q 1504 1094 1482 1081 l 1714 1226 q 1753 1242 1738 1242 q 1775 1228 1765 1242 l 1818 1168 q 1848 1128 1832 1150 q 1871 1094 1864 1106 q 1876 1069 1879 1083 q 1865 1047 1875 1056 q 1836 1038 1854 1038 z "},"Ầ":{"ha":1619,"x_min":-74,"x_max":1925,"o":"m 553 714 q 524 733 531 714 q 521 769 518 753 q 587 874 533 831 q 722 946 640 918 q 900 988 803 974 q 1099 1001 997 1001 q 1160 1001 1113 1001 q 1273 996 1207 1000 q 1408 983 1339 992 q 1539 957 1478 974 q 1638 915 1600 940 q 1676 851 1676 889 q 1671 824 1676 836 q 1658 815 1667 815 q 1648 821 1653 815 q 1646 835 1643 826 q 1649 843 1649 839 q 1649 851 1649 847 q 1613 901 1649 881 q 1518 934 1576 921 q 1393 956 1460 947 q 1264 967 1326 964 q 1156 972 1201 971 q 1099 974 1111 974 q 900 960 994 974 q 731 919 806 946 q 608 854 656 893 q 549 764 560 815 q 548 760 549 763 q 547 754 547 757 q 553 742 547 742 q 574 753 563 742 q 592 771 586 764 q 739 872 660 840 q 901 911 818 903 q 1064 919 985 919 q 1253 912 1179 919 q 1371 894 1326 904 q 1443 875 1415 883 q 1453 863 1453 871 q 1447 851 1453 856 q 1435 847 1442 846 q 1365 866 1408 856 q 1250 884 1322 876 q 1064 892 1178 892 q 895 882 975 892 q 742 840 815 872 q 601 740 669 808 q 580 722 592 731 q 553 714 568 714 m 258 -47 q 149 -35 207 -47 q 41 2 92 -24 q -42 70 -10 28 q -74 175 -74 113 q -38 311 -74 249 q 58 424 -3 374 q 194 509 118 474 q 355 563 271 544 q 519 582 439 582 q 590 578 546 582 q 684 563 635 574 q 778 533 733 551 q 850 485 822 514 q 878 415 878 456 q 877 405 878 410 q 875 393 876 400 q 864 368 874 383 q 833 353 854 353 q 801 372 819 353 q 772 400 782 390 q 660 469 721 447 q 528 490 600 490 q 331 463 419 490 q 179 390 243 435 q 81 293 115 344 q 47 193 47 242 q 103 95 47 136 q 279 54 158 54 q 453 88 361 54 q 637 177 544 122 q 813 296 729 232 q 964 418 897 360 q 1027 470 985 436 q 1124 548 1069 504 q 1238 638 1179 592 q 1352 726 1297 683 q 1450 803 1407 769 q 1514 853 1493 836 q 1522 856 1517 856 q 1536 840 1536 856 q 1531 831 1536 835 q 1467 781 1510 814 q 1370 705 1425 747 q 1256 616 1315 663 q 1142 526 1197 569 q 1045 449 1088 483 q 982 397 1003 415 q 831 274 915 339 q 651 153 746 210 q 462 62 557 97 q 279 26 367 26 q 161 41 221 26 q 62 93 101 56 q 22 197 22 131 q 24 220 22 208 q 28 244 25 232 q 95 363 42 311 q 224 449 149 414 q 379 501 299 483 q 528 518 460 518 q 687 488 621 518 q 814 397 753 458 q 824 389 818 394 q 835 381 829 383 q 847 400 843 381 q 849 408 849 404 q 849 417 849 413 q 822 474 849 450 q 753 513 794 497 q 665 537 711 528 q 580 550 619 546 q 519 554 540 554 q 323 527 422 554 q 140 449 224 500 q 6 329 57 399 q -44 176 -44 260 q -17 88 -44 125 q 54 26 10 50 q 152 -8 99 3 q 258 -19 206 -19 q 437 8 347 -19 q 613 79 526 35 q 774 176 699 124 q 908 279 849 228 q 912 281 908 279 q 917 282 915 282 l 1161 282 q 1175 268 1175 282 q 1161 254 1175 254 l 922 254 q 786 150 863 203 q 622 53 710 97 q 442 -19 535 8 q 258 -47 350 -47 m 1339 97 q 1276 119 1294 97 q 1258 172 1258 140 q 1274 253 1258 210 q 1310 333 1290 296 q 1340 389 1329 371 q 1411 500 1368 436 q 1503 631 1454 564 q 1596 753 1553 697 q 1607 758 1600 758 q 1619 751 1614 758 q 1618 736 1625 743 q 1584 693 1611 728 q 1519 608 1557 658 q 1442 497 1482 557 q 1366 376 1401 436 q 1308 263 1331 315 q 1286 176 1286 211 q 1339 125 1286 125 q 1427 144 1378 125 q 1525 197 1476 163 q 1608 276 1574 232 q 1619 282 1613 282 q 1631 274 1626 282 q 1629 258 1636 265 q 1543 176 1594 213 q 1438 118 1492 139 q 1339 97 1385 97 m 1078 322 q 1038 323 1058 322 q 996 324 1018 324 q 982 338 982 324 q 996 351 982 351 q 1033 351 1014 351 q 1072 350 1053 350 q 1115 351 1093 350 q 1157 358 1136 353 q 1207 381 1185 365 q 1253 429 1229 396 q 1347 554 1300 493 q 1434 663 1394 615 q 1497 732 1474 710 q 1507 736 1501 736 q 1519 728 1514 736 q 1515 713 1524 719 q 1454 644 1493 690 q 1369 537 1415 597 q 1275 413 1322 476 q 1183 338 1232 353 q 1078 322 1135 322 m 1063 385 q 1049 399 1049 385 q 1054 410 1049 406 q 1139 480 1086 436 q 1249 573 1192 524 q 1354 663 1307 622 q 1363 665 1357 665 q 1378 650 1378 665 q 1372 640 1378 646 q 1267 551 1325 600 q 1157 459 1210 503 q 1071 388 1104 415 q 1063 385 1068 385 m 1281 -7 q 1215 6 1251 -7 q 1151 47 1178 18 q 1124 126 1124 76 q 1126 157 1124 142 q 1135 190 1129 172 q 1147 200 1139 200 q 1159 195 1154 200 q 1161 182 1164 190 q 1151 128 1151 153 q 1172 64 1151 88 q 1224 31 1193 40 q 1281 21 1254 21 q 1385 44 1332 21 q 1486 100 1438 68 q 1493 103 1492 103 q 1503 98 1500 103 q 1507 88 1507 93 q 1501 76 1507 81 q 1394 19 1451 44 q 1281 -7 1338 -7 m 1836 1038 q 1802 1040 1814 1038 q 1785 1050 1790 1042 q 1770 1070 1779 1057 q 1756 1093 1761 1083 q 1754 1103 1754 1096 q 1769 1117 1757 1117 q 1781 1110 1778 1117 q 1794 1088 1788 1100 q 1807 1069 1801 1076 q 1816 1067 1810 1068 q 1842 1065 1822 1065 q 1849 1078 1857 1065 q 1826 1109 1840 1090 q 1797 1149 1813 1128 q 1769 1188 1782 1172 q 1750 1211 1756 1203 q 1746 1214 1747 1214 q 1726 1204 1742 1214 q 1694 1183 1721 1200 q 1635 1147 1667 1167 q 1577 1111 1603 1126 q 1547 1093 1551 1096 q 1534 1084 1543 1090 q 1522 1074 1525 1078 q 1531 1069 1519 1069 q 1555 1072 1546 1069 q 1571 1079 1564 1075 q 1601 1095 1578 1083 q 1649 1120 1625 1107 q 1685 1140 1674 1133 q 1697 1144 1692 1144 q 1708 1131 1711 1144 q 1697 1118 1706 1122 q 1660 1097 1686 1111 q 1611 1072 1635 1083 q 1581 1056 1588 1060 q 1525 1042 1554 1042 q 1479 1067 1475 1042 q 1504 1094 1482 1081 l 1714 1226 q 1753 1242 1738 1242 q 1775 1228 1765 1242 l 1818 1168 q 1848 1128 1832 1150 q 1871 1094 1864 1106 q 1876 1069 1879 1083 q 1865 1047 1875 1056 q 1836 1038 1854 1038 m 1897 1199 q 1874 1208 1885 1199 q 1845 1232 1868 1213 q 1794 1275 1822 1251 q 1741 1319 1765 1299 q 1707 1349 1717 1340 q 1696 1369 1696 1360 q 1733 1417 1696 1388 q 1764 1429 1749 1429 q 1793 1414 1781 1429 q 1813 1392 1797 1408 q 1839 1365 1829 1376 q 1842 1357 1842 1363 q 1834 1344 1842 1350 q 1819 1344 1826 1339 q 1801 1365 1817 1347 q 1771 1397 1785 1382 q 1763 1401 1767 1401 q 1750 1394 1760 1401 q 1728 1376 1732 1381 q 1726 1368 1725 1371 q 1758 1341 1735 1361 q 1810 1297 1782 1321 q 1862 1254 1839 1274 q 1890 1231 1885 1235 q 1898 1226 1896 1226 q 1900 1235 1900 1226 q 1899 1252 1900 1246 q 1888 1268 1897 1258 l 1853 1303 q 1849 1311 1849 1307 q 1858 1324 1849 1319 q 1872 1322 1867 1329 l 1910 1285 q 1923 1263 1921 1274 q 1925 1235 1925 1251 q 1897 1199 1925 1199 z "},"Ẩ":{"ha":1619,"x_min":-74,"x_max":2081,"o":"m 553 714 q 524 733 531 714 q 521 769 518 753 q 587 874 533 831 q 722 946 640 918 q 900 988 803 974 q 1099 1001 997 1001 q 1160 1001 1113 1001 q 1273 996 1207 1000 q 1408 983 1339 992 q 1539 957 1478 974 q 1638 915 1600 940 q 1676 851 1676 889 q 1671 824 1676 836 q 1658 815 1667 815 q 1648 821 1653 815 q 1646 835 1643 826 q 1649 843 1649 839 q 1649 851 1649 847 q 1613 901 1649 881 q 1518 934 1576 921 q 1393 956 1460 947 q 1264 967 1326 964 q 1156 972 1201 971 q 1099 974 1111 974 q 900 960 994 974 q 731 919 806 946 q 608 854 656 893 q 549 764 560 815 q 548 760 549 763 q 547 754 547 757 q 553 742 547 742 q 574 753 563 742 q 592 771 586 764 q 739 872 660 840 q 901 911 818 903 q 1064 919 985 919 q 1253 912 1179 919 q 1371 894 1326 904 q 1443 875 1415 883 q 1453 863 1453 871 q 1447 851 1453 856 q 1435 847 1442 846 q 1365 866 1408 856 q 1250 884 1322 876 q 1064 892 1178 892 q 895 882 975 892 q 742 840 815 872 q 601 740 669 808 q 580 722 592 731 q 553 714 568 714 m 258 -47 q 149 -35 207 -47 q 41 2 92 -24 q -42 70 -10 28 q -74 175 -74 113 q -38 311 -74 249 q 58 424 -3 374 q 194 509 118 474 q 355 563 271 544 q 519 582 439 582 q 590 578 546 582 q 684 563 635 574 q 778 533 733 551 q 850 485 822 514 q 878 415 878 456 q 877 405 878 410 q 875 393 876 400 q 864 368 874 383 q 833 353 854 353 q 801 372 819 353 q 772 400 782 390 q 660 469 721 447 q 528 490 600 490 q 331 463 419 490 q 179 390 243 435 q 81 293 115 344 q 47 193 47 242 q 103 95 47 136 q 279 54 158 54 q 453 88 361 54 q 637 177 544 122 q 813 296 729 232 q 964 418 897 360 q 1027 470 985 436 q 1124 548 1069 504 q 1238 638 1179 592 q 1352 726 1297 683 q 1450 803 1407 769 q 1514 853 1493 836 q 1522 856 1517 856 q 1536 840 1536 856 q 1531 831 1536 835 q 1467 781 1510 814 q 1370 705 1425 747 q 1256 616 1315 663 q 1142 526 1197 569 q 1045 449 1088 483 q 982 397 1003 415 q 831 274 915 339 q 651 153 746 210 q 462 62 557 97 q 279 26 367 26 q 161 41 221 26 q 62 93 101 56 q 22 197 22 131 q 24 220 22 208 q 28 244 25 232 q 95 363 42 311 q 224 449 149 414 q 379 501 299 483 q 528 518 460 518 q 687 488 621 518 q 814 397 753 458 q 824 389 818 394 q 835 381 829 383 q 847 400 843 381 q 849 408 849 404 q 849 417 849 413 q 822 474 849 450 q 753 513 794 497 q 665 537 711 528 q 580 550 619 546 q 519 554 540 554 q 323 527 422 554 q 140 449 224 500 q 6 329 57 399 q -44 176 -44 260 q -17 88 -44 125 q 54 26 10 50 q 152 -8 99 3 q 258 -19 206 -19 q 437 8 347 -19 q 613 79 526 35 q 774 176 699 124 q 908 279 849 228 q 912 281 908 279 q 917 282 915 282 l 1161 282 q 1175 268 1175 282 q 1161 254 1175 254 l 922 254 q 786 150 863 203 q 622 53 710 97 q 442 -19 535 8 q 258 -47 350 -47 m 1339 97 q 1276 119 1294 97 q 1258 172 1258 140 q 1274 253 1258 210 q 1310 333 1290 296 q 1340 389 1329 371 q 1411 500 1368 436 q 1503 631 1454 564 q 1596 753 1553 697 q 1607 758 1600 758 q 1619 751 1614 758 q 1618 736 1625 743 q 1584 693 1611 728 q 1519 608 1557 658 q 1442 497 1482 557 q 1366 376 1401 436 q 1308 263 1331 315 q 1286 176 1286 211 q 1339 125 1286 125 q 1427 144 1378 125 q 1525 197 1476 163 q 1608 276 1574 232 q 1619 282 1613 282 q 1631 274 1626 282 q 1629 258 1636 265 q 1543 176 1594 213 q 1438 118 1492 139 q 1339 97 1385 97 m 1078 322 q 1038 323 1058 322 q 996 324 1018 324 q 982 338 982 324 q 996 351 982 351 q 1033 351 1014 351 q 1072 350 1053 350 q 1115 351 1093 350 q 1157 358 1136 353 q 1207 381 1185 365 q 1253 429 1229 396 q 1347 554 1300 493 q 1434 663 1394 615 q 1497 732 1474 710 q 1507 736 1501 736 q 1519 728 1514 736 q 1515 713 1524 719 q 1454 644 1493 690 q 1369 537 1415 597 q 1275 413 1322 476 q 1183 338 1232 353 q 1078 322 1135 322 m 1063 385 q 1049 399 1049 385 q 1054 410 1049 406 q 1139 480 1086 436 q 1249 573 1192 524 q 1354 663 1307 622 q 1363 665 1357 665 q 1378 650 1378 665 q 1372 640 1378 646 q 1267 551 1325 600 q 1157 459 1210 503 q 1071 388 1104 415 q 1063 385 1068 385 m 1281 -7 q 1215 6 1251 -7 q 1151 47 1178 18 q 1124 126 1124 76 q 1126 157 1124 142 q 1135 190 1129 172 q 1147 200 1139 200 q 1159 195 1154 200 q 1161 182 1164 190 q 1151 128 1151 153 q 1172 64 1151 88 q 1224 31 1193 40 q 1281 21 1254 21 q 1385 44 1332 21 q 1486 100 1438 68 q 1493 103 1492 103 q 1503 98 1500 103 q 1507 88 1507 93 q 1501 76 1507 81 q 1394 19 1451 44 q 1281 -7 1338 -7 m 1836 1038 q 1802 1040 1814 1038 q 1785 1050 1790 1042 q 1770 1070 1779 1057 q 1756 1093 1761 1083 q 1754 1103 1754 1096 q 1769 1117 1757 1117 q 1781 1110 1778 1117 q 1794 1088 1788 1100 q 1807 1069 1801 1076 q 1816 1067 1810 1068 q 1842 1065 1822 1065 q 1849 1078 1857 1065 q 1826 1109 1840 1090 q 1797 1149 1813 1128 q 1769 1188 1782 1172 q 1750 1211 1756 1203 q 1746 1214 1747 1214 q 1726 1204 1742 1214 q 1694 1183 1721 1200 q 1635 1147 1667 1167 q 1577 1111 1603 1126 q 1547 1093 1551 1096 q 1534 1084 1543 1090 q 1522 1074 1525 1078 q 1531 1069 1519 1069 q 1555 1072 1546 1069 q 1571 1079 1564 1075 q 1601 1095 1578 1083 q 1649 1120 1625 1107 q 1685 1140 1674 1133 q 1697 1144 1692 1144 q 1708 1131 1711 1144 q 1697 1118 1706 1122 q 1660 1097 1686 1111 q 1611 1072 1635 1083 q 1581 1056 1588 1060 q 1525 1042 1554 1042 q 1479 1067 1475 1042 q 1504 1094 1482 1081 l 1714 1226 q 1753 1242 1738 1242 q 1775 1228 1765 1242 l 1818 1168 q 1848 1128 1832 1150 q 1871 1094 1864 1106 q 1876 1069 1879 1083 q 1865 1047 1875 1056 q 1836 1038 1854 1038 m 1888 1189 q 1869 1194 1876 1189 q 1864 1206 1863 1199 q 1875 1228 1865 1221 q 1916 1263 1901 1250 q 1940 1289 1931 1275 q 1949 1306 1947 1300 q 1951 1311 1951 1311 q 1936 1329 1956 1329 q 1881 1319 1907 1329 q 1861 1315 1868 1315 q 1845 1324 1847 1315 q 1849 1346 1843 1333 q 1873 1378 1856 1365 q 1924 1399 1890 1390 l 1931 1400 q 1939 1390 1942 1400 q 1935 1383 1938 1388 q 1922 1375 1932 1378 q 1872 1342 1872 1361 q 1947 1357 1918 1357 q 1985 1324 1992 1357 q 1982 1311 1985 1319 q 1977 1300 1981 1306 q 1968 1288 1974 1294 q 1939 1251 1951 1264 q 1899 1217 1926 1238 q 1919 1226 1906 1218 q 1948 1242 1933 1233 q 1968 1257 1963 1251 q 2009 1299 1988 1274 q 2036 1342 2031 1325 q 2000 1385 2054 1385 l 1964 1385 q 1953 1393 1951 1385 q 1976 1410 1956 1406 q 1993 1412 1985 1411 q 2010 1413 2001 1413 q 2069 1358 2081 1413 q 1983 1240 2061 1310 q 1954 1219 1974 1231 q 1916 1198 1935 1207 q 1888 1189 1897 1189 z "},"Ẫ":{"ha":1619,"x_min":-74,"x_max":1975,"o":"m 553 714 q 524 733 531 714 q 521 769 518 753 q 587 874 533 831 q 722 946 640 918 q 900 988 803 974 q 1099 1001 997 1001 q 1160 1001 1113 1001 q 1273 996 1207 1000 q 1408 983 1339 992 q 1539 957 1478 974 q 1638 915 1600 940 q 1676 851 1676 889 q 1671 824 1676 836 q 1658 815 1667 815 q 1648 821 1653 815 q 1646 835 1643 826 q 1649 843 1649 839 q 1649 851 1649 847 q 1613 901 1649 881 q 1518 934 1576 921 q 1393 956 1460 947 q 1264 967 1326 964 q 1156 972 1201 971 q 1099 974 1111 974 q 900 960 994 974 q 731 919 806 946 q 608 854 656 893 q 549 764 560 815 q 548 760 549 763 q 547 754 547 757 q 553 742 547 742 q 574 753 563 742 q 592 771 586 764 q 739 872 660 840 q 901 911 818 903 q 1064 919 985 919 q 1253 912 1179 919 q 1371 894 1326 904 q 1443 875 1415 883 q 1453 863 1453 871 q 1447 851 1453 856 q 1435 847 1442 846 q 1365 866 1408 856 q 1250 884 1322 876 q 1064 892 1178 892 q 895 882 975 892 q 742 840 815 872 q 601 740 669 808 q 580 722 592 731 q 553 714 568 714 m 258 -47 q 149 -35 207 -47 q 41 2 92 -24 q -42 70 -10 28 q -74 175 -74 113 q -38 311 -74 249 q 58 424 -3 374 q 194 509 118 474 q 355 563 271 544 q 519 582 439 582 q 590 578 546 582 q 684 563 635 574 q 778 533 733 551 q 850 485 822 514 q 878 415 878 456 q 877 405 878 410 q 875 393 876 400 q 864 368 874 383 q 833 353 854 353 q 801 372 819 353 q 772 400 782 390 q 660 469 721 447 q 528 490 600 490 q 331 463 419 490 q 179 390 243 435 q 81 293 115 344 q 47 193 47 242 q 103 95 47 136 q 279 54 158 54 q 453 88 361 54 q 637 177 544 122 q 813 296 729 232 q 964 418 897 360 q 1027 470 985 436 q 1124 548 1069 504 q 1238 638 1179 592 q 1352 726 1297 683 q 1450 803 1407 769 q 1514 853 1493 836 q 1522 856 1517 856 q 1536 840 1536 856 q 1531 831 1536 835 q 1467 781 1510 814 q 1370 705 1425 747 q 1256 616 1315 663 q 1142 526 1197 569 q 1045 449 1088 483 q 982 397 1003 415 q 831 274 915 339 q 651 153 746 210 q 462 62 557 97 q 279 26 367 26 q 161 41 221 26 q 62 93 101 56 q 22 197 22 131 q 24 220 22 208 q 28 244 25 232 q 95 363 42 311 q 224 449 149 414 q 379 501 299 483 q 528 518 460 518 q 687 488 621 518 q 814 397 753 458 q 824 389 818 394 q 835 381 829 383 q 847 400 843 381 q 849 408 849 404 q 849 417 849 413 q 822 474 849 450 q 753 513 794 497 q 665 537 711 528 q 580 550 619 546 q 519 554 540 554 q 323 527 422 554 q 140 449 224 500 q 6 329 57 399 q -44 176 -44 260 q -17 88 -44 125 q 54 26 10 50 q 152 -8 99 3 q 258 -19 206 -19 q 437 8 347 -19 q 613 79 526 35 q 774 176 699 124 q 908 279 849 228 q 912 281 908 279 q 917 282 915 282 l 1161 282 q 1175 268 1175 282 q 1161 254 1175 254 l 922 254 q 786 150 863 203 q 622 53 710 97 q 442 -19 535 8 q 258 -47 350 -47 m 1339 97 q 1276 119 1294 97 q 1258 172 1258 140 q 1274 253 1258 210 q 1310 333 1290 296 q 1340 389 1329 371 q 1411 500 1368 436 q 1503 631 1454 564 q 1596 753 1553 697 q 1607 758 1600 758 q 1619 751 1614 758 q 1618 736 1625 743 q 1584 693 1611 728 q 1519 608 1557 658 q 1442 497 1482 557 q 1366 376 1401 436 q 1308 263 1331 315 q 1286 176 1286 211 q 1339 125 1286 125 q 1427 144 1378 125 q 1525 197 1476 163 q 1608 276 1574 232 q 1619 282 1613 282 q 1631 274 1626 282 q 1629 258 1636 265 q 1543 176 1594 213 q 1438 118 1492 139 q 1339 97 1385 97 m 1078 322 q 1038 323 1058 322 q 996 324 1018 324 q 982 338 982 324 q 996 351 982 351 q 1033 351 1014 351 q 1072 350 1053 350 q 1115 351 1093 350 q 1157 358 1136 353 q 1207 381 1185 365 q 1253 429 1229 396 q 1347 554 1300 493 q 1434 663 1394 615 q 1497 732 1474 710 q 1507 736 1501 736 q 1519 728 1514 736 q 1515 713 1524 719 q 1454 644 1493 690 q 1369 537 1415 597 q 1275 413 1322 476 q 1183 338 1232 353 q 1078 322 1135 322 m 1063 385 q 1049 399 1049 385 q 1054 410 1049 406 q 1139 480 1086 436 q 1249 573 1192 524 q 1354 663 1307 622 q 1363 665 1357 665 q 1378 650 1378 665 q 1372 640 1378 646 q 1267 551 1325 600 q 1157 459 1210 503 q 1071 388 1104 415 q 1063 385 1068 385 m 1281 -7 q 1215 6 1251 -7 q 1151 47 1178 18 q 1124 126 1124 76 q 1126 157 1124 142 q 1135 190 1129 172 q 1147 200 1139 200 q 1159 195 1154 200 q 1161 182 1164 190 q 1151 128 1151 153 q 1172 64 1151 88 q 1224 31 1193 40 q 1281 21 1254 21 q 1385 44 1332 21 q 1486 100 1438 68 q 1493 103 1492 103 q 1503 98 1500 103 q 1507 88 1507 93 q 1501 76 1507 81 q 1394 19 1451 44 q 1281 -7 1338 -7 m 1836 1038 q 1802 1040 1814 1038 q 1785 1050 1790 1042 q 1770 1070 1779 1057 q 1756 1093 1761 1083 q 1754 1103 1754 1096 q 1769 1117 1757 1117 q 1781 1110 1778 1117 q 1794 1088 1788 1100 q 1807 1069 1801 1076 q 1816 1067 1810 1068 q 1842 1065 1822 1065 q 1849 1078 1857 1065 q 1826 1109 1840 1090 q 1797 1149 1813 1128 q 1769 1188 1782 1172 q 1750 1211 1756 1203 q 1746 1214 1747 1214 q 1726 1204 1742 1214 q 1694 1183 1721 1200 q 1635 1147 1667 1167 q 1577 1111 1603 1126 q 1547 1093 1551 1096 q 1534 1084 1543 1090 q 1522 1074 1525 1078 q 1531 1069 1519 1069 q 1555 1072 1546 1069 q 1571 1079 1564 1075 q 1601 1095 1578 1083 q 1649 1120 1625 1107 q 1685 1140 1674 1133 q 1697 1144 1692 1144 q 1708 1131 1711 1144 q 1697 1118 1706 1122 q 1660 1097 1686 1111 q 1611 1072 1635 1083 q 1581 1056 1588 1060 q 1525 1042 1554 1042 q 1479 1067 1475 1042 q 1504 1094 1482 1081 l 1714 1226 q 1753 1242 1738 1242 q 1775 1228 1765 1242 l 1818 1168 q 1848 1128 1832 1150 q 1871 1094 1864 1106 q 1876 1069 1879 1083 q 1865 1047 1875 1056 q 1836 1038 1854 1038 m 1851 1260 q 1803 1268 1826 1260 q 1765 1285 1779 1276 q 1704 1304 1739 1304 q 1674 1297 1685 1304 q 1650 1279 1664 1290 q 1617 1265 1635 1265 q 1588 1276 1600 1265 q 1576 1304 1576 1288 q 1594 1342 1576 1324 q 1607 1347 1600 1347 q 1619 1335 1619 1347 q 1614 1322 1619 1328 q 1604 1304 1604 1313 q 1615 1293 1604 1293 q 1633 1301 1624 1293 q 1660 1321 1644 1310 q 1704 1332 1676 1332 q 1747 1324 1725 1332 q 1782 1308 1769 1317 q 1814 1294 1794 1300 q 1851 1288 1833 1288 q 1899 1303 1879 1288 q 1931 1336 1919 1318 q 1946 1361 1943 1354 q 1949 1372 1949 1369 q 1943 1381 1949 1381 q 1932 1375 1938 1381 q 1861 1340 1897 1340 q 1821 1347 1843 1340 q 1785 1361 1799 1354 q 1749 1376 1769 1369 q 1711 1382 1728 1382 q 1682 1378 1693 1382 q 1657 1363 1671 1374 q 1646 1358 1651 1358 q 1633 1372 1633 1358 q 1640 1385 1633 1382 q 1711 1410 1671 1410 q 1758 1402 1733 1410 q 1797 1386 1783 1394 q 1830 1374 1811 1379 q 1861 1368 1849 1368 q 1913 1394 1886 1368 q 1943 1408 1926 1408 q 1966 1398 1957 1408 q 1975 1371 1975 1388 q 1971 1350 1975 1361 q 1953 1321 1968 1343 q 1913 1279 1939 1299 q 1851 1260 1888 1260 z "},"Ȁ":{"ha":1619,"x_min":-74,"x_max":1756,"o":"m 1717 1039 q 1696 1054 1704 1042 q 1674 1081 1690 1060 q 1638 1130 1658 1103 q 1599 1180 1617 1157 q 1574 1214 1581 1203 q 1568 1236 1565 1226 q 1615 1274 1572 1254 q 1647 1279 1632 1283 q 1672 1258 1663 1275 q 1682 1240 1675 1251 q 1697 1215 1689 1229 q 1697 1207 1699 1211 q 1687 1195 1696 1199 q 1674 1199 1678 1192 q 1647 1246 1667 1210 q 1640 1253 1644 1251 q 1626 1249 1636 1253 q 1600 1235 1604 1239 q 1597 1228 1596 1231 q 1622 1197 1604 1219 q 1659 1147 1639 1174 q 1696 1099 1679 1121 q 1717 1072 1713 1078 q 1723 1067 1721 1067 q 1726 1074 1725 1067 q 1729 1092 1729 1085 q 1722 1110 1729 1099 l 1696 1151 q 1694 1160 1693 1156 q 1706 1171 1696 1168 q 1719 1165 1715 1174 l 1747 1121 q 1756 1096 1756 1107 q 1751 1068 1756 1085 q 1717 1039 1743 1033 m 1596 1042 q 1572 1051 1583 1042 q 1546 1073 1567 1056 q 1499 1112 1525 1090 q 1450 1152 1472 1133 q 1418 1179 1428 1171 q 1407 1200 1407 1190 q 1444 1247 1407 1218 q 1475 1260 1460 1260 q 1504 1244 1492 1260 q 1518 1229 1508 1239 q 1538 1208 1528 1219 q 1540 1200 1540 1206 q 1533 1188 1540 1193 q 1518 1188 1525 1182 q 1482 1228 1510 1197 q 1474 1232 1478 1232 q 1461 1225 1471 1232 q 1440 1206 1443 1211 q 1438 1199 1436 1201 q 1468 1173 1446 1192 q 1516 1133 1490 1154 q 1563 1095 1542 1113 q 1589 1074 1583 1078 q 1597 1069 1594 1069 q 1599 1078 1599 1069 q 1597 1095 1599 1089 q 1586 1111 1596 1101 l 1551 1146 q 1547 1154 1547 1150 q 1556 1167 1547 1163 q 1571 1165 1565 1172 l 1608 1128 q 1622 1106 1619 1117 q 1624 1078 1624 1094 q 1596 1042 1624 1042 m 553 714 q 524 733 531 714 q 521 769 518 753 q 587 874 533 831 q 722 946 640 918 q 900 988 803 974 q 1099 1001 997 1001 q 1160 1001 1113 1001 q 1273 996 1207 1000 q 1408 983 1339 992 q 1539 957 1478 974 q 1638 915 1600 940 q 1676 851 1676 889 q 1671 824 1676 836 q 1658 815 1667 815 q 1648 821 1653 815 q 1646 835 1643 826 q 1649 843 1649 839 q 1649 851 1649 847 q 1613 901 1649 881 q 1518 934 1576 921 q 1393 956 1460 947 q 1264 967 1326 964 q 1156 972 1201 971 q 1099 974 1111 974 q 900 960 994 974 q 731 919 806 946 q 608 854 656 893 q 549 764 560 815 q 548 760 549 763 q 547 754 547 757 q 553 742 547 742 q 574 753 563 742 q 592 771 586 764 q 739 872 660 840 q 901 911 818 903 q 1064 919 985 919 q 1253 912 1179 919 q 1371 894 1326 904 q 1443 875 1415 883 q 1453 863 1453 871 q 1447 851 1453 856 q 1435 847 1442 846 q 1365 866 1408 856 q 1250 884 1322 876 q 1064 892 1178 892 q 895 882 975 892 q 742 840 815 872 q 601 740 669 808 q 580 722 592 731 q 553 714 568 714 m 258 -47 q 149 -35 207 -47 q 41 2 92 -24 q -42 70 -10 28 q -74 175 -74 113 q -38 311 -74 249 q 58 424 -3 374 q 194 509 118 474 q 355 563 271 544 q 519 582 439 582 q 590 578 546 582 q 684 563 635 574 q 778 533 733 551 q 850 485 822 514 q 878 415 878 456 q 877 405 878 410 q 875 393 876 400 q 864 368 874 383 q 833 353 854 353 q 801 372 819 353 q 772 400 782 390 q 660 469 721 447 q 528 490 600 490 q 331 463 419 490 q 179 390 243 435 q 81 293 115 344 q 47 193 47 242 q 103 95 47 136 q 279 54 158 54 q 453 88 361 54 q 637 177 544 122 q 813 296 729 232 q 964 418 897 360 q 1027 470 985 436 q 1124 548 1069 504 q 1238 638 1179 592 q 1352 726 1297 683 q 1450 803 1407 769 q 1514 853 1493 836 q 1522 856 1517 856 q 1536 840 1536 856 q 1531 831 1536 835 q 1467 781 1510 814 q 1370 705 1425 747 q 1256 616 1315 663 q 1142 526 1197 569 q 1045 449 1088 483 q 982 397 1003 415 q 831 274 915 339 q 651 153 746 210 q 462 62 557 97 q 279 26 367 26 q 161 41 221 26 q 62 93 101 56 q 22 197 22 131 q 24 220 22 208 q 28 244 25 232 q 95 363 42 311 q 224 449 149 414 q 379 501 299 483 q 528 518 460 518 q 687 488 621 518 q 814 397 753 458 q 824 389 818 394 q 835 381 829 383 q 847 400 843 381 q 849 408 849 404 q 849 417 849 413 q 822 474 849 450 q 753 513 794 497 q 665 537 711 528 q 580 550 619 546 q 519 554 540 554 q 323 527 422 554 q 140 449 224 500 q 6 329 57 399 q -44 176 -44 260 q -17 88 -44 125 q 54 26 10 50 q 152 -8 99 3 q 258 -19 206 -19 q 437 8 347 -19 q 613 79 526 35 q 774 176 699 124 q 908 279 849 228 q 912 281 908 279 q 917 282 915 282 l 1161 282 q 1175 268 1175 282 q 1161 254 1175 254 l 922 254 q 786 150 863 203 q 622 53 710 97 q 442 -19 535 8 q 258 -47 350 -47 m 1339 97 q 1276 119 1294 97 q 1258 172 1258 140 q 1274 253 1258 210 q 1310 333 1290 296 q 1340 389 1329 371 q 1411 500 1368 436 q 1503 631 1454 564 q 1596 753 1553 697 q 1607 758 1600 758 q 1619 751 1614 758 q 1618 736 1625 743 q 1584 693 1611 728 q 1519 608 1557 658 q 1442 497 1482 557 q 1366 376 1401 436 q 1308 263 1331 315 q 1286 176 1286 211 q 1339 125 1286 125 q 1427 144 1378 125 q 1525 197 1476 163 q 1608 276 1574 232 q 1619 282 1613 282 q 1631 274 1626 282 q 1629 258 1636 265 q 1543 176 1594 213 q 1438 118 1492 139 q 1339 97 1385 97 m 1078 322 q 1038 323 1058 322 q 996 324 1018 324 q 982 338 982 324 q 996 351 982 351 q 1033 351 1014 351 q 1072 350 1053 350 q 1115 351 1093 350 q 1157 358 1136 353 q 1207 381 1185 365 q 1253 429 1229 396 q 1347 554 1300 493 q 1434 663 1394 615 q 1497 732 1474 710 q 1507 736 1501 736 q 1519 728 1514 736 q 1515 713 1524 719 q 1454 644 1493 690 q 1369 537 1415 597 q 1275 413 1322 476 q 1183 338 1232 353 q 1078 322 1135 322 m 1063 385 q 1049 399 1049 385 q 1054 410 1049 406 q 1139 480 1086 436 q 1249 573 1192 524 q 1354 663 1307 622 q 1363 665 1357 665 q 1378 650 1378 665 q 1372 640 1378 646 q 1267 551 1325 600 q 1157 459 1210 503 q 1071 388 1104 415 q 1063 385 1068 385 m 1281 -7 q 1215 6 1251 -7 q 1151 47 1178 18 q 1124 126 1124 76 q 1126 157 1124 142 q 1135 190 1129 172 q 1147 200 1139 200 q 1159 195 1154 200 q 1161 182 1164 190 q 1151 128 1151 153 q 1172 64 1151 88 q 1224 31 1193 40 q 1281 21 1254 21 q 1385 44 1332 21 q 1486 100 1438 68 q 1493 103 1492 103 q 1503 98 1500 103 q 1507 88 1507 93 q 1501 76 1507 81 q 1394 19 1451 44 q 1281 -7 1338 -7 m 1596 1042 q 1572 1051 1583 1042 q 1546 1073 1567 1056 q 1499 1112 1525 1090 q 1450 1152 1472 1133 q 1418 1179 1428 1171 q 1407 1200 1407 1190 q 1444 1247 1407 1218 q 1475 1260 1460 1260 q 1504 1244 1492 1260 q 1518 1229 1508 1239 q 1538 1208 1528 1219 q 1540 1200 1540 1206 q 1533 1188 1540 1193 q 1518 1188 1525 1182 q 1482 1228 1510 1197 q 1474 1232 1478 1232 q 1461 1225 1471 1232 q 1440 1206 1443 1211 q 1438 1199 1436 1201 q 1468 1173 1446 1192 q 1516 1133 1490 1154 q 1563 1095 1542 1113 q 1589 1074 1583 1078 q 1597 1069 1594 1069 q 1599 1078 1599 1069 q 1597 1095 1599 1089 q 1586 1111 1596 1101 l 1551 1146 q 1547 1154 1547 1150 q 1556 1167 1547 1163 q 1571 1165 1565 1172 l 1608 1128 q 1622 1106 1619 1117 q 1624 1078 1624 1094 q 1596 1042 1624 1042 z "},"Ä":{"ha":1619,"x_min":-74,"x_max":1829,"o":"m 553 714 q 524 733 531 714 q 521 769 518 753 q 587 874 533 831 q 722 946 640 918 q 900 988 803 974 q 1099 1001 997 1001 q 1160 1001 1113 1001 q 1273 996 1207 1000 q 1408 983 1339 992 q 1539 957 1478 974 q 1638 915 1600 940 q 1676 851 1676 889 q 1671 824 1676 836 q 1658 815 1667 815 q 1648 821 1653 815 q 1646 835 1643 826 q 1649 843 1649 839 q 1649 851 1649 847 q 1613 901 1649 881 q 1518 934 1576 921 q 1393 956 1460 947 q 1264 967 1326 964 q 1156 972 1201 971 q 1099 974 1111 974 q 900 960 994 974 q 731 919 806 946 q 608 854 656 893 q 549 764 560 815 q 548 760 549 763 q 547 754 547 757 q 553 742 547 742 q 574 753 563 742 q 592 771 586 764 q 739 872 660 840 q 901 911 818 903 q 1064 919 985 919 q 1253 912 1179 919 q 1371 894 1326 904 q 1443 875 1415 883 q 1453 863 1453 871 q 1447 851 1453 856 q 1435 847 1442 846 q 1365 866 1408 856 q 1250 884 1322 876 q 1064 892 1178 892 q 895 882 975 892 q 742 840 815 872 q 601 740 669 808 q 580 722 592 731 q 553 714 568 714 m 258 -47 q 149 -35 207 -47 q 41 2 92 -24 q -42 70 -10 28 q -74 175 -74 113 q -38 311 -74 249 q 58 424 -3 374 q 194 509 118 474 q 355 563 271 544 q 519 582 439 582 q 590 578 546 582 q 684 563 635 574 q 778 533 733 551 q 850 485 822 514 q 878 415 878 456 q 877 405 878 410 q 875 393 876 400 q 864 368 874 383 q 833 353 854 353 q 801 372 819 353 q 772 400 782 390 q 660 469 721 447 q 528 490 600 490 q 331 463 419 490 q 179 390 243 435 q 81 293 115 344 q 47 193 47 242 q 103 95 47 136 q 279 54 158 54 q 453 88 361 54 q 637 177 544 122 q 813 296 729 232 q 964 418 897 360 q 1027 470 985 436 q 1124 548 1069 504 q 1238 638 1179 592 q 1352 726 1297 683 q 1450 803 1407 769 q 1514 853 1493 836 q 1522 856 1517 856 q 1536 840 1536 856 q 1531 831 1536 835 q 1467 781 1510 814 q 1370 705 1425 747 q 1256 616 1315 663 q 1142 526 1197 569 q 1045 449 1088 483 q 982 397 1003 415 q 831 274 915 339 q 651 153 746 210 q 462 62 557 97 q 279 26 367 26 q 161 41 221 26 q 62 93 101 56 q 22 197 22 131 q 24 220 22 208 q 28 244 25 232 q 95 363 42 311 q 224 449 149 414 q 379 501 299 483 q 528 518 460 518 q 687 488 621 518 q 814 397 753 458 q 824 389 818 394 q 835 381 829 383 q 847 400 843 381 q 849 408 849 404 q 849 417 849 413 q 822 474 849 450 q 753 513 794 497 q 665 537 711 528 q 580 550 619 546 q 519 554 540 554 q 323 527 422 554 q 140 449 224 500 q 6 329 57 399 q -44 176 -44 260 q -17 88 -44 125 q 54 26 10 50 q 152 -8 99 3 q 258 -19 206 -19 q 437 8 347 -19 q 613 79 526 35 q 774 176 699 124 q 908 279 849 228 q 912 281 908 279 q 917 282 915 282 l 1161 282 q 1175 268 1175 282 q 1161 254 1175 254 l 922 254 q 786 150 863 203 q 622 53 710 97 q 442 -19 535 8 q 258 -47 350 -47 m 1339 97 q 1276 119 1294 97 q 1258 172 1258 140 q 1274 253 1258 210 q 1310 333 1290 296 q 1340 389 1329 371 q 1411 500 1368 436 q 1503 631 1454 564 q 1596 753 1553 697 q 1607 758 1600 758 q 1619 751 1614 758 q 1618 736 1625 743 q 1584 693 1611 728 q 1519 608 1557 658 q 1442 497 1482 557 q 1366 376 1401 436 q 1308 263 1331 315 q 1286 176 1286 211 q 1339 125 1286 125 q 1427 144 1378 125 q 1525 197 1476 163 q 1608 276 1574 232 q 1619 282 1613 282 q 1631 274 1626 282 q 1629 258 1636 265 q 1543 176 1594 213 q 1438 118 1492 139 q 1339 97 1385 97 m 1078 322 q 1038 323 1058 322 q 996 324 1018 324 q 982 338 982 324 q 996 351 982 351 q 1033 351 1014 351 q 1072 350 1053 350 q 1115 351 1093 350 q 1157 358 1136 353 q 1207 381 1185 365 q 1253 429 1229 396 q 1347 554 1300 493 q 1434 663 1394 615 q 1497 732 1474 710 q 1507 736 1501 736 q 1519 728 1514 736 q 1515 713 1524 719 q 1454 644 1493 690 q 1369 537 1415 597 q 1275 413 1322 476 q 1183 338 1232 353 q 1078 322 1135 322 m 1063 385 q 1049 399 1049 385 q 1054 410 1049 406 q 1139 480 1086 436 q 1249 573 1192 524 q 1354 663 1307 622 q 1363 665 1357 665 q 1378 650 1378 665 q 1372 640 1378 646 q 1267 551 1325 600 q 1157 459 1210 503 q 1071 388 1104 415 q 1063 385 1068 385 m 1281 -7 q 1215 6 1251 -7 q 1151 47 1178 18 q 1124 126 1124 76 q 1126 157 1124 142 q 1135 190 1129 172 q 1147 200 1139 200 q 1159 195 1154 200 q 1161 182 1164 190 q 1151 128 1151 153 q 1172 64 1151 88 q 1224 31 1193 40 q 1281 21 1254 21 q 1385 44 1332 21 q 1486 100 1438 68 q 1493 103 1492 103 q 1503 98 1500 103 q 1507 88 1507 93 q 1501 76 1507 81 q 1394 19 1451 44 q 1281 -7 1338 -7 m 1603 1040 q 1558 1059 1576 1040 q 1539 1104 1539 1078 q 1565 1157 1539 1135 q 1574 1160 1571 1160 q 1588 1144 1588 1160 q 1582 1133 1588 1138 q 1567 1104 1567 1125 q 1578 1078 1567 1089 q 1604 1068 1589 1068 q 1630 1078 1619 1068 q 1640 1104 1640 1089 q 1631 1129 1640 1117 q 1626 1139 1626 1133 q 1635 1152 1626 1147 q 1650 1149 1643 1157 q 1668 1104 1668 1131 q 1649 1059 1668 1078 q 1603 1040 1631 1040 m 1726 1043 q 1700 1096 1700 1065 q 1719 1142 1700 1124 q 1764 1160 1738 1160 q 1810 1142 1792 1160 q 1829 1096 1829 1124 q 1811 1051 1829 1069 q 1801 1047 1807 1047 q 1790 1055 1794 1047 q 1792 1071 1785 1063 q 1801 1096 1801 1083 q 1791 1122 1801 1111 q 1765 1132 1781 1132 q 1739 1122 1750 1132 q 1728 1096 1728 1111 q 1743 1067 1728 1075 q 1749 1056 1749 1063 q 1742 1043 1749 1049 q 1726 1043 1735 1038 z "},"Ạ":{"ha":1619,"x_min":-74,"x_max":1676,"o":"m 553 714 q 524 733 531 714 q 521 769 518 753 q 587 874 533 831 q 722 946 640 918 q 900 988 803 974 q 1099 1001 997 1001 q 1160 1001 1113 1001 q 1273 996 1207 1000 q 1408 983 1339 992 q 1539 957 1478 974 q 1638 915 1600 940 q 1676 851 1676 889 q 1671 824 1676 836 q 1658 815 1667 815 q 1648 821 1653 815 q 1646 835 1643 826 q 1649 843 1649 839 q 1649 851 1649 847 q 1613 901 1649 881 q 1518 934 1576 921 q 1393 956 1460 947 q 1264 967 1326 964 q 1156 972 1201 971 q 1099 974 1111 974 q 900 960 994 974 q 731 919 806 946 q 608 854 656 893 q 549 764 560 815 q 548 760 549 763 q 547 754 547 757 q 553 742 547 742 q 574 753 563 742 q 592 771 586 764 q 739 872 660 840 q 901 911 818 903 q 1064 919 985 919 q 1253 912 1179 919 q 1371 894 1326 904 q 1443 875 1415 883 q 1453 863 1453 871 q 1447 851 1453 856 q 1435 847 1442 846 q 1365 866 1408 856 q 1250 884 1322 876 q 1064 892 1178 892 q 895 882 975 892 q 742 840 815 872 q 601 740 669 808 q 580 722 592 731 q 553 714 568 714 m 258 -47 q 149 -35 207 -47 q 41 2 92 -24 q -42 70 -10 28 q -74 175 -74 113 q -38 311 -74 249 q 58 424 -3 374 q 194 509 118 474 q 355 563 271 544 q 519 582 439 582 q 590 578 546 582 q 684 563 635 574 q 778 533 733 551 q 850 485 822 514 q 878 415 878 456 q 877 405 878 410 q 875 393 876 400 q 864 368 874 383 q 833 353 854 353 q 801 372 819 353 q 772 400 782 390 q 660 469 721 447 q 528 490 600 490 q 331 463 419 490 q 179 390 243 435 q 81 293 115 344 q 47 193 47 242 q 103 95 47 136 q 279 54 158 54 q 453 88 361 54 q 637 177 544 122 q 813 296 729 232 q 964 418 897 360 q 1027 470 985 436 q 1124 548 1069 504 q 1238 638 1179 592 q 1352 726 1297 683 q 1450 803 1407 769 q 1514 853 1493 836 q 1522 856 1517 856 q 1536 840 1536 856 q 1531 831 1536 835 q 1467 781 1510 814 q 1370 705 1425 747 q 1256 616 1315 663 q 1142 526 1197 569 q 1045 449 1088 483 q 982 397 1003 415 q 831 274 915 339 q 651 153 746 210 q 462 62 557 97 q 279 26 367 26 q 161 41 221 26 q 62 93 101 56 q 22 197 22 131 q 24 220 22 208 q 28 244 25 232 q 95 363 42 311 q 224 449 149 414 q 379 501 299 483 q 528 518 460 518 q 687 488 621 518 q 814 397 753 458 q 824 389 818 394 q 835 381 829 383 q 847 400 843 381 q 849 408 849 404 q 849 417 849 413 q 822 474 849 450 q 753 513 794 497 q 665 537 711 528 q 580 550 619 546 q 519 554 540 554 q 323 527 422 554 q 140 449 224 500 q 6 329 57 399 q -44 176 -44 260 q -17 88 -44 125 q 54 26 10 50 q 152 -8 99 3 q 258 -19 206 -19 q 437 8 347 -19 q 613 79 526 35 q 774 176 699 124 q 908 279 849 228 q 912 281 908 279 q 917 282 915 282 l 1161 282 q 1175 268 1175 282 q 1161 254 1175 254 l 922 254 q 786 150 863 203 q 622 53 710 97 q 442 -19 535 8 q 258 -47 350 -47 m 1339 97 q 1276 119 1294 97 q 1258 172 1258 140 q 1274 253 1258 210 q 1310 333 1290 296 q 1340 389 1329 371 q 1411 500 1368 436 q 1503 631 1454 564 q 1596 753 1553 697 q 1607 758 1600 758 q 1619 751 1614 758 q 1618 736 1625 743 q 1584 693 1611 728 q 1519 608 1557 658 q 1442 497 1482 557 q 1366 376 1401 436 q 1308 263 1331 315 q 1286 176 1286 211 q 1339 125 1286 125 q 1427 144 1378 125 q 1525 197 1476 163 q 1608 276 1574 232 q 1619 282 1613 282 q 1631 274 1626 282 q 1629 258 1636 265 q 1543 176 1594 213 q 1438 118 1492 139 q 1339 97 1385 97 m 1078 322 q 1038 323 1058 322 q 996 324 1018 324 q 982 338 982 324 q 996 351 982 351 q 1033 351 1014 351 q 1072 350 1053 350 q 1115 351 1093 350 q 1157 358 1136 353 q 1207 381 1185 365 q 1253 429 1229 396 q 1347 554 1300 493 q 1434 663 1394 615 q 1497 732 1474 710 q 1507 736 1501 736 q 1519 728 1514 736 q 1515 713 1524 719 q 1454 644 1493 690 q 1369 537 1415 597 q 1275 413 1322 476 q 1183 338 1232 353 q 1078 322 1135 322 m 1063 385 q 1049 399 1049 385 q 1054 410 1049 406 q 1139 480 1086 436 q 1249 573 1192 524 q 1354 663 1307 622 q 1363 665 1357 665 q 1378 650 1378 665 q 1372 640 1378 646 q 1267 551 1325 600 q 1157 459 1210 503 q 1071 388 1104 415 q 1063 385 1068 385 m 1281 -7 q 1215 6 1251 -7 q 1151 47 1178 18 q 1124 126 1124 76 q 1126 157 1124 142 q 1135 190 1129 172 q 1147 200 1139 200 q 1159 195 1154 200 q 1161 182 1164 190 q 1151 128 1151 153 q 1172 64 1151 88 q 1224 31 1193 40 q 1281 21 1254 21 q 1385 44 1332 21 q 1486 100 1438 68 q 1493 103 1492 103 q 1503 98 1500 103 q 1507 88 1507 93 q 1501 76 1507 81 q 1394 19 1451 44 q 1281 -7 1338 -7 m 771 -199 q 744 -146 744 -176 q 763 -100 744 -118 q 808 -82 782 -82 q 855 -100 836 -82 q 874 -146 874 -118 q 856 -190 874 -172 q 846 -194 851 -194 q 834 -187 839 -194 q 836 -171 829 -179 q 846 -146 846 -158 q 835 -120 846 -131 q 810 -110 825 -110 q 783 -120 794 -110 q 772 -146 772 -131 q 788 -175 772 -167 q 793 -186 793 -179 q 786 -199 793 -193 q 771 -199 779 -204 z "},"À":{"ha":1619,"x_min":-74,"x_max":1722,"o":"m 553 714 q 524 733 531 714 q 521 769 518 753 q 587 874 533 831 q 722 946 640 918 q 900 988 803 974 q 1099 1001 997 1001 q 1160 1001 1113 1001 q 1273 996 1207 1000 q 1408 983 1339 992 q 1539 957 1478 974 q 1638 915 1600 940 q 1676 851 1676 889 q 1671 824 1676 836 q 1658 815 1667 815 q 1648 821 1653 815 q 1646 835 1643 826 q 1649 843 1649 839 q 1649 851 1649 847 q 1613 901 1649 881 q 1518 934 1576 921 q 1393 956 1460 947 q 1264 967 1326 964 q 1156 972 1201 971 q 1099 974 1111 974 q 900 960 994 974 q 731 919 806 946 q 608 854 656 893 q 549 764 560 815 q 548 760 549 763 q 547 754 547 757 q 553 742 547 742 q 574 753 563 742 q 592 771 586 764 q 739 872 660 840 q 901 911 818 903 q 1064 919 985 919 q 1253 912 1179 919 q 1371 894 1326 904 q 1443 875 1415 883 q 1453 863 1453 871 q 1447 851 1453 856 q 1435 847 1442 846 q 1365 866 1408 856 q 1250 884 1322 876 q 1064 892 1178 892 q 895 882 975 892 q 742 840 815 872 q 601 740 669 808 q 580 722 592 731 q 553 714 568 714 m 258 -47 q 149 -35 207 -47 q 41 2 92 -24 q -42 70 -10 28 q -74 175 -74 113 q -38 311 -74 249 q 58 424 -3 374 q 194 509 118 474 q 355 563 271 544 q 519 582 439 582 q 590 578 546 582 q 684 563 635 574 q 778 533 733 551 q 850 485 822 514 q 878 415 878 456 q 877 405 878 410 q 875 393 876 400 q 864 368 874 383 q 833 353 854 353 q 801 372 819 353 q 772 400 782 390 q 660 469 721 447 q 528 490 600 490 q 331 463 419 490 q 179 390 243 435 q 81 293 115 344 q 47 193 47 242 q 103 95 47 136 q 279 54 158 54 q 453 88 361 54 q 637 177 544 122 q 813 296 729 232 q 964 418 897 360 q 1027 470 985 436 q 1124 548 1069 504 q 1238 638 1179 592 q 1352 726 1297 683 q 1450 803 1407 769 q 1514 853 1493 836 q 1522 856 1517 856 q 1536 840 1536 856 q 1531 831 1536 835 q 1467 781 1510 814 q 1370 705 1425 747 q 1256 616 1315 663 q 1142 526 1197 569 q 1045 449 1088 483 q 982 397 1003 415 q 831 274 915 339 q 651 153 746 210 q 462 62 557 97 q 279 26 367 26 q 161 41 221 26 q 62 93 101 56 q 22 197 22 131 q 24 220 22 208 q 28 244 25 232 q 95 363 42 311 q 224 449 149 414 q 379 501 299 483 q 528 518 460 518 q 687 488 621 518 q 814 397 753 458 q 824 389 818 394 q 835 381 829 383 q 847 400 843 381 q 849 408 849 404 q 849 417 849 413 q 822 474 849 450 q 753 513 794 497 q 665 537 711 528 q 580 550 619 546 q 519 554 540 554 q 323 527 422 554 q 140 449 224 500 q 6 329 57 399 q -44 176 -44 260 q -17 88 -44 125 q 54 26 10 50 q 152 -8 99 3 q 258 -19 206 -19 q 437 8 347 -19 q 613 79 526 35 q 774 176 699 124 q 908 279 849 228 q 912 281 908 279 q 917 282 915 282 l 1161 282 q 1175 268 1175 282 q 1161 254 1175 254 l 922 254 q 786 150 863 203 q 622 53 710 97 q 442 -19 535 8 q 258 -47 350 -47 m 1339 97 q 1276 119 1294 97 q 1258 172 1258 140 q 1274 253 1258 210 q 1310 333 1290 296 q 1340 389 1329 371 q 1411 500 1368 436 q 1503 631 1454 564 q 1596 753 1553 697 q 1607 758 1600 758 q 1619 751 1614 758 q 1618 736 1625 743 q 1584 693 1611 728 q 1519 608 1557 658 q 1442 497 1482 557 q 1366 376 1401 436 q 1308 263 1331 315 q 1286 176 1286 211 q 1339 125 1286 125 q 1427 144 1378 125 q 1525 197 1476 163 q 1608 276 1574 232 q 1619 282 1613 282 q 1631 274 1626 282 q 1629 258 1636 265 q 1543 176 1594 213 q 1438 118 1492 139 q 1339 97 1385 97 m 1078 322 q 1038 323 1058 322 q 996 324 1018 324 q 982 338 982 324 q 996 351 982 351 q 1033 351 1014 351 q 1072 350 1053 350 q 1115 351 1093 350 q 1157 358 1136 353 q 1207 381 1185 365 q 1253 429 1229 396 q 1347 554 1300 493 q 1434 663 1394 615 q 1497 732 1474 710 q 1507 736 1501 736 q 1519 728 1514 736 q 1515 713 1524 719 q 1454 644 1493 690 q 1369 537 1415 597 q 1275 413 1322 476 q 1183 338 1232 353 q 1078 322 1135 322 m 1063 385 q 1049 399 1049 385 q 1054 410 1049 406 q 1139 480 1086 436 q 1249 573 1192 524 q 1354 663 1307 622 q 1363 665 1357 665 q 1378 650 1378 665 q 1372 640 1378 646 q 1267 551 1325 600 q 1157 459 1210 503 q 1071 388 1104 415 q 1063 385 1068 385 m 1281 -7 q 1215 6 1251 -7 q 1151 47 1178 18 q 1124 126 1124 76 q 1126 157 1124 142 q 1135 190 1129 172 q 1147 200 1139 200 q 1159 195 1154 200 q 1161 182 1164 190 q 1151 128 1151 153 q 1172 64 1151 88 q 1224 31 1193 40 q 1281 21 1254 21 q 1385 44 1332 21 q 1486 100 1438 68 q 1493 103 1492 103 q 1503 98 1500 103 q 1507 88 1507 93 q 1501 76 1507 81 q 1394 19 1451 44 q 1281 -7 1338 -7 m 1694 1042 q 1671 1051 1682 1042 q 1642 1075 1665 1056 q 1591 1118 1619 1094 q 1538 1163 1563 1142 q 1504 1192 1514 1183 q 1493 1213 1493 1203 q 1531 1260 1493 1231 q 1561 1272 1546 1272 q 1590 1257 1578 1272 q 1610 1235 1594 1251 q 1636 1208 1626 1219 q 1639 1200 1639 1206 q 1631 1188 1639 1193 q 1617 1188 1624 1182 q 1598 1208 1614 1190 q 1568 1240 1582 1225 q 1560 1244 1564 1244 q 1547 1238 1557 1244 q 1526 1219 1529 1224 q 1524 1211 1522 1214 q 1556 1184 1532 1204 q 1608 1140 1579 1164 q 1659 1097 1636 1117 q 1688 1074 1682 1078 q 1695 1069 1693 1069 q 1697 1078 1697 1069 q 1696 1095 1697 1089 q 1685 1111 1694 1101 l 1650 1146 q 1646 1154 1646 1150 q 1655 1167 1646 1163 q 1669 1165 1664 1172 l 1707 1128 q 1720 1106 1718 1117 q 1722 1078 1722 1094 q 1694 1042 1722 1042 z "},"Ả":{"ha":1619,"x_min":-74,"x_max":1881,"o":"m 553 714 q 524 733 531 714 q 521 769 518 753 q 587 874 533 831 q 722 946 640 918 q 900 988 803 974 q 1099 1001 997 1001 q 1160 1001 1113 1001 q 1273 996 1207 1000 q 1408 983 1339 992 q 1539 957 1478 974 q 1638 915 1600 940 q 1676 851 1676 889 q 1671 824 1676 836 q 1658 815 1667 815 q 1648 821 1653 815 q 1646 835 1643 826 q 1649 843 1649 839 q 1649 851 1649 847 q 1613 901 1649 881 q 1518 934 1576 921 q 1393 956 1460 947 q 1264 967 1326 964 q 1156 972 1201 971 q 1099 974 1111 974 q 900 960 994 974 q 731 919 806 946 q 608 854 656 893 q 549 764 560 815 q 548 760 549 763 q 547 754 547 757 q 553 742 547 742 q 574 753 563 742 q 592 771 586 764 q 739 872 660 840 q 901 911 818 903 q 1064 919 985 919 q 1253 912 1179 919 q 1371 894 1326 904 q 1443 875 1415 883 q 1453 863 1453 871 q 1447 851 1453 856 q 1435 847 1442 846 q 1365 866 1408 856 q 1250 884 1322 876 q 1064 892 1178 892 q 895 882 975 892 q 742 840 815 872 q 601 740 669 808 q 580 722 592 731 q 553 714 568 714 m 258 -47 q 149 -35 207 -47 q 41 2 92 -24 q -42 70 -10 28 q -74 175 -74 113 q -38 311 -74 249 q 58 424 -3 374 q 194 509 118 474 q 355 563 271 544 q 519 582 439 582 q 590 578 546 582 q 684 563 635 574 q 778 533 733 551 q 850 485 822 514 q 878 415 878 456 q 877 405 878 410 q 875 393 876 400 q 864 368 874 383 q 833 353 854 353 q 801 372 819 353 q 772 400 782 390 q 660 469 721 447 q 528 490 600 490 q 331 463 419 490 q 179 390 243 435 q 81 293 115 344 q 47 193 47 242 q 103 95 47 136 q 279 54 158 54 q 453 88 361 54 q 637 177 544 122 q 813 296 729 232 q 964 418 897 360 q 1027 470 985 436 q 1124 548 1069 504 q 1238 638 1179 592 q 1352 726 1297 683 q 1450 803 1407 769 q 1514 853 1493 836 q 1522 856 1517 856 q 1536 840 1536 856 q 1531 831 1536 835 q 1467 781 1510 814 q 1370 705 1425 747 q 1256 616 1315 663 q 1142 526 1197 569 q 1045 449 1088 483 q 982 397 1003 415 q 831 274 915 339 q 651 153 746 210 q 462 62 557 97 q 279 26 367 26 q 161 41 221 26 q 62 93 101 56 q 22 197 22 131 q 24 220 22 208 q 28 244 25 232 q 95 363 42 311 q 224 449 149 414 q 379 501 299 483 q 528 518 460 518 q 687 488 621 518 q 814 397 753 458 q 824 389 818 394 q 835 381 829 383 q 847 400 843 381 q 849 408 849 404 q 849 417 849 413 q 822 474 849 450 q 753 513 794 497 q 665 537 711 528 q 580 550 619 546 q 519 554 540 554 q 323 527 422 554 q 140 449 224 500 q 6 329 57 399 q -44 176 -44 260 q -17 88 -44 125 q 54 26 10 50 q 152 -8 99 3 q 258 -19 206 -19 q 437 8 347 -19 q 613 79 526 35 q 774 176 699 124 q 908 279 849 228 q 912 281 908 279 q 917 282 915 282 l 1161 282 q 1175 268 1175 282 q 1161 254 1175 254 l 922 254 q 786 150 863 203 q 622 53 710 97 q 442 -19 535 8 q 258 -47 350 -47 m 1339 97 q 1276 119 1294 97 q 1258 172 1258 140 q 1274 253 1258 210 q 1310 333 1290 296 q 1340 389 1329 371 q 1411 500 1368 436 q 1503 631 1454 564 q 1596 753 1553 697 q 1607 758 1600 758 q 1619 751 1614 758 q 1618 736 1625 743 q 1584 693 1611 728 q 1519 608 1557 658 q 1442 497 1482 557 q 1366 376 1401 436 q 1308 263 1331 315 q 1286 176 1286 211 q 1339 125 1286 125 q 1427 144 1378 125 q 1525 197 1476 163 q 1608 276 1574 232 q 1619 282 1613 282 q 1631 274 1626 282 q 1629 258 1636 265 q 1543 176 1594 213 q 1438 118 1492 139 q 1339 97 1385 97 m 1078 322 q 1038 323 1058 322 q 996 324 1018 324 q 982 338 982 324 q 996 351 982 351 q 1033 351 1014 351 q 1072 350 1053 350 q 1115 351 1093 350 q 1157 358 1136 353 q 1207 381 1185 365 q 1253 429 1229 396 q 1347 554 1300 493 q 1434 663 1394 615 q 1497 732 1474 710 q 1507 736 1501 736 q 1519 728 1514 736 q 1515 713 1524 719 q 1454 644 1493 690 q 1369 537 1415 597 q 1275 413 1322 476 q 1183 338 1232 353 q 1078 322 1135 322 m 1063 385 q 1049 399 1049 385 q 1054 410 1049 406 q 1139 480 1086 436 q 1249 573 1192 524 q 1354 663 1307 622 q 1363 665 1357 665 q 1378 650 1378 665 q 1372 640 1378 646 q 1267 551 1325 600 q 1157 459 1210 503 q 1071 388 1104 415 q 1063 385 1068 385 m 1281 -7 q 1215 6 1251 -7 q 1151 47 1178 18 q 1124 126 1124 76 q 1126 157 1124 142 q 1135 190 1129 172 q 1147 200 1139 200 q 1159 195 1154 200 q 1161 182 1164 190 q 1151 128 1151 153 q 1172 64 1151 88 q 1224 31 1193 40 q 1281 21 1254 21 q 1385 44 1332 21 q 1486 100 1438 68 q 1493 103 1492 103 q 1503 98 1500 103 q 1507 88 1507 93 q 1501 76 1507 81 q 1394 19 1451 44 q 1281 -7 1338 -7 m 1688 1036 q 1669 1041 1676 1036 q 1664 1053 1663 1046 q 1675 1075 1665 1068 q 1716 1110 1701 1097 q 1740 1136 1731 1122 q 1749 1153 1747 1147 q 1751 1158 1751 1158 q 1736 1176 1756 1176 q 1681 1167 1707 1176 q 1661 1163 1668 1163 q 1645 1172 1647 1163 q 1649 1193 1643 1181 q 1673 1225 1656 1213 q 1724 1246 1690 1238 l 1731 1247 q 1739 1238 1742 1247 q 1735 1230 1738 1235 q 1722 1222 1732 1225 q 1672 1189 1672 1208 q 1747 1204 1718 1204 q 1785 1171 1792 1204 q 1782 1158 1785 1167 q 1777 1147 1781 1153 q 1768 1135 1774 1142 q 1739 1098 1751 1111 q 1699 1064 1726 1085 q 1719 1073 1706 1065 q 1748 1090 1733 1081 q 1768 1104 1763 1099 q 1809 1147 1788 1121 q 1836 1189 1831 1172 q 1800 1232 1854 1232 l 1764 1232 q 1753 1240 1751 1232 q 1776 1257 1756 1253 q 1793 1259 1785 1258 q 1810 1260 1801 1260 q 1869 1206 1881 1260 q 1783 1088 1861 1157 q 1754 1066 1774 1078 q 1716 1045 1735 1054 q 1688 1036 1697 1036 z "},"Ȃ":{"ha":1619,"x_min":-74,"x_max":1871,"o":"m 1721 1215 q 1831 1181 1792 1215 q 1871 1099 1871 1147 q 1870 1087 1871 1093 q 1868 1074 1869 1081 q 1851 1040 1864 1053 q 1821 1026 1838 1026 q 1807 1029 1815 1026 q 1784 1051 1793 1033 q 1776 1088 1775 1068 q 1765 1113 1778 1103 q 1719 1124 1751 1124 q 1658 1113 1679 1124 q 1617 1078 1636 1103 q 1583 1041 1600 1056 q 1550 1026 1565 1026 q 1517 1038 1529 1026 q 1506 1065 1506 1049 q 1511 1090 1506 1079 q 1525 1097 1515 1097 q 1536 1092 1532 1097 q 1536 1079 1540 1088 q 1534 1072 1535 1075 q 1533 1067 1533 1069 q 1550 1054 1533 1054 q 1569 1065 1557 1054 q 1594 1094 1582 1076 q 1644 1138 1617 1125 q 1719 1151 1672 1151 q 1783 1133 1763 1151 q 1804 1085 1804 1114 l 1804 1081 q 1815 1054 1804 1060 l 1819 1054 q 1840 1079 1836 1054 q 1842 1089 1842 1085 q 1842 1099 1842 1093 q 1810 1162 1842 1136 q 1721 1188 1779 1188 q 1645 1176 1678 1188 q 1589 1146 1613 1165 q 1576 1142 1583 1142 q 1564 1153 1564 1142 q 1572 1168 1564 1160 q 1721 1215 1626 1215 m 553 714 q 524 733 531 714 q 521 769 518 753 q 587 874 533 831 q 722 946 640 918 q 900 988 803 974 q 1099 1001 997 1001 q 1160 1001 1113 1001 q 1273 996 1207 1000 q 1408 983 1339 992 q 1539 957 1478 974 q 1638 915 1600 940 q 1676 851 1676 889 q 1671 824 1676 836 q 1658 815 1667 815 q 1648 821 1653 815 q 1646 835 1643 826 q 1649 843 1649 839 q 1649 851 1649 847 q 1613 901 1649 881 q 1518 934 1576 921 q 1393 956 1460 947 q 1264 967 1326 964 q 1156 972 1201 971 q 1099 974 1111 974 q 900 960 994 974 q 731 919 806 946 q 608 854 656 893 q 549 764 560 815 q 548 760 549 763 q 547 754 547 757 q 553 742 547 742 q 574 753 563 742 q 592 771 586 764 q 739 872 660 840 q 901 911 818 903 q 1064 919 985 919 q 1253 912 1179 919 q 1371 894 1326 904 q 1443 875 1415 883 q 1453 863 1453 871 q 1447 851 1453 856 q 1435 847 1442 846 q 1365 866 1408 856 q 1250 884 1322 876 q 1064 892 1178 892 q 895 882 975 892 q 742 840 815 872 q 601 740 669 808 q 580 722 592 731 q 553 714 568 714 m 258 -47 q 149 -35 207 -47 q 41 2 92 -24 q -42 70 -10 28 q -74 175 -74 113 q -38 311 -74 249 q 58 424 -3 374 q 194 509 118 474 q 355 563 271 544 q 519 582 439 582 q 590 578 546 582 q 684 563 635 574 q 778 533 733 551 q 850 485 822 514 q 878 415 878 456 q 877 405 878 410 q 875 393 876 400 q 864 368 874 383 q 833 353 854 353 q 801 372 819 353 q 772 400 782 390 q 660 469 721 447 q 528 490 600 490 q 331 463 419 490 q 179 390 243 435 q 81 293 115 344 q 47 193 47 242 q 103 95 47 136 q 279 54 158 54 q 453 88 361 54 q 637 177 544 122 q 813 296 729 232 q 964 418 897 360 q 1027 470 985 436 q 1124 548 1069 504 q 1238 638 1179 592 q 1352 726 1297 683 q 1450 803 1407 769 q 1514 853 1493 836 q 1522 856 1517 856 q 1536 840 1536 856 q 1531 831 1536 835 q 1467 781 1510 814 q 1370 705 1425 747 q 1256 616 1315 663 q 1142 526 1197 569 q 1045 449 1088 483 q 982 397 1003 415 q 831 274 915 339 q 651 153 746 210 q 462 62 557 97 q 279 26 367 26 q 161 41 221 26 q 62 93 101 56 q 22 197 22 131 q 24 220 22 208 q 28 244 25 232 q 95 363 42 311 q 224 449 149 414 q 379 501 299 483 q 528 518 460 518 q 687 488 621 518 q 814 397 753 458 q 824 389 818 394 q 835 381 829 383 q 847 400 843 381 q 849 408 849 404 q 849 417 849 413 q 822 474 849 450 q 753 513 794 497 q 665 537 711 528 q 580 550 619 546 q 519 554 540 554 q 323 527 422 554 q 140 449 224 500 q 6 329 57 399 q -44 176 -44 260 q -17 88 -44 125 q 54 26 10 50 q 152 -8 99 3 q 258 -19 206 -19 q 437 8 347 -19 q 613 79 526 35 q 774 176 699 124 q 908 279 849 228 q 912 281 908 279 q 917 282 915 282 l 1161 282 q 1175 268 1175 282 q 1161 254 1175 254 l 922 254 q 786 150 863 203 q 622 53 710 97 q 442 -19 535 8 q 258 -47 350 -47 m 1339 97 q 1276 119 1294 97 q 1258 172 1258 140 q 1274 253 1258 210 q 1310 333 1290 296 q 1340 389 1329 371 q 1411 500 1368 436 q 1503 631 1454 564 q 1596 753 1553 697 q 1607 758 1600 758 q 1619 751 1614 758 q 1618 736 1625 743 q 1584 693 1611 728 q 1519 608 1557 658 q 1442 497 1482 557 q 1366 376 1401 436 q 1308 263 1331 315 q 1286 176 1286 211 q 1339 125 1286 125 q 1427 144 1378 125 q 1525 197 1476 163 q 1608 276 1574 232 q 1619 282 1613 282 q 1631 274 1626 282 q 1629 258 1636 265 q 1543 176 1594 213 q 1438 118 1492 139 q 1339 97 1385 97 m 1078 322 q 1038 323 1058 322 q 996 324 1018 324 q 982 338 982 324 q 996 351 982 351 q 1033 351 1014 351 q 1072 350 1053 350 q 1115 351 1093 350 q 1157 358 1136 353 q 1207 381 1185 365 q 1253 429 1229 396 q 1347 554 1300 493 q 1434 663 1394 615 q 1497 732 1474 710 q 1507 736 1501 736 q 1519 728 1514 736 q 1515 713 1524 719 q 1454 644 1493 690 q 1369 537 1415 597 q 1275 413 1322 476 q 1183 338 1232 353 q 1078 322 1135 322 m 1063 385 q 1049 399 1049 385 q 1054 410 1049 406 q 1139 480 1086 436 q 1249 573 1192 524 q 1354 663 1307 622 q 1363 665 1357 665 q 1378 650 1378 665 q 1372 640 1378 646 q 1267 551 1325 600 q 1157 459 1210 503 q 1071 388 1104 415 q 1063 385 1068 385 m 1281 -7 q 1215 6 1251 -7 q 1151 47 1178 18 q 1124 126 1124 76 q 1126 157 1124 142 q 1135 190 1129 172 q 1147 200 1139 200 q 1159 195 1154 200 q 1161 182 1164 190 q 1151 128 1151 153 q 1172 64 1151 88 q 1224 31 1193 40 q 1281 21 1254 21 q 1385 44 1332 21 q 1486 100 1438 68 q 1493 103 1492 103 q 1503 98 1500 103 q 1507 88 1507 93 q 1501 76 1507 81 q 1394 19 1451 44 q 1281 -7 1338 -7 z "},"Ā":{"ha":1619,"x_min":-74,"x_max":1903,"o":"m 553 714 q 524 733 531 714 q 521 769 518 753 q 587 874 533 831 q 722 946 640 918 q 900 988 803 974 q 1099 1001 997 1001 q 1160 1001 1113 1001 q 1273 996 1207 1000 q 1408 983 1339 992 q 1539 957 1478 974 q 1638 915 1600 940 q 1676 851 1676 889 q 1671 824 1676 836 q 1658 815 1667 815 q 1648 821 1653 815 q 1646 835 1643 826 q 1649 843 1649 839 q 1649 851 1649 847 q 1613 901 1649 881 q 1518 934 1576 921 q 1393 956 1460 947 q 1264 967 1326 964 q 1156 972 1201 971 q 1099 974 1111 974 q 900 960 994 974 q 731 919 806 946 q 608 854 656 893 q 549 764 560 815 q 548 760 549 763 q 547 754 547 757 q 553 742 547 742 q 574 753 563 742 q 592 771 586 764 q 739 872 660 840 q 901 911 818 903 q 1064 919 985 919 q 1253 912 1179 919 q 1371 894 1326 904 q 1443 875 1415 883 q 1453 863 1453 871 q 1447 851 1453 856 q 1435 847 1442 846 q 1365 866 1408 856 q 1250 884 1322 876 q 1064 892 1178 892 q 895 882 975 892 q 742 840 815 872 q 601 740 669 808 q 580 722 592 731 q 553 714 568 714 m 258 -47 q 149 -35 207 -47 q 41 2 92 -24 q -42 70 -10 28 q -74 175 -74 113 q -38 311 -74 249 q 58 424 -3 374 q 194 509 118 474 q 355 563 271 544 q 519 582 439 582 q 590 578 546 582 q 684 563 635 574 q 778 533 733 551 q 850 485 822 514 q 878 415 878 456 q 877 405 878 410 q 875 393 876 400 q 864 368 874 383 q 833 353 854 353 q 801 372 819 353 q 772 400 782 390 q 660 469 721 447 q 528 490 600 490 q 331 463 419 490 q 179 390 243 435 q 81 293 115 344 q 47 193 47 242 q 103 95 47 136 q 279 54 158 54 q 453 88 361 54 q 637 177 544 122 q 813 296 729 232 q 964 418 897 360 q 1027 470 985 436 q 1124 548 1069 504 q 1238 638 1179 592 q 1352 726 1297 683 q 1450 803 1407 769 q 1514 853 1493 836 q 1522 856 1517 856 q 1536 840 1536 856 q 1531 831 1536 835 q 1467 781 1510 814 q 1370 705 1425 747 q 1256 616 1315 663 q 1142 526 1197 569 q 1045 449 1088 483 q 982 397 1003 415 q 831 274 915 339 q 651 153 746 210 q 462 62 557 97 q 279 26 367 26 q 161 41 221 26 q 62 93 101 56 q 22 197 22 131 q 24 220 22 208 q 28 244 25 232 q 95 363 42 311 q 224 449 149 414 q 379 501 299 483 q 528 518 460 518 q 687 488 621 518 q 814 397 753 458 q 824 389 818 394 q 835 381 829 383 q 847 400 843 381 q 849 408 849 404 q 849 417 849 413 q 822 474 849 450 q 753 513 794 497 q 665 537 711 528 q 580 550 619 546 q 519 554 540 554 q 323 527 422 554 q 140 449 224 500 q 6 329 57 399 q -44 176 -44 260 q -17 88 -44 125 q 54 26 10 50 q 152 -8 99 3 q 258 -19 206 -19 q 437 8 347 -19 q 613 79 526 35 q 774 176 699 124 q 908 279 849 228 q 912 281 908 279 q 917 282 915 282 l 1161 282 q 1175 268 1175 282 q 1161 254 1175 254 l 922 254 q 786 150 863 203 q 622 53 710 97 q 442 -19 535 8 q 258 -47 350 -47 m 1339 97 q 1276 119 1294 97 q 1258 172 1258 140 q 1274 253 1258 210 q 1310 333 1290 296 q 1340 389 1329 371 q 1411 500 1368 436 q 1503 631 1454 564 q 1596 753 1553 697 q 1607 758 1600 758 q 1619 751 1614 758 q 1618 736 1625 743 q 1584 693 1611 728 q 1519 608 1557 658 q 1442 497 1482 557 q 1366 376 1401 436 q 1308 263 1331 315 q 1286 176 1286 211 q 1339 125 1286 125 q 1427 144 1378 125 q 1525 197 1476 163 q 1608 276 1574 232 q 1619 282 1613 282 q 1631 274 1626 282 q 1629 258 1636 265 q 1543 176 1594 213 q 1438 118 1492 139 q 1339 97 1385 97 m 1078 322 q 1038 323 1058 322 q 996 324 1018 324 q 982 338 982 324 q 996 351 982 351 q 1033 351 1014 351 q 1072 350 1053 350 q 1115 351 1093 350 q 1157 358 1136 353 q 1207 381 1185 365 q 1253 429 1229 396 q 1347 554 1300 493 q 1434 663 1394 615 q 1497 732 1474 710 q 1507 736 1501 736 q 1519 728 1514 736 q 1515 713 1524 719 q 1454 644 1493 690 q 1369 537 1415 597 q 1275 413 1322 476 q 1183 338 1232 353 q 1078 322 1135 322 m 1063 385 q 1049 399 1049 385 q 1054 410 1049 406 q 1139 480 1086 436 q 1249 573 1192 524 q 1354 663 1307 622 q 1363 665 1357 665 q 1378 650 1378 665 q 1372 640 1378 646 q 1267 551 1325 600 q 1157 459 1210 503 q 1071 388 1104 415 q 1063 385 1068 385 m 1281 -7 q 1215 6 1251 -7 q 1151 47 1178 18 q 1124 126 1124 76 q 1126 157 1124 142 q 1135 190 1129 172 q 1147 200 1139 200 q 1159 195 1154 200 q 1161 182 1164 190 q 1151 128 1151 153 q 1172 64 1151 88 q 1224 31 1193 40 q 1281 21 1254 21 q 1385 44 1332 21 q 1486 100 1438 68 q 1493 103 1492 103 q 1503 98 1500 103 q 1507 88 1507 93 q 1501 76 1507 81 q 1394 19 1451 44 q 1281 -7 1338 -7 m 1561 1050 q 1511 1068 1528 1050 q 1494 1104 1494 1086 q 1511 1137 1494 1122 q 1561 1151 1528 1151 l 1831 1151 q 1883 1138 1864 1151 q 1903 1104 1903 1124 q 1883 1067 1903 1085 q 1831 1050 1864 1050 q 1817 1063 1817 1050 q 1831 1075 1817 1075 q 1871 1106 1871 1075 q 1860 1121 1871 1115 q 1831 1126 1849 1126 l 1561 1126 q 1522 1104 1522 1126 q 1532 1085 1522 1094 q 1561 1075 1542 1075 l 1754 1075 q 1768 1063 1768 1075 q 1754 1050 1768 1050 l 1561 1050 z "},"Ą":{"ha":1619,"x_min":-74,"x_max":1676,"o":"m 553 714 q 524 733 531 714 q 521 769 518 753 q 587 874 533 831 q 722 946 640 918 q 900 988 803 974 q 1099 1001 997 1001 q 1160 1001 1113 1001 q 1273 996 1207 1000 q 1408 983 1339 992 q 1539 957 1478 974 q 1638 915 1600 940 q 1676 851 1676 889 q 1671 824 1676 836 q 1658 815 1667 815 q 1648 821 1653 815 q 1646 835 1643 826 q 1649 843 1649 839 q 1649 851 1649 847 q 1613 901 1649 881 q 1518 934 1576 921 q 1393 956 1460 947 q 1264 967 1326 964 q 1156 972 1201 971 q 1099 974 1111 974 q 900 960 994 974 q 731 919 806 946 q 608 854 656 893 q 549 764 560 815 q 548 760 549 763 q 547 754 547 757 q 553 742 547 742 q 574 753 563 742 q 592 771 586 764 q 739 872 660 840 q 901 911 818 903 q 1064 919 985 919 q 1253 912 1179 919 q 1371 894 1326 904 q 1443 875 1415 883 q 1453 863 1453 871 q 1447 851 1453 856 q 1435 847 1442 846 q 1365 866 1408 856 q 1250 884 1322 876 q 1064 892 1178 892 q 895 882 975 892 q 742 840 815 872 q 601 740 669 808 q 580 722 592 731 q 553 714 568 714 m 258 -47 q 149 -35 207 -47 q 41 2 92 -24 q -42 70 -10 28 q -74 175 -74 113 q -38 311 -74 249 q 58 424 -3 374 q 194 509 118 474 q 355 563 271 544 q 519 582 439 582 q 590 578 546 582 q 684 563 635 574 q 778 533 733 551 q 850 485 822 514 q 878 415 878 456 q 877 405 878 410 q 875 393 876 400 q 864 368 874 383 q 833 353 854 353 q 801 372 819 353 q 772 400 782 390 q 660 469 721 447 q 528 490 600 490 q 331 463 419 490 q 179 390 243 435 q 81 293 115 344 q 47 193 47 242 q 103 95 47 136 q 279 54 158 54 q 453 88 361 54 q 637 177 544 122 q 813 296 729 232 q 964 418 897 360 q 1027 470 985 436 q 1124 548 1069 504 q 1238 638 1179 592 q 1352 726 1297 683 q 1450 803 1407 769 q 1514 853 1493 836 q 1522 856 1517 856 q 1536 840 1536 856 q 1531 831 1536 835 q 1467 781 1510 814 q 1370 705 1425 747 q 1256 616 1315 663 q 1142 526 1197 569 q 1045 449 1088 483 q 982 397 1003 415 q 831 274 915 339 q 651 153 746 210 q 462 62 557 97 q 279 26 367 26 q 161 41 221 26 q 62 93 101 56 q 22 197 22 131 q 24 220 22 208 q 28 244 25 232 q 95 363 42 311 q 224 449 149 414 q 379 501 299 483 q 528 518 460 518 q 687 488 621 518 q 814 397 753 458 q 824 389 818 394 q 835 381 829 383 q 847 400 843 381 q 849 408 849 404 q 849 417 849 413 q 822 474 849 450 q 753 513 794 497 q 665 537 711 528 q 580 550 619 546 q 519 554 540 554 q 323 527 422 554 q 140 449 224 500 q 6 329 57 399 q -44 176 -44 260 q -17 88 -44 125 q 54 26 10 50 q 152 -8 99 3 q 258 -19 206 -19 q 437 8 347 -19 q 613 79 526 35 q 774 176 699 124 q 908 279 849 228 q 912 281 908 279 q 917 282 915 282 l 1161 282 q 1175 268 1175 282 q 1161 254 1175 254 l 922 254 q 786 150 863 203 q 622 53 710 97 q 442 -19 535 8 q 258 -47 350 -47 m 1339 97 q 1276 119 1294 97 q 1258 172 1258 140 q 1274 253 1258 210 q 1310 333 1290 296 q 1340 389 1329 371 q 1411 500 1368 436 q 1503 631 1454 564 q 1596 753 1553 697 q 1607 758 1600 758 q 1619 751 1614 758 q 1618 736 1625 743 q 1584 693 1611 728 q 1519 608 1557 658 q 1442 497 1482 557 q 1366 376 1401 436 q 1308 263 1331 315 q 1286 176 1286 211 q 1339 125 1286 125 q 1427 144 1378 125 q 1525 197 1476 163 q 1608 276 1574 232 q 1619 282 1613 282 q 1631 274 1626 282 q 1629 258 1636 265 q 1543 176 1594 213 q 1438 118 1492 139 q 1339 97 1385 97 m 1078 322 q 1038 323 1058 322 q 996 324 1018 324 q 982 338 982 324 q 996 351 982 351 q 1033 351 1014 351 q 1072 350 1053 350 q 1115 351 1093 350 q 1157 358 1136 353 q 1207 381 1185 365 q 1253 429 1229 396 q 1347 554 1300 493 q 1434 663 1394 615 q 1497 732 1474 710 q 1507 736 1501 736 q 1519 728 1514 736 q 1515 713 1524 719 q 1454 644 1493 690 q 1369 537 1415 597 q 1275 413 1322 476 q 1183 338 1232 353 q 1078 322 1135 322 m 1063 385 q 1049 399 1049 385 q 1054 410 1049 406 q 1139 480 1086 436 q 1249 573 1192 524 q 1354 663 1307 622 q 1363 665 1357 665 q 1378 650 1378 665 q 1372 640 1378 646 q 1267 551 1325 600 q 1157 459 1210 503 q 1071 388 1104 415 q 1063 385 1068 385 m 1281 -7 q 1215 6 1251 -7 q 1151 47 1178 18 q 1124 126 1124 76 q 1126 157 1124 142 q 1135 190 1129 172 q 1147 200 1139 200 q 1159 195 1154 200 q 1161 182 1164 190 q 1151 128 1151 153 q 1172 64 1151 88 q 1224 31 1193 40 q 1281 21 1254 21 q 1385 44 1332 21 q 1486 100 1438 68 q 1493 103 1492 103 q 1503 98 1500 103 q 1507 88 1507 93 q 1501 76 1507 81 q 1394 19 1451 44 q 1281 -7 1338 -7 m 1226 -218 q 1166 -199 1188 -218 q 1144 -149 1144 -179 q 1186 -46 1144 -101 q 1231 1 1204 -19 q 1272 21 1257 21 q 1310 1 1310 21 q 1300 -18 1310 -8 q 1267 -56 1279 -37 q 1249 -94 1256 -75 q 1247 -104 1247 -100 q 1246 -111 1246 -108 q 1268 -135 1246 -135 q 1319 -125 1297 -135 q 1338 -121 1331 -121 q 1357 -130 1351 -121 q 1363 -151 1363 -139 q 1307 -204 1363 -185 l 1301 -206 q 1289 -193 1289 -206 q 1300 -181 1289 -185 q 1330 -165 1319 -174 q 1336 -147 1340 -156 q 1268 -162 1299 -162 q 1215 -117 1215 -162 q 1219 -93 1215 -106 q 1271 -7 1233 -49 q 1242 -26 1263 -8 q 1208 -62 1222 -43 q 1172 -147 1172 -114 q 1226 -190 1172 -190 l 1263 -190 q 1276 -200 1276 -190 q 1260 -215 1276 -211 q 1243 -217 1251 -217 q 1226 -218 1235 -218 z "},"Å":{"ha":1619,"x_min":-74,"x_max":1807,"o":"m 553 714 q 524 733 531 714 q 521 769 518 753 q 587 874 533 831 q 722 946 640 918 q 900 988 803 974 q 1099 1001 997 1001 q 1160 1001 1113 1001 q 1273 996 1207 1000 q 1408 983 1339 992 q 1539 957 1478 974 q 1638 915 1600 940 q 1676 851 1676 889 q 1671 824 1676 836 q 1658 815 1667 815 q 1648 821 1653 815 q 1646 835 1643 826 q 1649 843 1649 839 q 1649 851 1649 847 q 1613 901 1649 881 q 1518 934 1576 921 q 1393 956 1460 947 q 1264 967 1326 964 q 1156 972 1201 971 q 1099 974 1111 974 q 900 960 994 974 q 731 919 806 946 q 608 854 656 893 q 549 764 560 815 q 548 760 549 763 q 547 754 547 757 q 553 742 547 742 q 574 753 563 742 q 592 771 586 764 q 739 872 660 840 q 901 911 818 903 q 1064 919 985 919 q 1253 912 1179 919 q 1371 894 1326 904 q 1443 875 1415 883 q 1453 863 1453 871 q 1447 851 1453 856 q 1435 847 1442 846 q 1365 866 1408 856 q 1250 884 1322 876 q 1064 892 1178 892 q 895 882 975 892 q 742 840 815 872 q 601 740 669 808 q 580 722 592 731 q 553 714 568 714 m 258 -47 q 149 -35 207 -47 q 41 2 92 -24 q -42 70 -10 28 q -74 175 -74 113 q -38 311 -74 249 q 58 424 -3 374 q 194 509 118 474 q 355 563 271 544 q 519 582 439 582 q 590 578 546 582 q 684 563 635 574 q 778 533 733 551 q 850 485 822 514 q 878 415 878 456 q 877 405 878 410 q 875 393 876 400 q 864 368 874 383 q 833 353 854 353 q 801 372 819 353 q 772 400 782 390 q 660 469 721 447 q 528 490 600 490 q 331 463 419 490 q 179 390 243 435 q 81 293 115 344 q 47 193 47 242 q 103 95 47 136 q 279 54 158 54 q 453 88 361 54 q 637 177 544 122 q 813 296 729 232 q 964 418 897 360 q 1027 470 985 436 q 1124 548 1069 504 q 1238 638 1179 592 q 1352 726 1297 683 q 1450 803 1407 769 q 1514 853 1493 836 q 1522 856 1517 856 q 1536 840 1536 856 q 1531 831 1536 835 q 1467 781 1510 814 q 1370 705 1425 747 q 1256 616 1315 663 q 1142 526 1197 569 q 1045 449 1088 483 q 982 397 1003 415 q 831 274 915 339 q 651 153 746 210 q 462 62 557 97 q 279 26 367 26 q 161 41 221 26 q 62 93 101 56 q 22 197 22 131 q 24 220 22 208 q 28 244 25 232 q 95 363 42 311 q 224 449 149 414 q 379 501 299 483 q 528 518 460 518 q 687 488 621 518 q 814 397 753 458 q 824 389 818 394 q 835 381 829 383 q 847 400 843 381 q 849 408 849 404 q 849 417 849 413 q 822 474 849 450 q 753 513 794 497 q 665 537 711 528 q 580 550 619 546 q 519 554 540 554 q 323 527 422 554 q 140 449 224 500 q 6 329 57 399 q -44 176 -44 260 q -17 88 -44 125 q 54 26 10 50 q 152 -8 99 3 q 258 -19 206 -19 q 437 8 347 -19 q 613 79 526 35 q 774 176 699 124 q 908 279 849 228 q 912 281 908 279 q 917 282 915 282 l 1161 282 q 1175 268 1175 282 q 1161 254 1175 254 l 922 254 q 786 150 863 203 q 622 53 710 97 q 442 -19 535 8 q 258 -47 350 -47 m 1339 97 q 1276 119 1294 97 q 1258 172 1258 140 q 1274 253 1258 210 q 1310 333 1290 296 q 1340 389 1329 371 q 1411 500 1368 436 q 1503 631 1454 564 q 1596 753 1553 697 q 1607 758 1600 758 q 1619 751 1614 758 q 1618 736 1625 743 q 1584 693 1611 728 q 1519 608 1557 658 q 1442 497 1482 557 q 1366 376 1401 436 q 1308 263 1331 315 q 1286 176 1286 211 q 1339 125 1286 125 q 1427 144 1378 125 q 1525 197 1476 163 q 1608 276 1574 232 q 1619 282 1613 282 q 1631 274 1626 282 q 1629 258 1636 265 q 1543 176 1594 213 q 1438 118 1492 139 q 1339 97 1385 97 m 1078 322 q 1038 323 1058 322 q 996 324 1018 324 q 982 338 982 324 q 996 351 982 351 q 1033 351 1014 351 q 1072 350 1053 350 q 1115 351 1093 350 q 1157 358 1136 353 q 1207 381 1185 365 q 1253 429 1229 396 q 1347 554 1300 493 q 1434 663 1394 615 q 1497 732 1474 710 q 1507 736 1501 736 q 1519 728 1514 736 q 1515 713 1524 719 q 1454 644 1493 690 q 1369 537 1415 597 q 1275 413 1322 476 q 1183 338 1232 353 q 1078 322 1135 322 m 1063 385 q 1049 399 1049 385 q 1054 410 1049 406 q 1139 480 1086 436 q 1249 573 1192 524 q 1354 663 1307 622 q 1363 665 1357 665 q 1378 650 1378 665 q 1372 640 1378 646 q 1267 551 1325 600 q 1157 459 1210 503 q 1071 388 1104 415 q 1063 385 1068 385 m 1281 -7 q 1215 6 1251 -7 q 1151 47 1178 18 q 1124 126 1124 76 q 1126 157 1124 142 q 1135 190 1129 172 q 1147 200 1139 200 q 1159 195 1154 200 q 1161 182 1164 190 q 1151 128 1151 153 q 1172 64 1151 88 q 1224 31 1193 40 q 1281 21 1254 21 q 1385 44 1332 21 q 1486 100 1438 68 q 1493 103 1492 103 q 1503 98 1500 103 q 1507 88 1507 93 q 1501 76 1507 81 q 1394 19 1451 44 q 1281 -7 1338 -7 m 1665 1028 q 1594 1055 1622 1028 q 1565 1124 1565 1082 q 1586 1193 1565 1161 q 1640 1244 1607 1225 q 1707 1264 1672 1264 q 1779 1236 1751 1264 q 1807 1167 1807 1208 q 1767 1067 1807 1107 q 1665 1028 1726 1028 m 1664 1054 q 1749 1088 1717 1053 q 1781 1169 1781 1124 q 1761 1217 1781 1199 q 1708 1236 1742 1236 q 1653 1220 1679 1236 q 1609 1178 1626 1204 q 1592 1122 1592 1153 q 1612 1073 1592 1093 q 1664 1054 1632 1053 m 1676 1085 q 1640 1099 1654 1085 q 1625 1135 1625 1113 q 1649 1184 1625 1163 q 1699 1206 1672 1206 q 1735 1192 1721 1206 q 1749 1156 1749 1178 q 1726 1106 1749 1128 q 1676 1085 1704 1085 m 1679 1113 q 1708 1125 1694 1113 q 1721 1154 1721 1138 q 1696 1178 1721 1178 q 1667 1165 1681 1178 q 1653 1136 1653 1153 q 1679 1113 1653 1113 z "},"Ǻ":{"ha":1619,"x_min":-74,"x_max":1882,"o":"m 553 714 q 524 733 531 714 q 521 769 518 753 q 587 874 533 831 q 722 946 640 918 q 900 988 803 974 q 1099 1001 997 1001 q 1160 1001 1113 1001 q 1273 996 1207 1000 q 1408 983 1339 992 q 1539 957 1478 974 q 1638 915 1600 940 q 1676 851 1676 889 q 1671 824 1676 836 q 1658 815 1667 815 q 1648 821 1653 815 q 1646 835 1643 826 q 1649 843 1649 839 q 1649 851 1649 847 q 1613 901 1649 881 q 1518 934 1576 921 q 1393 956 1460 947 q 1264 967 1326 964 q 1156 972 1201 971 q 1099 974 1111 974 q 900 960 994 974 q 731 919 806 946 q 608 854 656 893 q 549 764 560 815 q 548 760 549 763 q 547 754 547 757 q 553 742 547 742 q 574 753 563 742 q 592 771 586 764 q 739 872 660 840 q 901 911 818 903 q 1064 919 985 919 q 1253 912 1179 919 q 1371 894 1326 904 q 1443 875 1415 883 q 1453 863 1453 871 q 1447 851 1453 856 q 1435 847 1442 846 q 1365 866 1408 856 q 1250 884 1322 876 q 1064 892 1178 892 q 895 882 975 892 q 742 840 815 872 q 601 740 669 808 q 580 722 592 731 q 553 714 568 714 m 258 -47 q 149 -35 207 -47 q 41 2 92 -24 q -42 70 -10 28 q -74 175 -74 113 q -38 311 -74 249 q 58 424 -3 374 q 194 509 118 474 q 355 563 271 544 q 519 582 439 582 q 590 578 546 582 q 684 563 635 574 q 778 533 733 551 q 850 485 822 514 q 878 415 878 456 q 877 405 878 410 q 875 393 876 400 q 864 368 874 383 q 833 353 854 353 q 801 372 819 353 q 772 400 782 390 q 660 469 721 447 q 528 490 600 490 q 331 463 419 490 q 179 390 243 435 q 81 293 115 344 q 47 193 47 242 q 103 95 47 136 q 279 54 158 54 q 453 88 361 54 q 637 177 544 122 q 813 296 729 232 q 964 418 897 360 q 1027 470 985 436 q 1124 548 1069 504 q 1238 638 1179 592 q 1352 726 1297 683 q 1450 803 1407 769 q 1514 853 1493 836 q 1522 856 1517 856 q 1536 840 1536 856 q 1531 831 1536 835 q 1467 781 1510 814 q 1370 705 1425 747 q 1256 616 1315 663 q 1142 526 1197 569 q 1045 449 1088 483 q 982 397 1003 415 q 831 274 915 339 q 651 153 746 210 q 462 62 557 97 q 279 26 367 26 q 161 41 221 26 q 62 93 101 56 q 22 197 22 131 q 24 220 22 208 q 28 244 25 232 q 95 363 42 311 q 224 449 149 414 q 379 501 299 483 q 528 518 460 518 q 687 488 621 518 q 814 397 753 458 q 824 389 818 394 q 835 381 829 383 q 847 400 843 381 q 849 408 849 404 q 849 417 849 413 q 822 474 849 450 q 753 513 794 497 q 665 537 711 528 q 580 550 619 546 q 519 554 540 554 q 323 527 422 554 q 140 449 224 500 q 6 329 57 399 q -44 176 -44 260 q -17 88 -44 125 q 54 26 10 50 q 152 -8 99 3 q 258 -19 206 -19 q 437 8 347 -19 q 613 79 526 35 q 774 176 699 124 q 908 279 849 228 q 912 281 908 279 q 917 282 915 282 l 1161 282 q 1175 268 1175 282 q 1161 254 1175 254 l 922 254 q 786 150 863 203 q 622 53 710 97 q 442 -19 535 8 q 258 -47 350 -47 m 1339 97 q 1276 119 1294 97 q 1258 172 1258 140 q 1274 253 1258 210 q 1310 333 1290 296 q 1340 389 1329 371 q 1411 500 1368 436 q 1503 631 1454 564 q 1596 753 1553 697 q 1607 758 1600 758 q 1619 751 1614 758 q 1618 736 1625 743 q 1584 693 1611 728 q 1519 608 1557 658 q 1442 497 1482 557 q 1366 376 1401 436 q 1308 263 1331 315 q 1286 176 1286 211 q 1339 125 1286 125 q 1427 144 1378 125 q 1525 197 1476 163 q 1608 276 1574 232 q 1619 282 1613 282 q 1631 274 1626 282 q 1629 258 1636 265 q 1543 176 1594 213 q 1438 118 1492 139 q 1339 97 1385 97 m 1078 322 q 1038 323 1058 322 q 996 324 1018 324 q 982 338 982 324 q 996 351 982 351 q 1033 351 1014 351 q 1072 350 1053 350 q 1115 351 1093 350 q 1157 358 1136 353 q 1207 381 1185 365 q 1253 429 1229 396 q 1347 554 1300 493 q 1434 663 1394 615 q 1497 732 1474 710 q 1507 736 1501 736 q 1519 728 1514 736 q 1515 713 1524 719 q 1454 644 1493 690 q 1369 537 1415 597 q 1275 413 1322 476 q 1183 338 1232 353 q 1078 322 1135 322 m 1063 385 q 1049 399 1049 385 q 1054 410 1049 406 q 1139 480 1086 436 q 1249 573 1192 524 q 1354 663 1307 622 q 1363 665 1357 665 q 1378 650 1378 665 q 1372 640 1378 646 q 1267 551 1325 600 q 1157 459 1210 503 q 1071 388 1104 415 q 1063 385 1068 385 m 1281 -7 q 1215 6 1251 -7 q 1151 47 1178 18 q 1124 126 1124 76 q 1126 157 1124 142 q 1135 190 1129 172 q 1147 200 1139 200 q 1159 195 1154 200 q 1161 182 1164 190 q 1151 128 1151 153 q 1172 64 1151 88 q 1224 31 1193 40 q 1281 21 1254 21 q 1385 44 1332 21 q 1486 100 1438 68 q 1493 103 1492 103 q 1503 98 1500 103 q 1507 88 1507 93 q 1501 76 1507 81 q 1394 19 1451 44 q 1281 -7 1338 -7 m 1665 1028 q 1594 1055 1622 1028 q 1565 1124 1565 1082 q 1586 1193 1565 1161 q 1640 1244 1607 1225 q 1707 1264 1672 1264 q 1779 1236 1751 1264 q 1807 1167 1807 1208 q 1767 1067 1807 1107 q 1665 1028 1726 1028 m 1664 1054 q 1749 1088 1717 1053 q 1781 1169 1781 1124 q 1761 1217 1781 1199 q 1708 1236 1742 1236 q 1653 1220 1679 1236 q 1609 1178 1626 1204 q 1592 1122 1592 1153 q 1612 1073 1592 1093 q 1664 1054 1632 1053 m 1676 1085 q 1640 1099 1654 1085 q 1625 1135 1625 1113 q 1649 1184 1625 1163 q 1699 1206 1672 1206 q 1735 1192 1721 1206 q 1749 1156 1749 1178 q 1726 1106 1749 1128 q 1676 1085 1704 1085 m 1679 1113 q 1708 1125 1694 1113 q 1721 1154 1721 1138 q 1696 1178 1721 1178 q 1667 1165 1681 1178 q 1653 1136 1653 1153 q 1679 1113 1653 1113 m 1681 1313 q 1653 1349 1653 1313 q 1655 1376 1653 1365 q 1668 1399 1657 1388 l 1706 1436 q 1714 1439 1708 1439 q 1724 1435 1719 1439 q 1729 1425 1729 1432 q 1725 1417 1729 1421 l 1690 1382 q 1679 1366 1681 1372 q 1678 1349 1678 1360 q 1680 1340 1678 1340 q 1688 1344 1682 1340 q 1716 1368 1693 1349 q 1767 1411 1739 1388 q 1819 1455 1796 1435 q 1851 1482 1843 1475 q 1852 1483 1851 1482 q 1853 1485 1853 1483 q 1848 1492 1853 1488 q 1828 1508 1843 1497 q 1815 1515 1818 1515 q 1807 1511 1811 1515 q 1777 1478 1793 1496 q 1758 1458 1761 1461 q 1751 1456 1756 1456 q 1741 1460 1746 1456 q 1736 1471 1736 1465 q 1739 1479 1736 1476 q 1765 1506 1750 1490 q 1785 1528 1781 1522 q 1814 1543 1797 1543 q 1844 1531 1831 1543 q 1882 1483 1882 1501 q 1871 1463 1882 1474 q 1837 1433 1861 1454 q 1784 1389 1813 1413 q 1733 1346 1756 1365 q 1704 1322 1710 1326 q 1681 1313 1693 1313 z "},"Ã":{"ha":1619,"x_min":-74,"x_max":1886,"o":"m 553 714 q 524 733 531 714 q 521 769 518 753 q 587 874 533 831 q 722 946 640 918 q 900 988 803 974 q 1099 1001 997 1001 q 1160 1001 1113 1001 q 1273 996 1207 1000 q 1408 983 1339 992 q 1539 957 1478 974 q 1638 915 1600 940 q 1676 851 1676 889 q 1671 824 1676 836 q 1658 815 1667 815 q 1648 821 1653 815 q 1646 835 1643 826 q 1649 843 1649 839 q 1649 851 1649 847 q 1613 901 1649 881 q 1518 934 1576 921 q 1393 956 1460 947 q 1264 967 1326 964 q 1156 972 1201 971 q 1099 974 1111 974 q 900 960 994 974 q 731 919 806 946 q 608 854 656 893 q 549 764 560 815 q 548 760 549 763 q 547 754 547 757 q 553 742 547 742 q 574 753 563 742 q 592 771 586 764 q 739 872 660 840 q 901 911 818 903 q 1064 919 985 919 q 1253 912 1179 919 q 1371 894 1326 904 q 1443 875 1415 883 q 1453 863 1453 871 q 1447 851 1453 856 q 1435 847 1442 846 q 1365 866 1408 856 q 1250 884 1322 876 q 1064 892 1178 892 q 895 882 975 892 q 742 840 815 872 q 601 740 669 808 q 580 722 592 731 q 553 714 568 714 m 258 -47 q 149 -35 207 -47 q 41 2 92 -24 q -42 70 -10 28 q -74 175 -74 113 q -38 311 -74 249 q 58 424 -3 374 q 194 509 118 474 q 355 563 271 544 q 519 582 439 582 q 590 578 546 582 q 684 563 635 574 q 778 533 733 551 q 850 485 822 514 q 878 415 878 456 q 877 405 878 410 q 875 393 876 400 q 864 368 874 383 q 833 353 854 353 q 801 372 819 353 q 772 400 782 390 q 660 469 721 447 q 528 490 600 490 q 331 463 419 490 q 179 390 243 435 q 81 293 115 344 q 47 193 47 242 q 103 95 47 136 q 279 54 158 54 q 453 88 361 54 q 637 177 544 122 q 813 296 729 232 q 964 418 897 360 q 1027 470 985 436 q 1124 548 1069 504 q 1238 638 1179 592 q 1352 726 1297 683 q 1450 803 1407 769 q 1514 853 1493 836 q 1522 856 1517 856 q 1536 840 1536 856 q 1531 831 1536 835 q 1467 781 1510 814 q 1370 705 1425 747 q 1256 616 1315 663 q 1142 526 1197 569 q 1045 449 1088 483 q 982 397 1003 415 q 831 274 915 339 q 651 153 746 210 q 462 62 557 97 q 279 26 367 26 q 161 41 221 26 q 62 93 101 56 q 22 197 22 131 q 24 220 22 208 q 28 244 25 232 q 95 363 42 311 q 224 449 149 414 q 379 501 299 483 q 528 518 460 518 q 687 488 621 518 q 814 397 753 458 q 824 389 818 394 q 835 381 829 383 q 847 400 843 381 q 849 408 849 404 q 849 417 849 413 q 822 474 849 450 q 753 513 794 497 q 665 537 711 528 q 580 550 619 546 q 519 554 540 554 q 323 527 422 554 q 140 449 224 500 q 6 329 57 399 q -44 176 -44 260 q -17 88 -44 125 q 54 26 10 50 q 152 -8 99 3 q 258 -19 206 -19 q 437 8 347 -19 q 613 79 526 35 q 774 176 699 124 q 908 279 849 228 q 912 281 908 279 q 917 282 915 282 l 1161 282 q 1175 268 1175 282 q 1161 254 1175 254 l 922 254 q 786 150 863 203 q 622 53 710 97 q 442 -19 535 8 q 258 -47 350 -47 m 1339 97 q 1276 119 1294 97 q 1258 172 1258 140 q 1274 253 1258 210 q 1310 333 1290 296 q 1340 389 1329 371 q 1411 500 1368 436 q 1503 631 1454 564 q 1596 753 1553 697 q 1607 758 1600 758 q 1619 751 1614 758 q 1618 736 1625 743 q 1584 693 1611 728 q 1519 608 1557 658 q 1442 497 1482 557 q 1366 376 1401 436 q 1308 263 1331 315 q 1286 176 1286 211 q 1339 125 1286 125 q 1427 144 1378 125 q 1525 197 1476 163 q 1608 276 1574 232 q 1619 282 1613 282 q 1631 274 1626 282 q 1629 258 1636 265 q 1543 176 1594 213 q 1438 118 1492 139 q 1339 97 1385 97 m 1078 322 q 1038 323 1058 322 q 996 324 1018 324 q 982 338 982 324 q 996 351 982 351 q 1033 351 1014 351 q 1072 350 1053 350 q 1115 351 1093 350 q 1157 358 1136 353 q 1207 381 1185 365 q 1253 429 1229 396 q 1347 554 1300 493 q 1434 663 1394 615 q 1497 732 1474 710 q 1507 736 1501 736 q 1519 728 1514 736 q 1515 713 1524 719 q 1454 644 1493 690 q 1369 537 1415 597 q 1275 413 1322 476 q 1183 338 1232 353 q 1078 322 1135 322 m 1063 385 q 1049 399 1049 385 q 1054 410 1049 406 q 1139 480 1086 436 q 1249 573 1192 524 q 1354 663 1307 622 q 1363 665 1357 665 q 1378 650 1378 665 q 1372 640 1378 646 q 1267 551 1325 600 q 1157 459 1210 503 q 1071 388 1104 415 q 1063 385 1068 385 m 1281 -7 q 1215 6 1251 -7 q 1151 47 1178 18 q 1124 126 1124 76 q 1126 157 1124 142 q 1135 190 1129 172 q 1147 200 1139 200 q 1159 195 1154 200 q 1161 182 1164 190 q 1151 128 1151 153 q 1172 64 1151 88 q 1224 31 1193 40 q 1281 21 1254 21 q 1385 44 1332 21 q 1486 100 1438 68 q 1493 103 1492 103 q 1503 98 1500 103 q 1507 88 1507 93 q 1501 76 1507 81 q 1394 19 1451 44 q 1281 -7 1338 -7 m 1763 1032 q 1714 1040 1738 1032 q 1676 1057 1690 1049 q 1615 1076 1650 1076 q 1585 1069 1596 1076 q 1561 1051 1575 1063 q 1528 1038 1546 1038 q 1499 1049 1511 1038 q 1488 1076 1488 1060 q 1506 1114 1488 1096 q 1518 1119 1511 1119 q 1531 1107 1531 1119 q 1525 1094 1531 1100 q 1515 1076 1515 1085 q 1526 1065 1515 1065 q 1544 1074 1535 1065 q 1572 1093 1556 1082 q 1615 1104 1588 1104 q 1658 1097 1636 1104 q 1693 1081 1681 1089 q 1725 1066 1706 1072 q 1763 1060 1744 1060 q 1810 1075 1790 1060 q 1842 1108 1831 1090 q 1857 1133 1854 1126 q 1860 1144 1860 1142 q 1854 1153 1860 1153 q 1843 1147 1849 1153 q 1772 1113 1808 1113 q 1732 1119 1754 1113 q 1696 1133 1710 1126 q 1660 1148 1681 1142 q 1622 1154 1639 1154 q 1593 1150 1604 1154 q 1568 1135 1582 1146 q 1557 1131 1563 1131 q 1544 1144 1544 1131 q 1551 1157 1544 1154 q 1622 1182 1582 1182 q 1669 1174 1644 1182 q 1708 1158 1694 1167 q 1741 1146 1722 1151 q 1772 1140 1760 1140 q 1824 1167 1797 1140 q 1854 1181 1838 1181 q 1877 1170 1868 1181 q 1886 1143 1886 1160 q 1882 1122 1886 1133 q 1865 1093 1879 1115 q 1824 1051 1850 1071 q 1763 1032 1799 1032 z "},"B":{"ha":1694,"x_min":29,"x_max":1689,"o":"m 1274 514 q 1258 528 1258 514 q 1272 542 1258 542 q 1403 576 1343 544 q 1501 654 1464 607 q 1538 749 1538 701 q 1507 823 1538 789 q 1408 878 1476 857 q 1226 899 1340 899 q 1099 891 1171 899 q 954 865 1028 883 q 815 817 881 847 q 704 740 750 786 q 683 722 694 731 q 656 714 671 714 q 631 725 639 714 q 622 754 622 736 q 644 822 622 789 q 700 881 665 854 q 772 926 735 908 q 980 988 861 969 q 1215 1007 1099 1007 q 1402 995 1315 1007 q 1544 961 1489 983 q 1647 891 1606 936 q 1689 772 1689 846 q 1667 669 1689 718 q 1610 583 1646 619 q 1529 531 1574 547 q 1524 529 1528 529 q 1511 543 1511 529 q 1519 556 1511 551 q 1622 641 1582 579 q 1663 771 1663 703 q 1629 871 1663 832 q 1542 932 1596 910 q 1428 965 1489 954 q 1310 977 1367 975 q 1213 979 1253 979 q 981 960 1094 979 q 785 903 867 942 q 690 835 731 876 q 650 756 650 793 q 660 742 650 742 q 678 753 667 742 q 694 771 689 764 q 831 856 743 821 q 1022 908 918 890 q 1225 926 1126 926 q 1424 901 1349 926 q 1532 837 1499 876 q 1565 750 1565 797 q 1526 642 1565 694 q 1420 553 1486 589 q 1274 514 1354 517 m 361 -47 q 251 -35 310 -47 q 143 2 193 -24 q 61 70 93 28 q 29 175 29 113 q 73 331 29 257 q 188 460 117 404 q 347 549 260 517 q 519 582 433 582 q 605 574 553 582 q 710 547 657 565 q 799 497 763 528 q 839 422 836 467 q 820 390 840 408 q 783 372 800 372 q 767 386 771 372 q 723 428 763 404 q 624 472 683 453 q 503 490 565 490 q 372 463 435 490 q 260 391 310 435 q 181 296 210 347 q 151 196 151 244 q 204 95 151 136 q 382 54 257 54 q 518 83 447 54 q 660 158 589 111 q 797 265 731 206 q 921 386 864 324 q 1021 504 978 449 q 1080 581 1046 536 q 1151 674 1114 625 q 1220 765 1188 722 q 1272 839 1253 808 q 1285 846 1276 846 q 1296 840 1292 846 q 1294 825 1300 833 q 1242 750 1274 794 q 1173 658 1210 706 q 1102 565 1136 610 q 1043 488 1068 519 q 942 369 1000 432 q 815 245 883 306 q 674 135 747 185 q 526 56 600 86 q 382 26 451 26 q 265 41 324 26 q 165 92 206 56 q 125 196 125 129 q 160 321 125 263 q 253 424 196 379 q 376 493 310 468 q 503 518 442 518 q 622 501 561 518 q 729 456 683 483 q 789 401 775 429 q 811 422 804 410 q 773 484 808 458 q 689 525 738 510 q 594 547 640 540 q 519 554 547 554 q 357 524 439 554 q 208 440 275 493 q 99 319 140 386 q 58 176 58 251 q 85 88 58 125 q 157 26 113 50 q 255 -8 201 3 q 361 -19 308 -19 q 583 22 475 -19 q 787 131 690 64 q 964 279 883 199 q 1103 438 1044 360 q 1111 443 1106 438 q 1238 458 1168 458 q 1317 453 1278 458 q 1392 436 1357 447 q 1478 385 1443 418 q 1514 301 1514 353 q 1497 233 1514 271 q 1424 137 1471 175 q 1318 79 1376 99 q 1200 60 1260 60 q 1089 78 1142 60 q 1000 132 1036 96 q 996 142 996 136 q 1004 153 996 149 q 1019 151 1013 158 q 1099 99 1056 115 q 1188 83 1143 83 q 1297 103 1243 83 q 1393 154 1350 122 q 1462 224 1436 186 q 1488 300 1488 263 q 1463 363 1488 333 q 1383 410 1439 392 q 1314 426 1351 421 q 1240 432 1276 432 q 1122 417 1175 432 q 982 257 1064 339 q 801 106 900 175 q 590 -5 701 38 q 361 -47 479 -47 m 1190 526 q 1178 533 1183 526 q 1178 547 1172 539 q 1226 622 1196 576 q 1291 722 1256 668 q 1357 822 1326 775 q 1368 829 1361 829 q 1381 822 1375 829 q 1381 807 1386 815 q 1315 707 1350 760 q 1249 608 1279 654 q 1201 533 1219 563 q 1190 526 1199 526 m 1229 -14 q 1050 15 1136 -14 q 913 94 964 43 q 908 104 908 99 q 917 116 908 111 q 932 114 925 121 q 1060 40 981 67 q 1226 14 1140 14 q 1384 38 1307 14 q 1519 113 1461 63 q 1599 242 1576 163 q 1608 304 1608 272 q 1553 419 1608 378 q 1401 474 1499 461 q 1389 488 1389 476 q 1406 501 1389 504 q 1572 440 1507 489 q 1636 306 1636 392 q 1633 271 1636 289 q 1625 233 1631 253 q 1539 92 1600 147 q 1397 12 1478 38 q 1229 -14 1315 -14 z "},"C":{"ha":1000,"x_min":11,"x_max":1147,"o":"m 336 -40 q 167 -1 240 -40 q 52 109 93 38 q 11 279 11 181 q 61 508 11 397 q 197 711 111 618 q 391 874 283 804 q 615 983 499 944 q 840 1022 731 1022 q 1015 994 947 1022 q 1115 919 1083 965 q 1147 819 1147 874 q 1121 717 1147 768 q 1044 623 1094 665 q 922 555 993 581 q 764 529 851 529 q 686 536 731 529 q 599 560 642 543 q 527 607 556 578 q 499 682 499 636 l 499 683 q 513 697 499 697 q 526 685 526 697 q 572 610 532 638 q 665 569 611 582 q 764 557 718 557 q 951 597 871 557 q 1074 698 1031 638 q 1118 819 1118 758 q 1090 906 1118 867 q 1000 970 1061 946 q 840 994 939 994 q 622 956 735 994 q 406 850 510 918 q 219 692 301 782 q 88 497 136 601 q 39 279 39 392 q 120 66 39 144 q 336 -12 201 -12 q 506 15 422 -12 q 658 95 590 42 q 765 228 726 149 q 776 253 769 236 q 788 286 782 269 q 793 308 793 303 q 792 317 793 315 q 792 319 792 319 q 781 322 789 322 q 749 306 760 322 q 731 269 738 290 q 711 231 724 247 q 616 140 676 183 q 488 68 556 96 q 358 40 419 40 q 184 106 247 40 q 121 282 121 172 q 165 472 121 376 q 284 654 210 568 q 451 808 358 740 q 642 914 544 875 q 831 953 740 953 q 1023 912 965 953 q 1081 815 1081 871 q 1057 737 1081 776 q 991 664 1033 697 q 893 610 949 631 q 775 589 838 589 q 715 597 753 589 q 640 621 678 606 q 575 660 601 636 q 549 714 549 683 l 549 717 q 563 729 549 729 q 576 718 575 729 q 603 679 581 697 q 657 647 625 661 q 721 624 689 632 q 775 617 753 617 q 912 647 849 617 q 1014 724 975 678 q 1053 814 1053 769 q 1002 892 1053 858 q 831 925 951 925 q 650 888 744 925 q 467 785 556 850 q 306 637 378 719 q 191 463 233 554 q 149 282 149 371 q 204 126 149 185 q 358 68 260 68 q 452 85 400 68 q 556 133 504 103 q 647 200 607 163 q 704 276 688 238 q 729 327 717 304 q 781 350 742 350 q 821 308 821 350 q 815 279 821 299 q 801 242 808 260 q 790 215 794 224 q 677 74 750 131 q 515 -12 604 17 q 336 -40 426 -40 z "},"Ć":{"ha":1000,"x_min":11,"x_max":1147,"o":"m 336 -40 q 167 -1 240 -40 q 52 109 93 38 q 11 279 11 181 q 61 508 11 397 q 197 711 111 618 q 391 874 283 804 q 615 983 499 944 q 840 1022 731 1022 q 1015 994 947 1022 q 1115 919 1083 965 q 1147 819 1147 874 q 1121 717 1147 768 q 1044 623 1094 665 q 922 555 993 581 q 764 529 851 529 q 686 536 731 529 q 599 560 642 543 q 527 607 556 578 q 499 682 499 636 l 499 683 q 513 697 499 697 q 526 685 526 697 q 572 610 532 638 q 665 569 611 582 q 764 557 718 557 q 951 597 871 557 q 1074 698 1031 638 q 1118 819 1118 758 q 1090 906 1118 867 q 1000 970 1061 946 q 840 994 939 994 q 622 956 735 994 q 406 850 510 918 q 219 692 301 782 q 88 497 136 601 q 39 279 39 392 q 120 66 39 144 q 336 -12 201 -12 q 506 15 422 -12 q 658 95 590 42 q 765 228 726 149 q 776 253 769 236 q 788 286 782 269 q 793 308 793 303 q 792 317 793 315 q 792 319 792 319 q 781 322 789 322 q 749 306 760 322 q 731 269 738 290 q 711 231 724 247 q 616 140 676 183 q 488 68 556 96 q 358 40 419 40 q 184 106 247 40 q 121 282 121 172 q 165 472 121 376 q 284 654 210 568 q 451 808 358 740 q 642 914 544 875 q 831 953 740 953 q 1023 912 965 953 q 1081 815 1081 871 q 1057 737 1081 776 q 991 664 1033 697 q 893 610 949 631 q 775 589 838 589 q 715 597 753 589 q 640 621 678 606 q 575 660 601 636 q 549 714 549 683 l 549 717 q 563 729 549 729 q 576 718 575 729 q 603 679 581 697 q 657 647 625 661 q 721 624 689 632 q 775 617 753 617 q 912 647 849 617 q 1014 724 975 678 q 1053 814 1053 769 q 1002 892 1053 858 q 831 925 951 925 q 650 888 744 925 q 467 785 556 850 q 306 637 378 719 q 191 463 233 554 q 149 282 149 371 q 204 126 149 185 q 358 68 260 68 q 452 85 400 68 q 556 133 504 103 q 647 200 607 163 q 704 276 688 238 q 729 327 717 304 q 781 350 742 350 q 821 308 821 350 q 815 279 821 299 q 801 242 808 260 q 790 215 794 224 q 677 74 750 131 q 515 -12 604 17 q 336 -40 426 -40 m 915 1129 q 888 1165 888 1129 q 890 1193 888 1182 q 903 1215 892 1204 l 940 1253 q 949 1256 943 1256 q 959 1252 954 1256 q 964 1242 964 1249 q 960 1233 964 1238 l 925 1199 q 914 1183 915 1189 q 913 1165 913 1176 q 915 1157 913 1157 q 922 1161 917 1157 q 951 1185 928 1165 q 1002 1228 974 1204 q 1054 1272 1031 1251 q 1086 1299 1078 1292 q 1087 1299 1086 1299 q 1088 1301 1088 1300 q 1083 1309 1088 1304 q 1063 1325 1078 1314 q 1050 1332 1053 1332 q 1042 1328 1046 1332 q 1012 1295 1028 1313 q 993 1275 996 1278 q 986 1272 990 1272 q 976 1277 981 1272 q 971 1288 971 1282 q 974 1296 971 1293 q 1000 1323 985 1307 q 1019 1344 1015 1339 q 1049 1360 1032 1360 q 1079 1347 1065 1360 q 1117 1300 1117 1318 q 1106 1279 1117 1290 q 1072 1250 1096 1271 q 1019 1206 1047 1229 q 967 1163 990 1182 q 939 1139 944 1143 q 915 1129 928 1129 z "},"Č":{"ha":1000,"x_min":11,"x_max":1228,"o":"m 867 1317 q 901 1315 889 1317 q 918 1304 913 1313 q 933 1285 925 1297 q 947 1261 942 1272 q 949 1251 949 1258 q 933 1238 946 1238 q 922 1244 926 1238 q 909 1267 917 1256 q 896 1285 901 1279 q 888 1288 894 1288 q 861 1289 881 1289 q 854 1276 846 1289 q 877 1245 863 1264 q 906 1206 892 1226 q 934 1167 921 1183 q 953 1143 947 1151 q 957 1140 956 1140 q 976 1150 961 1140 q 1010 1171 983 1154 q 1068 1208 1036 1188 q 1126 1243 1100 1228 q 1156 1261 1151 1258 q 1169 1271 1161 1265 q 1181 1281 1178 1276 q 1172 1285 1185 1285 q 1148 1282 1157 1285 q 1132 1275 1139 1279 q 1102 1260 1125 1272 q 1054 1234 1079 1247 q 1018 1214 1029 1221 q 1006 1210 1013 1210 q 994 1224 992 1210 q 1006 1236 997 1232 q 1043 1258 1018 1244 q 1092 1283 1068 1271 q 1122 1299 1117 1296 q 1178 1313 1149 1313 q 1224 1288 1228 1313 q 1199 1260 1221 1274 l 989 1128 q 950 1113 965 1113 q 928 1126 938 1113 l 885 1186 q 855 1227 871 1206 q 832 1260 839 1249 q 826 1285 824 1271 q 839 1308 829 1299 q 867 1317 849 1317 m 336 -40 q 167 -1 240 -40 q 52 109 93 38 q 11 279 11 181 q 61 508 11 397 q 197 711 111 618 q 391 874 283 804 q 615 983 499 944 q 840 1022 731 1022 q 1015 994 947 1022 q 1115 919 1083 965 q 1147 819 1147 874 q 1121 717 1147 768 q 1044 623 1094 665 q 922 555 993 581 q 764 529 851 529 q 686 536 731 529 q 599 560 642 543 q 527 607 556 578 q 499 682 499 636 l 499 683 q 513 697 499 697 q 526 685 526 697 q 572 610 532 638 q 665 569 611 582 q 764 557 718 557 q 951 597 871 557 q 1074 698 1031 638 q 1118 819 1118 758 q 1090 906 1118 867 q 1000 970 1061 946 q 840 994 939 994 q 622 956 735 994 q 406 850 510 918 q 219 692 301 782 q 88 497 136 601 q 39 279 39 392 q 120 66 39 144 q 336 -12 201 -12 q 506 15 422 -12 q 658 95 590 42 q 765 228 726 149 q 776 253 769 236 q 788 286 782 269 q 793 308 793 303 q 792 317 793 315 q 792 319 792 319 q 781 322 789 322 q 749 306 760 322 q 731 269 738 290 q 711 231 724 247 q 616 140 676 183 q 488 68 556 96 q 358 40 419 40 q 184 106 247 40 q 121 282 121 172 q 165 472 121 376 q 284 654 210 568 q 451 808 358 740 q 642 914 544 875 q 831 953 740 953 q 1023 912 965 953 q 1081 815 1081 871 q 1057 737 1081 776 q 991 664 1033 697 q 893 610 949 631 q 775 589 838 589 q 715 597 753 589 q 640 621 678 606 q 575 660 601 636 q 549 714 549 683 l 549 717 q 563 729 549 729 q 576 718 575 729 q 603 679 581 697 q 657 647 625 661 q 721 624 689 632 q 775 617 753 617 q 912 647 849 617 q 1014 724 975 678 q 1053 814 1053 769 q 1002 892 1053 858 q 831 925 951 925 q 650 888 744 925 q 467 785 556 850 q 306 637 378 719 q 191 463 233 554 q 149 282 149 371 q 204 126 149 185 q 358 68 260 68 q 452 85 400 68 q 556 133 504 103 q 647 200 607 163 q 704 276 688 238 q 729 327 717 304 q 781 350 742 350 q 821 308 821 350 q 815 279 821 299 q 801 242 808 260 q 790 215 794 224 q 677 74 750 131 q 515 -12 604 17 q 336 -40 426 -40 z "},"Ç":{"ha":1000,"x_min":11,"x_max":1147,"o":"m 336 -40 q 167 -1 240 -40 q 52 109 93 38 q 11 279 11 181 q 61 508 11 397 q 197 711 111 618 q 391 874 283 804 q 615 983 499 944 q 840 1022 731 1022 q 1015 994 947 1022 q 1115 919 1083 965 q 1147 819 1147 874 q 1121 717 1147 768 q 1044 623 1094 665 q 922 555 993 581 q 764 529 851 529 q 686 536 731 529 q 599 560 642 543 q 527 607 556 578 q 499 682 499 636 l 499 683 q 513 697 499 697 q 526 685 526 697 q 572 610 532 638 q 665 569 611 582 q 764 557 718 557 q 951 597 871 557 q 1074 698 1031 638 q 1118 819 1118 758 q 1090 906 1118 867 q 1000 970 1061 946 q 840 994 939 994 q 622 956 735 994 q 406 850 510 918 q 219 692 301 782 q 88 497 136 601 q 39 279 39 392 q 120 66 39 144 q 336 -12 201 -12 q 506 15 422 -12 q 658 95 590 42 q 765 228 726 149 q 776 253 769 236 q 788 286 782 269 q 793 308 793 303 q 792 317 793 315 q 792 319 792 319 q 781 322 789 322 q 749 306 760 322 q 731 269 738 290 q 711 231 724 247 q 616 140 676 183 q 488 68 556 96 q 358 40 419 40 q 184 106 247 40 q 121 282 121 172 q 165 472 121 376 q 284 654 210 568 q 451 808 358 740 q 642 914 544 875 q 831 953 740 953 q 1023 912 965 953 q 1081 815 1081 871 q 1057 737 1081 776 q 991 664 1033 697 q 893 610 949 631 q 775 589 838 589 q 715 597 753 589 q 640 621 678 606 q 575 660 601 636 q 549 714 549 683 l 549 717 q 563 729 549 729 q 576 718 575 729 q 603 679 581 697 q 657 647 625 661 q 721 624 689 632 q 775 617 753 617 q 912 647 849 617 q 1014 724 975 678 q 1053 814 1053 769 q 1002 892 1053 858 q 831 925 951 925 q 650 888 744 925 q 467 785 556 850 q 306 637 378 719 q 191 463 233 554 q 149 282 149 371 q 204 126 149 185 q 358 68 260 68 q 452 85 400 68 q 556 133 504 103 q 647 200 607 163 q 704 276 688 238 q 729 327 717 304 q 781 350 742 350 q 821 308 821 350 q 815 279 821 299 q 801 242 808 260 q 790 215 794 224 q 677 74 750 131 q 515 -12 604 17 q 336 -40 426 -40 m 215 -301 q 176 -297 197 -301 q 140 -283 154 -292 q 114 -256 122 -272 q 106 -224 106 -240 q 115 -194 106 -207 q 140 -182 124 -182 q 147 -183 143 -182 q 154 -185 150 -183 l 158 -186 q 188 -202 174 -194 q 215 -210 203 -210 q 229 -207 225 -210 q 233 -197 233 -204 q 219 -167 233 -185 q 200 -140 213 -158 q 188 -101 188 -122 q 194 -79 188 -86 q 206 -72 200 -72 q 215 -92 222 -72 q 221 -122 210 -107 q 242 -150 232 -137 q 261 -199 261 -176 q 243 -232 261 -222 q 218 -239 229 -239 q 180 -229 199 -239 q 146 -211 161 -219 l 144 -211 q 133 -225 133 -211 q 154 -258 133 -246 q 215 -274 179 -274 q 315 -214 307 -274 q 302 -175 318 -199 q 269 -126 286 -151 q 249 -83 251 -101 q 257 -35 246 -53 q 286 -12 268 -18 q 293 -11 289 -11 q 307 -22 307 -11 q 294 -37 307 -33 q 279 -51 285 -42 q 276 -83 274 -61 q 297 -122 279 -100 q 331 -168 315 -144 q 343 -217 347 -192 q 215 -301 332 -301 z "},"Ĉ":{"ha":1000,"x_min":11,"x_max":1151,"o":"m 336 -40 q 167 -1 240 -40 q 52 109 93 38 q 11 279 11 181 q 61 508 11 397 q 197 711 111 618 q 391 874 283 804 q 615 983 499 944 q 840 1022 731 1022 q 1015 994 947 1022 q 1115 919 1083 965 q 1147 819 1147 874 q 1121 717 1147 768 q 1044 623 1094 665 q 922 555 993 581 q 764 529 851 529 q 686 536 731 529 q 599 560 642 543 q 527 607 556 578 q 499 682 499 636 l 499 683 q 513 697 499 697 q 526 685 526 697 q 572 610 532 638 q 665 569 611 582 q 764 557 718 557 q 951 597 871 557 q 1074 698 1031 638 q 1118 819 1118 758 q 1090 906 1118 867 q 1000 970 1061 946 q 840 994 939 994 q 622 956 735 994 q 406 850 510 918 q 219 692 301 782 q 88 497 136 601 q 39 279 39 392 q 120 66 39 144 q 336 -12 201 -12 q 506 15 422 -12 q 658 95 590 42 q 765 228 726 149 q 776 253 769 236 q 788 286 782 269 q 793 308 793 303 q 792 317 793 315 q 792 319 792 319 q 781 322 789 322 q 749 306 760 322 q 731 269 738 290 q 711 231 724 247 q 616 140 676 183 q 488 68 556 96 q 358 40 419 40 q 184 106 247 40 q 121 282 121 172 q 165 472 121 376 q 284 654 210 568 q 451 808 358 740 q 642 914 544 875 q 831 953 740 953 q 1023 912 965 953 q 1081 815 1081 871 q 1057 737 1081 776 q 991 664 1033 697 q 893 610 949 631 q 775 589 838 589 q 715 597 753 589 q 640 621 678 606 q 575 660 601 636 q 549 714 549 683 l 549 717 q 563 729 549 729 q 576 718 575 729 q 603 679 581 697 q 657 647 625 661 q 721 624 689 632 q 775 617 753 617 q 912 647 849 617 q 1014 724 975 678 q 1053 814 1053 769 q 1002 892 1053 858 q 831 925 951 925 q 650 888 744 925 q 467 785 556 850 q 306 637 378 719 q 191 463 233 554 q 149 282 149 371 q 204 126 149 185 q 358 68 260 68 q 452 85 400 68 q 556 133 504 103 q 647 200 607 163 q 704 276 688 238 q 729 327 717 304 q 781 350 742 350 q 821 308 821 350 q 815 279 821 299 q 801 242 808 260 q 790 215 794 224 q 677 74 750 131 q 515 -12 604 17 q 336 -40 426 -40 m 1108 1125 q 1074 1127 1086 1125 q 1057 1138 1063 1129 q 1042 1158 1051 1144 q 1028 1181 1033 1171 q 1026 1190 1026 1183 q 1042 1204 1029 1204 q 1053 1197 1050 1204 q 1067 1176 1060 1188 q 1079 1157 1074 1164 q 1088 1154 1082 1156 q 1114 1153 1094 1153 q 1121 1165 1129 1153 q 1099 1197 1113 1178 q 1069 1236 1085 1215 q 1041 1275 1054 1260 q 1022 1299 1028 1290 q 1018 1301 1019 1301 q 999 1292 1014 1301 q 966 1271 993 1288 q 907 1234 939 1254 q 849 1199 875 1214 q 819 1181 824 1183 q 806 1172 815 1178 q 794 1161 797 1165 q 803 1157 792 1157 q 827 1160 818 1157 q 843 1167 836 1163 q 874 1183 850 1171 q 922 1208 897 1194 q 957 1228 946 1221 q 969 1232 964 1232 q 981 1218 983 1232 q 969 1206 978 1210 q 933 1185 958 1199 q 883 1159 907 1171 q 853 1143 860 1147 q 797 1129 826 1129 q 751 1154 747 1129 q 776 1182 754 1168 l 986 1314 q 1025 1329 1010 1329 q 1047 1315 1038 1329 l 1090 1256 q 1120 1215 1104 1238 q 1143 1182 1136 1193 q 1149 1157 1151 1171 q 1137 1134 1147 1143 q 1108 1125 1126 1125 z "},"Ċ":{"ha":1000,"x_min":11,"x_max":1147,"o":"m 336 -40 q 167 -1 240 -40 q 52 109 93 38 q 11 279 11 181 q 61 508 11 397 q 197 711 111 618 q 391 874 283 804 q 615 983 499 944 q 840 1022 731 1022 q 1015 994 947 1022 q 1115 919 1083 965 q 1147 819 1147 874 q 1121 717 1147 768 q 1044 623 1094 665 q 922 555 993 581 q 764 529 851 529 q 686 536 731 529 q 599 560 642 543 q 527 607 556 578 q 499 682 499 636 l 499 683 q 513 697 499 697 q 526 685 526 697 q 572 610 532 638 q 665 569 611 582 q 764 557 718 557 q 951 597 871 557 q 1074 698 1031 638 q 1118 819 1118 758 q 1090 906 1118 867 q 1000 970 1061 946 q 840 994 939 994 q 622 956 735 994 q 406 850 510 918 q 219 692 301 782 q 88 497 136 601 q 39 279 39 392 q 120 66 39 144 q 336 -12 201 -12 q 506 15 422 -12 q 658 95 590 42 q 765 228 726 149 q 776 253 769 236 q 788 286 782 269 q 793 308 793 303 q 792 317 793 315 q 792 319 792 319 q 781 322 789 322 q 749 306 760 322 q 731 269 738 290 q 711 231 724 247 q 616 140 676 183 q 488 68 556 96 q 358 40 419 40 q 184 106 247 40 q 121 282 121 172 q 165 472 121 376 q 284 654 210 568 q 451 808 358 740 q 642 914 544 875 q 831 953 740 953 q 1023 912 965 953 q 1081 815 1081 871 q 1057 737 1081 776 q 991 664 1033 697 q 893 610 949 631 q 775 589 838 589 q 715 597 753 589 q 640 621 678 606 q 575 660 601 636 q 549 714 549 683 l 549 717 q 563 729 549 729 q 576 718 575 729 q 603 679 581 697 q 657 647 625 661 q 721 624 689 632 q 775 617 753 617 q 912 647 849 617 q 1014 724 975 678 q 1053 814 1053 769 q 1002 892 1053 858 q 831 925 951 925 q 650 888 744 925 q 467 785 556 850 q 306 637 378 719 q 191 463 233 554 q 149 282 149 371 q 204 126 149 185 q 358 68 260 68 q 452 85 400 68 q 556 133 504 103 q 647 200 607 163 q 704 276 688 238 q 729 327 717 304 q 781 350 742 350 q 821 308 821 350 q 815 279 821 299 q 801 242 808 260 q 790 215 794 224 q 677 74 750 131 q 515 -12 604 17 q 336 -40 426 -40 m 932 1131 q 906 1183 906 1153 q 924 1229 906 1211 q 969 1247 943 1247 q 1016 1229 997 1247 q 1035 1183 1035 1211 q 1017 1139 1035 1157 q 1007 1135 1013 1135 q 995 1142 1000 1135 q 997 1158 990 1150 q 1007 1183 1007 1171 q 997 1209 1007 1199 q 971 1219 986 1219 q 944 1209 956 1219 q 933 1183 933 1199 q 949 1154 933 1163 q 954 1143 954 1150 q 947 1131 954 1136 q 932 1131 940 1125 z "},"D":{"ha":1610,"x_min":4,"x_max":1597,"o":"m 951 -11 q 817 10 882 -11 q 696 79 751 32 q 690 90 690 83 q 699 103 690 97 q 714 101 707 108 q 826 38 765 58 q 951 18 888 18 q 1147 56 1049 18 q 1331 161 1246 94 q 1477 313 1417 228 q 1557 493 1538 399 q 1569 601 1569 551 q 1524 779 1569 704 q 1399 902 1479 854 q 1213 973 1318 950 q 989 996 1108 996 q 648 958 800 996 q 381 856 496 919 q 188 717 265 793 q 71 562 110 640 q 32 415 32 483 q 85 286 32 338 q 247 235 139 235 q 431 283 333 235 q 610 421 529 331 q 657 482 631 444 q 708 563 683 519 q 747 648 732 606 q 763 724 763 690 q 751 767 763 749 q 742 769 749 769 q 725 765 729 769 q 729 742 729 756 q 709 652 729 707 q 656 540 689 597 q 582 436 622 482 q 485 353 540 389 q 371 299 429 318 q 260 281 313 281 q 134 319 178 281 q 90 417 90 357 q 94 457 90 436 q 176 623 111 538 q 353 781 242 708 q 622 899 465 854 q 978 944 778 944 q 1167 924 1078 944 q 1326 860 1257 903 q 1435 749 1396 817 q 1475 589 1475 682 q 1472 542 1475 567 q 1464 490 1469 517 q 1398 341 1447 414 q 1276 208 1349 268 q 1119 113 1204 149 q 947 78 1035 78 q 851 91 899 78 q 758 132 803 104 q 751 143 751 136 q 758 155 751 150 q 774 154 765 160 q 858 117 814 129 q 946 106 901 106 q 1108 139 1028 106 q 1258 228 1189 172 q 1374 353 1326 283 q 1438 496 1422 424 q 1445 544 1443 521 q 1447 588 1447 567 q 1384 774 1447 701 q 1215 882 1321 847 q 978 917 1108 917 q 628 873 781 917 q 368 758 475 829 q 199 606 261 688 q 121 451 136 525 q 119 435 119 443 q 118 419 118 426 q 153 340 118 371 q 260 308 188 308 q 363 326 308 308 q 469 377 417 344 q 561 456 521 410 q 634 559 603 503 q 683 665 665 615 q 700 740 700 714 q 699 754 700 750 q 697 760 697 757 q 696 765 696 763 q 710 789 696 781 q 740 797 724 797 q 775 782 764 797 q 790 725 790 758 q 773 639 790 686 q 730 546 756 592 q 677 463 704 500 q 631 403 650 425 q 443 258 546 308 q 247 207 340 207 q 65 265 125 207 q 4 413 4 324 q 44 568 4 485 q 164 732 85 651 q 362 878 243 813 q 638 984 481 944 q 989 1024 794 1024 q 1219 1000 1110 1024 q 1413 925 1328 976 q 1548 794 1499 874 q 1597 601 1597 714 q 1585 488 1597 549 q 1501 301 1564 390 q 1350 141 1439 211 q 1158 30 1261 71 q 951 -11 1054 -11 m 158 -47 q 128 -38 136 -47 q 119 -17 119 -29 q 139 30 119 6 q 179 54 158 54 q 349 95 261 54 q 524 202 438 136 q 686 348 610 268 q 818 504 763 428 q 876 582 842 538 q 948 674 911 626 q 1017 765 985 722 q 1069 839 1050 808 q 1082 846 1074 846 q 1094 840 1089 846 q 1093 825 1099 833 q 1040 750 1072 794 q 970 658 1007 706 q 899 565 933 610 q 840 488 864 521 q 708 330 785 411 q 541 180 631 249 q 359 69 451 111 q 179 26 267 26 q 160 13 175 26 q 146 -11 146 -1 q 158 -19 146 -19 q 450 50 310 -19 q 722 247 590 119 q 976 549 853 374 q 1026 622 996 576 q 1090 722 1056 668 q 1156 822 1125 775 q 1167 829 1160 829 q 1179 822 1174 829 q 1178 807 1185 815 q 1113 706 1147 760 q 1048 606 1078 653 q 999 532 1018 560 q 741 227 875 357 q 462 25 607 97 q 158 -47 317 -47 z "}}}
